<?xml version="1.0" standalone="no"?>
<!DOCTYPE svg PUBLIC "-//W3C//DTD SVG 1.1//EN" "http://www.w3.org/Graphics/SVG/1.1/DTD/svg11.dtd" >
<svg xmlns="http://www.w3.org/2000/svg">
<metadata></metadata>
<defs>
<font id="abrazo_script_ssinormal" horiz-adv-x="1126" >
<font-face units-per-em="2048" ascent="1638" descent="-410" />
<missing-glyph horiz-adv-x="584" />
<glyph horiz-adv-x="2048" />
<glyph horiz-adv-x="2048" />
<glyph unicode="&#xd;" horiz-adv-x="0" />
<glyph unicode=" "  horiz-adv-x="584" />
<glyph unicode="&#x09;" horiz-adv-x="584" />
<glyph unicode="&#xa0;" horiz-adv-x="584" />
<glyph unicode="!" horiz-adv-x="645" d="M82 18q0 44 28.5 81.5t69.5 37.5q13 0 32.5 -8t37.5 -24t30.5 -39t12.5 -50q0 -28 -35 -28q-62 -33 -111 -33q-65 0 -65 63zM213 276q0 19 4 31q41 112 103 291t101 284.5t81.5 204.5t85.5 179q14 26 41 26q22 0 38.5 -15t16.5 -36q0 -12 -6 -24q-44 -79 -89 -187.5 t-92.5 -241.5t-90 -253.5t-95.5 -264.5q-12 -32 -45 -32q-19 0 -36 13t-17 25z" />
<glyph unicode="&#x22;" horiz-adv-x="532" d="M231 993q0 8 5 15q14 32 31 77t33 98.5t24 94.5q6 29 34 29q13 0 24 -9t11 -24q0 -9 -11.5 -57.5t-33.5 -113.5t-51 -124q-8 -18 -29 -18q-12 0 -24.5 9.5t-12.5 22.5zM446 993q0 5 5 15q14 32 31 77t33 98.5t24 94.5q6 29 34 29q13 0 24 -9t11 -24q0 -9 -11.5 -57.5 t-33.5 -113.5t-51 -124q-8 -18 -29 -18q-12 0 -24.5 9.5t-12.5 22.5z" />
<glyph unicode="#" horiz-adv-x="1139" d="M33 578q0 26 33 32q155 24 243 35q53 123 84 211q-57 1 -106.5 1.5t-139.5 0.5q-38 0 -38 39q0 17 12 31t31 14q100 0 154 -0.5t116 -1.5q44 130 59 236q6 32 33 32q19 0 34 -11.5t15 -33.5q0 -24 -17 -92.5t-36 -124.5q61 0 126.5 10t127.5 19q48 107 123 227 q10 19 31 19q16 0 30.5 -12.5t14.5 -30.5q0 -12 -40 -81t-59 -106q18 4 66.5 14t98 19.5t52.5 9.5q19 0 30 -13.5t11 -31.5q0 -32 -30 -37q-71 -14 -158 -32t-117 -23q-44 -94 -90 -211q34 1 73.5 2t75.5 2t60.5 1.5t75.5 0.5q19 0 30 -12t11 -29q0 -15 -11 -28t-30 -13 q-77 0 -185.5 -5t-128.5 -5q-43 -118 -75 -242q-10 -28 -37 -28q-15 0 -29 9.5t-14 20.5q0 42 65 234q-59 0 -109 -6t-134 -19q-20 -45 -134 -278q-11 -23 -34 -23q-14 0 -28.5 11.5t-14.5 21.5q0 23 4 29q51 95 112 227q-83 -10 -192 -29q-21 0 -33 15.5t-12 34.5zM403 657 q76 10 126.5 16.5t107.5 6.5q40 105 84 201q-134 -23 -240 -23q-24 -70 -78 -201z" />
<glyph unicode="$" horiz-adv-x="1368" d="M12 160q0 50 36 95.5t115.5 75t201.5 29.5q32 0 99.5 -9.5t108.5 -22.5q50 -18 50 -54q0 -22 -14 -38.5t-31 -16.5q-15 0 -39 8q-83 29 -183 29q-64 0 -129 -23.5t-65 -76.5q0 -36 41.5 -68.5t126 -53t209.5 -20.5q36 69 72 139t66.5 129t89.5 178.5t60 121.5 q-100 34 -158.5 72.5t-86 91t-27.5 128.5q0 75 48 145.5t133.5 128t189 90t213.5 32.5q10 24 28 69q12 33 43 33q22 0 39 -14.5t17 -36.5q0 -5 -2.5 -12.5t-9.5 -22.5t-11 -26q63 -13 108.5 -41.5t72 -73t26.5 -105.5q0 -89 -60.5 -141.5t-150.5 -52.5q-43 0 -43 47 q0 48 45 57q63 14 82.5 27.5t19.5 44.5q0 64 -31.5 97t-107.5 44q-40 -98 -71.5 -171t-83.5 -185.5t-72 -153.5q149 -38 237.5 -122t88.5 -228q0 -100 -67.5 -175.5t-172.5 -122.5t-228.5 -71t-236.5 -24q-46 -85 -102 -193q-17 -28 -41 -28q-20 0 -38 15.5t-18 37.5 q0 12 7 25q48 87 73 139q-148 0 -254.5 37t-159.5 95t-53 122zM653 12q98 9 196.5 35.5t176 67.5t124 95t46.5 116q0 89 -65.5 141t-202.5 88q-22 -45 -68 -137t-75.5 -149t-63.5 -124t-68 -133zM668 858q0 -55 38.5 -100t170.5 -78q143 299 223 489q-74 0 -149.5 -26 t-140.5 -71t-103.5 -101t-38.5 -113z" />
<glyph unicode="%" horiz-adv-x="1208" d="M150 797q0 90 67 196.5t176.5 178t233.5 71.5q34 0 52.5 -15t18.5 -40q0 -20 -12 -34.5t-33 -14.5q-12 0 -30 2t-27 2q-66 0 -126 -31.5t-108 -83t-75 -108.5t-27 -101q0 -80 96 -80q67 0 128 45.5t96.5 105t35.5 97.5q0 25 -18 25q-10 0 -25 -8q-43 12 -43 59 q0 19 10 32t27 13q35 0 90.5 -38.5t55.5 -113.5q0 -52 -31 -108.5t-84.5 -104.5t-121 -77t-138.5 -29q-188 0 -188 160zM168 29q0 19 22 47q127 164 286 376.5t213.5 285t174.5 223t258 313.5q19 18 37 18q23 0 38 -14.5t15 -36.5q0 -16 -12 -33q-107 -126 -224 -272.5 t-206.5 -264t-286 -378t-217.5 -287.5q-21 -26 -45 -26q-20 0 -36.5 14t-16.5 35zM612 193q0 67 37.5 145.5t104.5 147t154.5 111t181.5 42.5q33 0 52 -14.5t19 -40.5q0 -20 -12 -34.5t-33 -14.5q-12 0 -30 2t-27 2q-66 0 -126 -31.5t-109 -84t-75 -107.5t-26 -101 q0 -80 96 -80q67 0 127.5 45.5t96.5 105t36 97.5q0 25 -18 25q-11 0 -25 -9q-43 14 -43 60q0 19 10 32t27 13q35 0 90.5 -38.5t55.5 -113.5q0 -52 -31 -108.5t-84.5 -104.5t-121 -77t-138.5 -29q-189 0 -189 160z" />
<glyph unicode="&#x26;" horiz-adv-x="1188" d="M18 236q0 88 56.5 185t145 176.5t183.5 121.5q-124 83 -124 186q0 82 76 178.5t204.5 162t278.5 65.5q90 0 160.5 -41t70.5 -152q0 -59 -44.5 -116t-102.5 -96t-115.5 -65t-75.5 -26q-20 0 -33.5 18.5t-13.5 38.5q0 37 33 46q49 15 107.5 48t99.5 76.5t41 87.5 q0 39 -26.5 53.5t-86.5 14.5q-103 0 -210 -37t-176 -103t-69 -145q0 -49 39.5 -90.5t112.5 -77.5q12 -6 12 -20q0 -28 -35 -55q-25 -13 -85.5 -45.5t-131.5 -85.5t-121.5 -126.5t-50.5 -162.5q0 -82 57.5 -135.5t157.5 -53.5q83 0 196.5 40t227.5 132q-117 132 -186 222 q-12 15 -12 28q0 23 17.5 39.5t39.5 16.5t37 -21q38 -50 85 -106.5t93 -108.5q72 78 125 166q15 27 43 27q19 0 36 -15t17 -37q0 -24 -49 -92t-100 -121q132 -136 202 -192q19 -15 19 -37q0 -21 -17 -37t-36 -16q-16 0 -31 12q-88 71 -213 199q-71 -52 -131.5 -92 t-161.5 -79.5t-201 -39.5q-98 0 -174 37t-118 103t-42 147z" />
<glyph unicode="'" horiz-adv-x="389" d="M279 993q0 7 4 15q14 32 31 77t33 98.5t24 94.5q6 29 35 29q14 0 24 -9t10 -24q0 -31 -31.5 -130.5t-64.5 -164.5q-8 -18 -29 -18q-12 0 -24 10t-12 22z" />
<glyph unicode="(" horiz-adv-x="481" d="M51 535q0 117 18 219.5t51 192.5t82 180.5t124 203.5q13 25 39 25q22 0 38.5 -16.5t16.5 -36.5q0 -16 -8 -29q-82 -124 -139 -242.5t-88 -244.5t-31 -261q0 -157 41.5 -310.5t95.5 -252.5q6 -12 6 -24q0 -22 -17 -38t-38 -16q-26 0 -41 29q-27 54 -52 119t-49.5 155 t-36.5 172.5t-12 174.5z" />
<glyph unicode=")" horiz-adv-x="481" d="M147 -70q0 14 9 29q102 156 168.5 302t97.5 272t31 231q0 138 -36 268.5t-89 227.5q-6 12 -6 24q0 21 16.5 36t38.5 15q27 0 41 -26q38 -71 69 -157.5t50.5 -186.5t19.5 -201q0 -383 -315 -862q-14 -25 -39 -25q-21 0 -38.5 16.5t-17.5 36.5z" />
<glyph unicode="*" horiz-adv-x="594" d="M53 936q0 19 17 31q36 22 69.5 44t65.5 42q-34 17 -119 57q-23 9 -23 37q0 16 11.5 29.5t27.5 13.5q6 0 29 -10q81 -35 125 -60q0 12 5 61t5 83q0 39 39 39q17 0 30 -11.5t13 -31.5q0 -29 -5 -69.5t-5 -49.5q95 60 131 84q9 6 20 6q17 0 29 -13.5t12 -31.5q0 -20 -16 -31 q-37 -25 -68.5 -45.5t-68.5 -44.5q30 -12 71.5 -32t69.5 -34q23 -11 23 -34q0 -17 -11.5 -31t-27.5 -14q-3 0 -17 4q-96 45 -155 73q0 -30 -6.5 -84.5t-6.5 -87.5q0 -20 -10.5 -29.5t-27.5 -9.5t-30 12t-13 31q0 31 4 81t4 69q-29 -19 -54 -35.5t-75 -48.5q-9 -6 -21 -6 q-15 0 -28 14.5t-13 32.5z" />
<glyph unicode="+" horiz-adv-x="758" d="M92 506q0 22 13.5 37.5t37.5 15.5q39 0 103 4t92 4q29 191 41 258q3 21 17 31t32 10q22 0 37.5 -12.5t15.5 -36.5q0 -16 -39 -246q26 0 81 4.5t102 4.5q25 0 38 -14.5t13 -37.5t-13 -38t-38 -15q-39 0 -105 -4t-96 -4q-10 -69 -35 -227q-3 -21 -17 -31t-32 -10 q-22 0 -37.5 13t-15.5 36q0 24 15.5 114t16.5 99q-26 0 -39 -0.5t-34.5 -1.5t-49.5 -2t-53 -2q-23 0 -37 15.5t-14 35.5z" />
<glyph unicode="," horiz-adv-x="287" d="M-2 -168q0 29 29 37q20 7 59.5 69t97.5 154q16 21 37 21q22 0 38.5 -15.5t16.5 -38.5q0 -17 -10 -30q-19 -24 -54 -85t-62 -98.5t-64 -60.5q-16 -10 -37 -10q-19 0 -35 18t-16 39z" />
<glyph unicode="-" horiz-adv-x="717" d="M92 528q0 21 13.5 36.5t37.5 15.5h430q25 0 38.5 -15t13.5 -37q0 -21 -13.5 -37t-38.5 -16h-430q-24 0 -37.5 16t-13.5 37z" />
<glyph unicode="." horiz-adv-x="358" d="M104 23q0 42 29 79t68 37q51 0 98 -69q-1 -3 -2.5 -5t-3.5 -6q14 -14 14 -34q0 -24 -41.5 -47t-93.5 -23q-32 0 -50 19.5t-18 48.5z" />
<glyph unicode="/" horiz-adv-x="594" d="M-20 -61q0 13 7 29.5t13 31.5q74 190 144 354.5t142.5 320.5t144.5 301t159 310q14 27 43 27q19 0 36 -15t17 -36q0 -13 -18 -48q-169 -320 -303 -610.5t-281 -671.5q-17 -45 -49 -45q-20 0 -37.5 16t-17.5 36z" />
<glyph unicode="0" horiz-adv-x="963" d="M10 350q0 132 51.5 299t145.5 318.5t224.5 247.5t283.5 96q48 0 92 -8q41 -10 41 -52q0 -20 -13 -35.5t-34 -15.5q-17 0 -47 4t-41 4q-118 0 -226 -82t-193 -213.5t-132 -275.5t-47 -258q0 -132 51.5 -236t177.5 -104q79 0 160.5 63t149 170t107.5 238.5t40 259.5 q0 111 -40.5 179t-123.5 75q-21 1 -31 15.5t-10 33.5q0 22 12.5 37.5t36.5 15.5q52 0 112 -33t103 -112t43 -209q0 -123 -40.5 -268t-117 -274.5t-183.5 -210t-234 -80.5q-84 0 -146.5 31t-99.5 85.5t-54.5 130.5t-17.5 164z" />
<glyph unicode="1" horiz-adv-x="614" d="M164 -14q0 14 14 49q24 61 61 171.5t87 266.5t100 295.5t92 243.5q-93 -57 -140.5 -80t-105.5 -23q-25 0 -41 19t-16 41q0 18 11 31.5t34 13.5q124 0 236 106q33 35 71.5 81.5t60.5 68.5t44 22q18 0 36 -13.5t23 -39.5q-74 -149 -138.5 -316.5t-121 -335.5t-116 -349.5 t-93.5 -266.5q-11 -30 -43 -30q-22 0 -38.5 11.5t-16.5 33.5z" />
<glyph unicode="2" horiz-adv-x="1198" d="M-86 31q0 54 43.5 95.5t112.5 41.5q103 0 215 -39q236 167 438 342q163 142 259.5 270.5t96.5 262.5q0 94 -58.5 154.5t-168.5 60.5q-91 0 -155 -33t-100 -78t-58 -94q-16 -33 -45 -33q-20 0 -35 17t-15 36q0 20 9 41q13 38 42 78t77.5 78.5t119.5 64t160 25.5 q148 0 239 -93.5t91 -223.5q0 -94 -35.5 -181t-97 -165t-127.5 -142.5t-164 -150.5q-164 -145 -350 -283q91 -38 135 -53t94 -15q74 0 142.5 11t127.5 38.5t97 71.5q14 17 36 17q23 0 39.5 -16.5t16.5 -39.5q0 -18 -29 -47q-72 -78 -185.5 -107.5t-244.5 -29.5 q-56 0 -110.5 14.5t-111 38.5t-110.5 47q-20 -13 -52.5 -34t-59 -35.5t-68.5 -28.5t-78 -14q-61 0 -97 38.5t-36 92.5zM27 33q0 -7 11 -14t28 -7q44 0 114 45q-33 9 -67 9q-86 0 -86 -33z" />
<glyph unicode="3" horiz-adv-x="1085" d="M51 254q0 35 16 51.5t37 16.5q19 0 34.5 -13.5t15.5 -36.5v-34q0 -45 37 -90.5t95 -76t113 -30.5q127 0 228.5 53.5t157 148.5t55.5 208q0 39 -8 74.5t-22 63.5t-36 48q-84 -27 -180 -27q-54 0 -89.5 28.5t-35.5 66.5q0 40 31.5 66t79.5 26q137 0 213 -45 q95 45 133.5 124t38.5 148q0 52 -24.5 98t-68 72.5t-98.5 26.5q-109 0 -179 -49.5t-99 -108.5q-15 -29 -43 -29q-21 0 -37.5 14.5t-16.5 34.5q0 14 7 25q42 86 133.5 150.5t234.5 64.5q85 0 151.5 -41t104 -109.5t37.5 -148.5q0 -84 -39.5 -180.5t-153.5 -165.5 q22 -27 45 -88.5t23 -140.5q0 -108 -34 -200.5t-102.5 -162.5t-171 -108.5t-235.5 -38.5q-86 0 -166 40.5t-131 113t-51 161.5z" />
<glyph unicode="4" horiz-adv-x="1106" d="M-8 348q0 51 34 79t93 28q54 0 112 -9q63 62 142.5 175.5t153 239.5t130.5 241t78 184q11 35 49 35q23 0 37.5 -13t14.5 -34q0 -54 -80 -221.5t-196.5 -351t-211.5 -279.5q29 -7 82.5 -21.5t112.5 -31.5t86.5 -24t89.5 -21q52 176 99.5 304t91 227.5t84.5 182.5t50 101 q19 30 46 30q20 0 36.5 -14.5t16.5 -38.5q0 -8 -15 -41q-47 -100 -101.5 -223.5t-110 -267t-95.5 -281.5q65 -10 115 -10q65 0 98 10q26 8 37 8q18 0 29.5 -13t11.5 -34q0 -46 -59 -59q-54 -12 -125 -12q-60 0 -135 10q-20 -59 -37 -132t-23 -132q-2 -21 -16.5 -32 t-32.5 -11q-19 0 -36 15t-17 32q0 39 15.5 117t41.5 159q-88 20 -143 35t-114.5 32l-101.5 29t-79 21q-34 -26 -79.5 -41.5t-88.5 -15.5q-45 0 -67.5 19.5t-22.5 49.5z" />
<glyph unicode="5" horiz-adv-x="1106" d="M10 141q0 24 14 39t33 15q39 0 56 -45q15 -53 83 -91.5t162 -38.5q175 0 303.5 79.5t195.5 201.5t67 246q0 152 -82 226.5t-224 74.5q-96 0 -210 -35q-26 -48 -61 -75t-62 -27q-24 0 -40 20.5t-16 52.5q0 48 28.5 71.5t82.5 45.5q21 67 47 155t44.5 147t33.5 91 q6 15 30.5 19t73.5 4q37 0 148 -2t170 -2q6 0 90 5t121 5q21 0 35 -16t14 -35q0 -45 -43 -51q-77 -11 -232 -11q-41 0 -123.5 2t-136.5 3.5t-71 1.5q-16 -60 -36 -141t-40 -136q66 14 141 14q114 0 211 -43.5t154 -134t57 -219.5q0 -159 -62.5 -281.5t-165 -201.5 t-218.5 -117.5t-224 -38.5q-83 0 -164 30t-132.5 82t-51.5 111z" />
<glyph unicode="6" horiz-adv-x="983" d="M16 352q0 153 74 323t192 311.5t256.5 229t262.5 87.5q21 0 34 -16t13 -38q0 -18 -10 -32t-31 -17q-200 -35 -357.5 -188t-245 -343.5t-87.5 -318.5q0 -95 33 -167t93.5 -112t141.5 -40q135 0 240 63.5t162 173.5t57 246q0 120 -54.5 192t-171.5 72q-166 0 -268 -151 q-22 -35 -47 -35q-20 0 -37.5 15.5t-17.5 37.5q0 16 18 45q40 62 96.5 104.5t121 64.5t134.5 22q65 0 124.5 -20t105.5 -62.5t73 -112.5t27 -166q0 -124 -42 -232.5t-119 -189.5t-179.5 -125.5t-222.5 -44.5q-173 0 -271 121t-98 303z" />
<glyph unicode="7" horiz-adv-x="827" d="M43 1141q0 67 28 124.5t103 57.5h639q43 0 64.5 -25.5t21.5 -74.5q0 -58 -30 -144.5t-89.5 -190t-142.5 -214.5q-75 -100 -126 -188t-87 -169.5t-66.5 -166t-64.5 -179.5q-11 -30 -47 -30q-18 0 -33.5 13.5t-15.5 31.5q0 9 12 55q29 86 60.5 167.5t78 180.5t97.5 186.5 t106 157.5t113.5 163t93.5 171t35 119q0 35 -29 35h-590q-33 0 -33 -99q0 -51 -43 -51q-22 0 -38.5 18.5t-16.5 51.5z" />
<glyph unicode="8" horiz-adv-x="901" d="M57 137q0 90 28.5 158t87.5 130.5t161 143.5q-83 94 -123.5 146t-73.5 124t-33 144q0 77 53 154.5t164.5 129.5t276.5 52q192 0 272 -41q29 -14 29 -45q0 -20 -14 -37.5t-33 -17.5q-9 0 -23 6q-24 13 -84.5 23t-138.5 10q-171 0 -280 -60t-109 -170q0 -70 42 -138 t157 -218q98 71 127 94q81 60 138 118t96 122.5t65 146.5q11 37 45 37q21 0 38 -16t17 -37q0 -11 -8 -35q-38 -120 -119 -222t-211 -198q-21 -15 -42 -29.5t-39 -27.5t-46 -33q17 -21 37 -47t44.5 -69.5t41 -94.5t16.5 -111q0 -88 -42 -156.5t-112 -106.5t-149 -38 q-114 0 -185 58t-71 151zM162 152q0 -57 42.5 -89t108.5 -32q86 0 143.5 52t57.5 146q0 51 -21 111.5t-94 148.5q-147 -120 -192 -198.5t-45 -138.5z" />
<glyph unicode="9" horiz-adv-x="950" d="M-41 -98q0 34 35 45q155 51 307.5 154t275.5 238.5t198 292.5t75 306q0 126 -63.5 199t-178.5 73q-206 0 -322 -124t-116 -324q0 -129 57.5 -205t167.5 -76q120 0 197 99q16 22 39 22q20 0 36.5 -15.5t16.5 -37.5q0 -15 -18 -41q-42 -59 -115.5 -94t-157.5 -35 q-107 0 -180.5 52.5t-109 139t-35.5 189.5q0 158 66.5 283.5t189.5 197.5t284 72q84 0 149.5 -29t108 -79.5t63.5 -119t21 -151.5q0 -151 -71.5 -317t-195 -316.5t-285.5 -266.5t-339 -177q-41 -13 -49 -13q-22 0 -36.5 17t-14.5 41z" />
<glyph unicode=":" horiz-adv-x="358" d="M10 18q0 44 28.5 81.5t70.5 37.5q12 0 31.5 -8t37.5 -24t30.5 -39t12.5 -50q0 -28 -35 -28q-62 -33 -110 -33q-66 0 -66 63zM133 524q0 43 28.5 80t69.5 37q13 0 32 -8t38 -24t31 -38t12 -49q0 -30 -35 -30q-62 -33 -110 -33q-66 0 -66 65z" />
<glyph unicode=";" horiz-adv-x="369" d="M-2 -168q0 29 29 37q20 7 59.5 69t97.5 154q16 21 37 21q22 0 38.5 -15.5t16.5 -38.5q0 -17 -10 -30q-19 -24 -54 -85t-62 -98.5t-64 -60.5q-16 -10 -37 -10q-19 0 -35 18t-16 39zM137 524q0 43 28.5 80t70.5 37q12 0 31 -8t38 -24t31 -38t12 -49q0 -30 -35 -30 q-62 -33 -110 -33q-66 0 -66 65z" />
<glyph unicode="&#x3c;" horiz-adv-x="768" d="M41 537q0 45 69 98.5t172.5 108t219.5 106.5t188 84q12 6 25 6q22 0 38.5 -17.5t16.5 -37.5q0 -28 -27 -39q-143 -65 -267.5 -122t-225 -114t-100.5 -90q0 -25 40.5 -64.5t102.5 -85.5t132.5 -92.5t158.5 -101.5q22 -14 22 -39q0 -21 -15.5 -38t-37.5 -17q-18 0 -31 10 q-41 34 -155 110t-173.5 121.5t-106 101.5t-46.5 112z" />
<glyph unicode="=" horiz-adv-x="758" d="M92 397q0 21 13.5 36.5t37.5 15.5h494q24 0 37.5 -14.5t13.5 -37.5q0 -22 -13.5 -36.5t-37.5 -14.5h-494q-24 0 -37.5 15.5t-13.5 35.5zM109 657q0 21 13.5 36.5t37.5 15.5h493q25 0 38.5 -15t13.5 -37q0 -21 -13.5 -36t-38.5 -15h-493q-24 0 -37.5 15.5t-13.5 35.5z" />
<glyph unicode="&#x3e;" horiz-adv-x="768" d="M25 137q0 27 26 39q55 26 181 83t204 95t143.5 80.5t65.5 67.5q0 26 -41.5 67t-110 90.5t-131.5 90.5t-151 96q-23 14 -23 39q0 21 16 38t38 17q18 0 30 -12q28 -22 135 -93t175.5 -121.5t120 -111.5t51.5 -117q0 -43 -72 -99.5t-181 -113t-218.5 -105t-178.5 -79.5 q-12 -6 -24 -6q-21 0 -38 18t-17 37z" />
<glyph unicode="?" horiz-adv-x="963" d="M102 18q0 44 28.5 81.5t70.5 37.5q12 0 31.5 -8t37.5 -24t30.5 -39t12.5 -50q0 -28 -34 -28q-63 -33 -111 -33q-66 0 -66 63zM199 1044q0 15 16 46q54 97 152 162t249 65q90 0 153 -23t104.5 -63.5t61 -93.5t19.5 -115q0 -94 -49 -176.5t-141 -128.5 q-119 -57 -189.5 -102.5t-113 -90.5t-67.5 -93t-66 -142q-15 -31 -43 -31q-20 0 -38 15.5t-18 39.5q0 8 13 41q42 105 88.5 174t139 139.5t249.5 145.5q64 30 98.5 87.5t34.5 121.5q0 41 -19.5 85.5t-72.5 75.5t-144 31q-87 0 -145.5 -23.5t-97.5 -65.5t-72 -99 q-21 -35 -47 -35q-21 0 -38 16t-17 37z" />
<glyph unicode="@" horiz-adv-x="1085" d="M106 487q0 132 71 265t202.5 218t300.5 85q117 0 196.5 -43.5t116.5 -115t37 -153.5q0 -99 -45.5 -187t-117 -139.5t-140.5 -51.5q-95 0 -109 73q-98 -76 -167 -76q-66 0 -101 40.5t-35 103.5q0 54 26.5 116.5t77 116t123 87.5t165.5 34q47 0 100 -12q22 -5 22 -29 q0 -14 -7 -24.5t-19 -10.5q-10 0 -29 7q-28 8 -72 8q-69 0 -145.5 -38t-128 -104.5t-51.5 -148.5q0 -37 19.5 -60.5t54.5 -23.5q59 0 117.5 58.5t127.5 150.5q42 49 62 49q15 0 26 -25q-24 -40 -56.5 -88t-45 -68t-12.5 -30q0 -28 13.5 -36.5t41.5 -8.5q59 0 116.5 47.5 t92.5 123.5t35 153q0 68 -31 122.5t-99 87.5t-169 33q-111 0 -229.5 -62.5t-197.5 -177.5t-79 -264q0 -130 91 -215.5t273 -85.5q89 0 224 29h6q14 0 22 -10t8 -23q0 -22 -24 -28q-122 -29 -236 -29q-139 0 -235.5 48.5t-141.5 130.5t-45 181z" />
<glyph unicode="A" horiz-adv-x="993" d="M-41 631q0 21 13 36t38 15q139 0 283 -41q68 123 153 242t178 217t184.5 156.5t172.5 58.5q60 0 97.5 -33t37.5 -102v-2q-5 -67 -51 -180t-94.5 -231t-90.5 -270.5t-59 -330.5q17 -45 17 -176q0 -24 -16.5 -37.5t-41.5 -13.5q-27 0 -49 17.5t-22 47.5q0 58 8 152 q-21 62 -71.5 130.5t-128.5 127.5t-175 100q-140 -267 -211 -528q-9 -37 -45 -37q-21 0 -38 14.5t-17 36.5q0 47 68.5 226t144.5 323q-96 31 -234 31q-51 0 -51 51zM393 606q110 -45 199.5 -116t146.5 -154q33 189 80 319.5t121 302.5t74 222q0 34 -35 34q-43 0 -106 -37 t-143.5 -115t-165 -191.5t-171.5 -264.5z" />
<glyph unicode="B" horiz-adv-x="1044" d="M0 -4q0 11 10 37q81 198 137 326t118.5 258.5t114 238.5t75.5 160q136 297 409 297q58 0 110 -19.5t93 -57t64.5 -91.5t23.5 -121q0 -171 -125 -268.5t-262 -147.5q118 -15 218.5 -85t100.5 -236q0 -107 -35 -180t-164 -121.5t-382 -48.5q-163 0 -254 12q-47 6 -47 47 q0 21 15.5 38t39.5 17q32 0 122 -4t126 -4q130 0 215 10t143 36t88.5 75.5t30.5 130.5q0 69 -27 108t-56.5 52.5t-97 37.5t-99.5 46q-60 38 -60 77q0 50 66 80q108 51 145.5 70t84.5 54t77.5 85t30.5 117q0 65 -27 107.5t-70.5 61.5t-93.5 19q-65 0 -116.5 -18t-98 -69.5 t-94.5 -151.5q-54 -114 -100.5 -209.5t-100 -208.5t-125 -275.5t-125.5 -295.5q-11 -31 -45 -31q-20 0 -36.5 12.5t-16.5 32.5z" />
<glyph unicode="C" horiz-adv-x="973" d="M119 272q0 151 74 333.5t202 348.5t287 268.5t319 102.5q53 0 98.5 -21t70 -57.5t24.5 -81.5q0 -106 -55 -213t-149.5 -192t-209.5 -131q-4 -1 -21.5 -9t-25.5 -8q-21 0 -35 15t-14 35q0 36 43 55q99 38 180.5 104t129.5 148.5t48 163.5q0 45 -22.5 62t-65.5 17 q-151 0 -291 -96t-250.5 -250t-172.5 -315.5t-62 -278.5q0 -241 258 -241q118 0 224 61t229 176q22 23 41 23q21 0 37 -16t16 -37t-37 -56q-69 -66 -150.5 -125t-171 -94t-190.5 -35q-96 0 -177.5 34t-131 111t-49.5 199z" />
<glyph unicode="D" horiz-adv-x="1475" d="M14 39q0 60 55.5 93.5t163.5 33.5q71 0 116 -8.5t151 -34.5q44 40 90.5 88t94 107t86 113t85.5 126q77 113 134.5 226.5t103.5 236.5q-82 95 -202 153t-230 58q-63 0 -86 -20t-23 -62q0 -41 55.5 -93t167.5 -100q47 -19 47 -53q0 -24 -14.5 -40.5t-32.5 -16.5 q-9 0 -39 12q-103 55 -160 93t-97 91.5t-40 124.5q0 73 57 118.5t162 45.5q118 0 245.5 -51t225.5 -152q7 22 13 46q9 36 45 36q21 0 38 -13t17 -30q0 -4 -4 -32q-5 -39 -29 -93q70 -80 140.5 -193.5t120 -240t49.5 -225.5q0 -162 -70.5 -264.5t-190 -148.5t-276.5 -46 q-71 0 -140 12t-165.5 37t-157.5 39q-122 -73 -280 -73q-226 0 -226 100zM162 47q0 -27 84 -27q72 0 131 29q-24 12 -62.5 20.5t-58.5 8.5q-94 0 -94 -31zM623 92q42 -10 120.5 -29.5t133 -28.5t112.5 -9q99 0 179.5 23t135.5 67.5t84 111t29 154.5q0 63 -30.5 155 t-85 192.5t-132.5 199.5q-43 -107 -98 -211t-129 -217q-157 -238 -319 -408z" />
<glyph unicode="E" horiz-adv-x="864" d="M45 227q0 127 70.5 223.5t220.5 174.5q-78 69 -78 188q0 109 81 231t206 202.5t248 80.5q71 0 103 -33.5t32 -101.5q0 -105 -86 -206.5t-180 -156.5q-34 -18 -56 -18q-17 0 -30 13t-13 32q0 29 25 45q32 20 91.5 70t102.5 107t43 104q0 18 -11.5 31.5t-31.5 13.5 q-46 0 -119 -34.5t-142 -92t-115 -133.5t-46 -156q0 -52 46 -106q18 -21 29 -39.5t11 -44.5q0 -23 -16.5 -40t-64.5 -46q-106 -67 -162 -132t-56 -172q0 -84 59 -132t163 -48q86 0 151.5 17.5t115.5 47t90.5 65t94.5 89.5q21 21 39 21q21 0 35 -16.5t14 -38.5q0 -25 -35 -60 q-63 -63 -124 -109.5t-158.5 -82t-222.5 -35.5q-136 0 -230 76.5t-94 201.5z" />
<glyph unicode="F" horiz-adv-x="1075" d="M80 653q0 101 63.5 217.5t181.5 220t272 166t329 62.5q118 0 162.5 -42.5t44.5 -135.5q0 -96 -76.5 -272t-202.5 -384h147q26 0 39 -15t13 -36t-13.5 -36t-38.5 -15h-210q-58 -91 -98.5 -154.5t-84 -131t-78 -121t-43.5 -66.5q-13 -25 -41 -25q-63 0 -63 33q0 15 18 45 q87 113 271 420h-121q-23 0 -37 15.5t-14 35.5t13 35.5t38 15.5h180q139 241 214 398.5t75 242.5q0 46 -22.5 68.5t-79.5 22.5q-162 0 -301 -57.5t-239 -147.5t-153 -185t-53 -168q0 -28 16.5 -45.5t38.5 -17.5q51 0 131.5 50.5t146 129.5t79.5 158q4 22 19 33.5t36 11.5 q47 0 47 -43q0 -82 -80.5 -186t-190 -177t-186.5 -73q-73 0 -111 41t-38 112z" />
<glyph unicode="G" horiz-adv-x="983" d="M49 238q0 121 62.5 306.5t173.5 366.5t258.5 298.5t308.5 117.5q51 0 90 -16.5t65 -46.5t38 -68t12 -82q0 -58 -25 -118t-65 -95q-28 -22 -45 -22q-20 0 -36 16t-16 39q0 19 15 37q71 74 71 153q0 48 -26.5 76.5t-77.5 28.5q-122 0 -247 -103.5t-229 -266t-165 -330.5 t-61 -287q0 -88 36.5 -139.5t108.5 -51.5q75 0 160.5 54.5t158 141t121.5 183.5q31 63 59 121t46.5 82t36.5 24q43 0 43 -55q0 -42 -23 -117q-63 -202 -154 -432.5t-212 -421t-246 -227.5q-11 -4 -31 -4q-23 0 -37 13t-14 32q0 16 10.5 32.5t30.5 22.5q113 36 231 233.5 t217 452.5q-81 -107 -190.5 -172t-206.5 -65q-124 0 -185 77.5t-61 211.5z" />
<glyph unicode="H" horiz-adv-x="1700" d="M-10 106q0 101 69 145t199 68q70 12 188 27t200 24.5t284 32.5q68 102 142 245.5t125.5 290.5t51.5 241q0 24 15 37.5t36 13.5q22 0 37 -13.5t15 -37.5q0 -128 -58 -286t-116 -267t-115 -207q90 12 164 24.5t162 32.5q43 241 113.5 404.5t226.5 416.5q13 25 40 25 q20 0 37 -15t17 -36q0 -15 -17 -43q-93 -151 -149 -262t-86.5 -194t-42.5 -134t-29 -135q108 35 156 53q28 12 41 12q19 0 31 -17t12 -40q0 -32 -31 -43q-99 -40 -229 -74q-35 -232 -35 -377q0 -23 -14.5 -36t-34.5 -13q-21 0 -37.5 14.5t-16.5 39.5q0 111 29 348 q-131 -27 -385 -66q-119 -158 -253.5 -248.5t-255 -123.5t-222.5 -33q-124 0 -194 54t-70 152zM90 106q0 -52 49 -77t123 -25q82 0 161 21t154 60.5t138 89t121 112.5q-241 -25 -387 -42t-222 -34q-73 -14 -105 -35.5t-32 -69.5z" />
<glyph unicode="I" horiz-adv-x="901" d="M10 125q0 22 15 36.5t36 14.5q41 0 52 -51q6 -37 33.5 -53.5t89.5 -16.5q72 0 158 82.5t165.5 208t140.5 252.5q174 365 174 524q0 109 -92 109q-74 0 -147 -65.5t-118.5 -161.5t-45.5 -183q0 -25 -17 -40t-38 -15q-47 0 -47 63q0 93 50 212.5t148 205.5t228 86 q55 0 95.5 -27.5t61.5 -71t21 -89.5q0 -64 -14 -135.5t-39 -146t-54.5 -146t-70.5 -156.5q-65 -134 -129 -238.5t-132.5 -186.5t-145.5 -132.5t-152 -50.5q-102 0 -164 43t-62 129z" />
<glyph unicode="J" horiz-adv-x="768" d="M-25 -500q0 89 54.5 199.5t136 209.5t163 161.5t130.5 62.5q17 0 28 -8q102 255 154 410q49 137 88.5 246.5t66.5 203.5t27 150q0 43 -12.5 64.5t-42.5 21.5q-63 0 -143.5 -143.5t-139.5 -328.5t-59 -286q0 -25 4 -37q2 -8 2 -29q0 -18 -17.5 -32.5t-37.5 -14.5 q-24 0 -36.5 23.5t-12.5 87.5q0 104 38 252.5t103 290t144.5 230.5t162.5 89q146 0 146 -193q0 -62 -20 -144.5t-47 -161.5t-68.5 -193t-47.5 -131q-74 -230 -159 -449t-166 -378t-166 -256t-164 -97q-62 0 -85.5 47t-23.5 133zM70 -514q0 -34 9 -51t30 -17q34 0 129.5 173 t207.5 436q-51 -16 -118 -81t-124.5 -149t-95.5 -169.5t-38 -141.5z" />
<glyph unicode="K" horiz-adv-x="1085" d="M20 0q0 13 9 27q49 82 102 187t107.5 231t107.5 272q-6 -2 -22 -2q-76 0 -76 63q0 37 29 73t63 36q35 0 57 -31q58 158 86.5 248t28.5 141q0 47 47 47q21 0 38 -15.5t17 -39.5q0 -91 -106 -379q50 27 111 70t131 103.5t139 134.5t121 143q17 22 43 22q25 0 40 -14.5 t15 -36.5q0 -13 -18 -35q-96 -121 -200.5 -224.5t-210 -178t-194.5 -105.5q27 -61 57.5 -164t58 -189t58.5 -142q76 -140 174.5 -225t219.5 -136q32 -12 32 -45q0 -20 -13.5 -36.5t-29.5 -16.5q-11 0 -53 12q-73 24 -149 77t-145.5 134.5t-125.5 186.5q-26 51 -49.5 118 t-51 155t-50.5 148q-74 -193 -152.5 -358.5t-150.5 -282.5q-15 -24 -41 -24q-20 0 -37 15t-17 36z" />
<glyph unicode="L" horiz-adv-x="1073" d="M-125 51q0 48 48 88.5t116 40.5q104 0 246 -71q49 43 102 123.5t112 211.5t126 326q37 117 65 207t65.5 172t92 134t127.5 52q92 0 137 -56.5t45 -143.5q0 -104 -51.5 -230.5t-132.5 -214.5q-26 -24 -47 -24q-20 0 -38 17t-18 38q0 24 27 45q46 35 80.5 102.5t53 142.5 t18.5 122q0 53 -15 76.5t-53 23.5q-52 0 -95 -67t-73 -153t-90 -276q-59 -184 -114.5 -310t-112.5 -217.5t-115 -150.5q47 -23 86 -37.5t88 -23t117 -8.5q187 0 319 94q12 10 31 10q23 0 38 -16t15 -37q0 -23 -22 -39q-161 -115 -391 -115q-63 0 -109.5 6t-114.5 29.5 t-145 67.5q-100 -62 -217 -62q-74 0 -117.5 13t-63.5 40t-20 70zM-14 51q0 -16 82 -16q64 0 108 12q-60 29 -113 29q-77 0 -77 -25z" />
<glyph unicode="M" horiz-adv-x="1507" d="M-68 -29q0 24 31 62q133 168 241.5 346.5t233.5 429.5q37 75 52 107.5t48.5 111t54 130t50.5 122.5q20 51 74 51q31 0 52.5 -19.5t21.5 -54.5q0 -32 -14 -95t-19 -91q-119 -675 -129 -960q658 1077 790 1196q30 26 66 26q33 0 54.5 -21t21.5 -57q0 -25 -24.5 -74.5 t-29.5 -62.5q-23 -57 -55.5 -138.5t-58.5 -166t-41 -164t-15 -162.5q0 -139 13.5 -252t43.5 -211t76 -184q19 -31 19 -53q0 -43 -55 -43q-27 0 -48 39q-80 150 -115.5 320.5t-35.5 383.5q0 113 25 227.5t62 215t83 203.5q-52 -68 -125 -179t-182.5 -285.5t-175 -280.5 t-195.5 -314q-19 -32 -36.5 -60t-39.5 -49.5t-49 -21.5q-28 0 -40.5 24t-15.5 67.5t-3 135.5q0 171 39 442t82 451q-72 -170 -136 -299q-58 -121 -118.5 -233.5t-119.5 -208.5t-121 -184.5t-128 -172.5q-32 -41 -61 -41q-16 0 -32 13t-16 34z" />
<glyph unicode="N" horiz-adv-x="1253" d="M-35 -20q0 21 19 45q87 102 178.5 236t187 304.5t167 343.5t108.5 334q8 38 28.5 58t44.5 20q27 0 49.5 -21t30.5 -59q18 -99 37 -250t34.5 -296t28 -308.5t13.5 -265.5q31 99 91.5 305t110.5 359.5t115.5 299.5t132.5 224q23 24 45 24q24 0 38 -14.5t14 -36.5 q0 -23 -27 -51q-65 -71 -128.5 -226t-106 -289.5t-123 -407.5t-105.5 -331q-13 -31 -30.5 -44t-57.5 -13q-30 0 -47.5 25.5t-19.5 58.5q-5 137 -19 322t-36 402t-42 376q-20 -78 -82 -222.5t-146.5 -304.5t-192 -325.5t-220.5 -300.5q-19 -19 -43 -19q-18 0 -32.5 14.5 t-14.5 33.5z" />
<glyph unicode="O" d="M33 324q0 166 71.5 341t203.5 321t319 234.5t405 88.5q24 0 37.5 -15t13.5 -37q0 -20 -14 -35.5t-37 -15.5q-198 0 -365.5 -80.5t-287.5 -213.5t-183 -287t-63 -291q0 -139 65.5 -223t180.5 -84q147 0 277.5 83.5t224.5 212t146 266.5t52 242q0 65 -19 109t-56.5 68 t-94.5 24q-89 0 -178.5 -48.5t-154 -122.5t-84.5 -150q-10 -35 -48 -35q-20 0 -36.5 13.5t-16.5 35.5q0 43 41 114.5t112.5 138.5t166 111t204.5 44q68 0 129 -25.5t101.5 -93t40.5 -183.5q0 -130 -58 -287t-165 -299t-256 -231.5t-324 -89.5q-174 0 -262 110.5t-88 289.5z " />
<glyph unicode="P" horiz-adv-x="758" d="M-10 82q0 59 20.5 144t52 177t77 213.5t71.5 194.5q15 78 24 157.5t9 118.5q0 7 -2 31t-2 37q0 23 16 35t41 12q29 0 38 -27t9 -79q0 -29 -2 -49q62 86 134.5 151t151 101t156.5 36q115 0 175.5 -80.5t60.5 -205.5q0 -199 -106 -334t-251.5 -198.5t-261.5 -63.5 q-59 0 -59 51q0 20 14 36.5t37 16.5q100 0 224.5 56.5t211 163.5t86.5 249q0 88 -36 147.5t-95 59.5q-78 0 -170.5 -62t-172.5 -165.5t-132 -231.5q-32 -187 -77 -399.5t-82 -327.5q-16 -53 -39 -77.5t-54 -24.5q-34 0 -50.5 40.5t-16.5 96.5z" />
<glyph unicode="Q" horiz-adv-x="1229" d="M6 70q0 55 37.5 93t108.5 38q101 0 233 -80q146 69 322.5 194.5t281.5 237.5q213 221 213 434q0 69 -27 120t-80 79t-128 28q-130 0 -230 -75.5t-153.5 -176t-53.5 -167.5q0 -70 -55 -70q-26 0 -36.5 13.5t-10.5 47.5q0 98 64.5 225t190 216.5t296.5 89.5 q75 0 133.5 -21.5t102.5 -64.5t67 -104t23 -142q0 -94 -25 -176t-77 -161t-136 -163q-68 -70 -165 -150t-205 -155t-212 -131q155 -114 304.5 -162.5t269.5 -48.5q78 0 104 6q9 1 29.5 8t30.5 7q21 0 35 -16.5t14 -37.5q0 -69 -215 -69q-331 0 -678 264q-124 -51 -213 -51 q-72 0 -116 34.5t-44 86.5zM115 74q0 -23 51 -23q42 0 96 19q-54 26 -92 26q-55 0 -55 -22z" />
<glyph unicode="R" horiz-adv-x="901" d="M-6 39q0 143 209 584q19 55 39 157.5t31.5 215.5t11.5 192q0 23 14.5 37t36.5 14t36.5 -13.5t14.5 -37.5q0 -37 -4 -107q76 114 175 180t216 66q49 0 95.5 -19.5t79.5 -57.5t53 -93.5t20 -132.5q0 -94 -29.5 -202.5t-96 -209t-184 -171t-282.5 -81.5q145 -114 263 -227.5 t186 -247.5q18 -32 18 -55q0 -19 -14.5 -32t-38.5 -13q-28 0 -47 37q-29 60 -82.5 125t-108.5 117t-117.5 105.5t-113.5 98.5q-70 67 -70 113q0 34 26.5 58t69.5 24q157 0 273 72t178.5 200.5t62.5 292.5q0 104 -30.5 150.5t-118.5 46.5q-69 0 -135 -40t-119 -104 t-99 -155.5t-71 -180.5q-38 -179 -90.5 -369.5t-99 -308.5t-78.5 -118q-46 0 -63 20.5t-17 69.5z" />
<glyph unicode="S" horiz-adv-x="1331" d="M12 141q0 90 65 141.5t158 70t191 18.5q116 0 268 -39q39 -9 39 -49q0 -21 -13.5 -37.5t-31.5 -16.5q-10 0 -84 19q-88 18 -182 18q-134 0 -213.5 -32.5t-79.5 -88.5q0 -58 106 -96.5t334 -38.5q115 0 224 26t196 70.5t139 104t52 123.5q0 80 -35 123t-96 66.5t-189 56.5 q-150 40 -224.5 110t-74.5 180q0 109 84 217.5t231 177t326 68.5q122 0 204.5 -54.5t82.5 -162.5q0 -97 -72 -174t-184.5 -119.5t-226.5 -42.5q-70 0 -70 49q0 54 76 54q91 0 180 32.5t144 84.5t55 104q0 58 -38.5 92.5t-168.5 34.5q-127 0 -245.5 -50.5t-191.5 -135 t-73 -177.5q0 -134 282 -200q150 -35 241 -111t91 -217q0 -139 -107.5 -237.5t-274.5 -146.5t-341 -48q-186 0 -306.5 21.5t-183.5 73t-63 138.5z" />
<glyph unicode="T" horiz-adv-x="909" d="M-31 969q0 46 33 72.5t113 48.5q200 57 825 188q16 30 35.5 52t52.5 22q34 0 62 -19.5t28 -48.5q0 -31 -25 -51.5t-94 -42.5q-43 -60 -67 -111t-49.5 -122t-51 -148.5t-45.5 -128.5q-70 -184 -183 -413t-226 -359q-22 -27 -47 -27q-21 0 -36 16t-15 37q0 20 18 41 q55 62 114.5 159.5t108.5 196t97.5 208t74.5 178.5q16 42 65.5 197.5t98.5 240.5q-156 -30 -344.5 -72t-349.5 -86q-27 -8 -35 -15t-8 -21q0 -20 31 -39t114 -52q33 -11 33 -43q0 -53 -59 -53q-30 0 -97.5 26t-119.5 71t-52 98z" />
<glyph unicode="U" horiz-adv-x="1331" d="M51 733q0 93 65.5 234.5t178 244.5t248.5 103q75 0 123 -33.5t70 -90t22 -126.5q0 -76 -36 -181.5t-130 -285.5q-31 -62 -92.5 -174.5t-88 -180t-26.5 -126.5q0 -82 86 -82q93 0 196.5 85.5t205.5 224.5t192 300q77 208 173 402t171 194q61 0 61 -49q0 -40 -33 -104 t-107.5 -183t-94.5 -155q-80 -176 -126 -319t-46 -251q0 -71 21 -124t53 -72q24 -15 32.5 -29.5t8.5 -36.5q0 -16 -14.5 -31.5t-30.5 -15.5q-24 0 -60 33q-49 43 -80.5 117t-31.5 167q0 58 8 107q-73 -104 -153 -186t-171 -129.5t-190 -47.5q-185 0 -185 181q0 69 29 145.5 t62 137.5t108 192q90 154 136 267.5t46 207.5q0 70 -27.5 109.5t-80.5 39.5q-71 0 -139.5 -48t-121 -122t-87.5 -161.5t-41 -161.5q-1 -22 -16 -33.5t-34 -11.5q-21 0 -37 16t-16 43z" />
<glyph unicode="V" horiz-adv-x="1180" d="M-68 717q0 76 33.5 179t98 202.5t158.5 163t208 63.5q191 0 191 -242q0 -182 -99 -401q-11 -25 -53.5 -112t-83.5 -178.5t-63.5 -162t-22.5 -116.5q0 -42 13.5 -60t47.5 -18q38 0 125.5 66t204 190t236.5 287q73 98 134 200.5t106 198.5t69.5 171.5t24.5 117.5 q0 23 16 37t35 14q20 0 35.5 -14t15.5 -37q0 -86 -45.5 -210.5t-126 -264.5t-182.5 -277q-199 -261 -378.5 -421.5t-307.5 -160.5q-74 0 -105 43.5t-31 122.5q0 54 23.5 128.5t63.5 160.5t79.5 162.5t67.5 138.5q60 136 77 221.5t17 169.5q0 144 -100 144q-72 0 -138.5 -50 t-117 -129t-83 -171t-40.5 -168q-1 -22 -15.5 -34t-31.5 -12q-21 0 -38.5 15.5t-17.5 42.5z" />
<glyph unicode="W" horiz-adv-x="1581" d="M-47 696q0 115 60 263.5t158.5 252t207.5 103.5q235 0 235 -217q0 -89 -33.5 -202.5t-88.5 -238t-116 -243t-126 -238.5q82 77 186.5 187.5t218 241.5t214.5 263.5t175 249.5q32 51 76 51q28 0 46 -18.5t18 -50.5q0 -22 -23 -78q-54 -134 -99 -244t-82 -223t-56 -216 t-19 -214q0 -57 43 -57q29 0 66 28q105 89 218 231t208 307.5t153 331.5t58 300q0 23 16 37t35 14q20 0 35.5 -14t15.5 -37q0 -202 -102.5 -443.5t-258 -455t-313.5 -349.5q-77 -65 -155 -65q-58 0 -95.5 35t-37.5 112q0 125 23.5 248.5t63.5 240t99 255.5 q-109 -147 -251 -311.5t-265.5 -289t-245.5 -233.5q-64 -55 -113 -55q-45 0 -45 45q0 35 35 92q30 48 108.5 195.5t144 289.5t113.5 283t48 232q0 70 -27.5 97.5t-89.5 27.5q-68 0 -147 -89t-134 -213t-55 -210q0 -60 -10.5 -77.5t-38.5 -17.5q-30 0 -40.5 21t-10.5 65z" />
<glyph unicode="X" horiz-adv-x="1188" d="M-10 -2q0 29 30 49q123 88 213 165.5t167 155.5t137 145.5t149 166.5q1 101 1.5 188t0.5 179q0 95 -13 139.5t-50 44.5q-86 0 -154 -55.5t-131 -147.5q-27 -37 -55 -37q-21 0 -35 13t-14 32q0 15 6 26.5t16 27.5q45 64 94 117t119.5 89.5t159.5 36.5q94 0 127 -74 t33 -208q0 -58 -4.5 -138.5t-4.5 -121.5q12 15 104 136t152 188.5t129.5 118.5t153.5 81q27 10 45 10t31.5 -16.5t13.5 -38.5q0 -34 -35 -45q-88 -29 -158.5 -84t-127.5 -124t-148.5 -188.5t-148.5 -181.5q3 -68 26 -168.5t67 -213t106 -214t143 -174.5q26 -24 26 -49 q0 -19 -16.5 -33t-38.5 -14q-23 0 -49 26q-140 125 -232.5 323.5t-124.5 416.5q-75 -85 -153 -170t-136 -142t-138 -123t-189 -143q-28 -20 -49 -20q-18 0 -31.5 13.5t-13.5 35.5z" />
<glyph unicode="Y" d="M-254 -608q0 25 17 39t75 14q212 0 378.5 87.5t284 229.5t212.5 332q69 142 159 309q-92 -94 -148.5 -149.5t-146 -128.5t-176 -117.5t-161.5 -44.5q-61 0 -95 40.5t-34 109.5q0 73 36 159q32 73 117 232t137.5 260.5t95 206t42.5 170.5q0 73 -70 73q-65 0 -125.5 -46 t-108 -118t-74 -151t-26.5 -139q0 -6 2 -22t2 -31q0 -20 -15.5 -34t-35.5 -14q-29 0 -42 20.5t-13 76.5q0 86 31 183.5t90 186t138.5 140t172.5 51.5q199 0 199 -162q0 -87 -50 -209t-140.5 -282t-150.5 -266t-81 -162q-19 -51 -19 -84q0 -64 56 -64q52 0 145.5 59.5 t206 159.5t224 223.5t185.5 235.5q25 48 64 144.5t63.5 136.5t57.5 40q61 0 61 -55q0 -40 -14 -78.5t-45 -97.5q-69 -130 -150.5 -281.5t-153 -289t-120.5 -236.5q-153 -308 -386.5 -507t-576.5 -199q-55 0 -74.5 8.5t-19.5 40.5z" />
<glyph unicode="Z" horiz-adv-x="928" d="M-72 -258q0 104 56 230.5t145 211t180 84.5q31 0 45.5 -15.5t14.5 -37.5q0 -19 -11 -34t-32 -15q-60 0 -114 -40.5t-97 -108.5t-66.5 -143.5t-23.5 -135.5q0 -131 114 -131q125 0 264 127t232.5 305t93.5 319q0 123 -74 177.5t-174 68.5q-94 14 -94 55q0 60 119 107 q187 74 283 160t96 174q0 62 -35 94.5t-94 32.5q-103 0 -194 -38.5t-157 -99t-96 -124.5q-19 -39 -59 -39q-20 0 -32.5 15t-12.5 38q0 25 38 82.5t111 120.5t173 105t225 42q111 0 172 -62t61 -159q0 -129 -103.5 -235t-332.5 -191q100 0 191 -79t91 -241q0 -111 -54.5 -256 t-151.5 -281.5t-224.5 -223t-263.5 -86.5q-101 0 -155 58t-54 169z" />
<glyph unicode="[" horiz-adv-x="471" d="M-10 -80q0 162 22.5 357.5t55.5 370.5t61 296t84 344q12 53 48.5 67.5t88.5 14.5q111 0 139 -14q37 -21 37 -62q0 -19 -9 -33t-25 -14q-9 0 -21 6q-19 13 -127 13q-33 0 -41 -29q-34 -133 -65 -267t-66 -317t-55.5 -357t-20.5 -308q0 -21 13.5 -28t46.5 -7q56 0 75 14 q30 0 49 -20t19 -43q0 -32 -41 -41q-74 -17 -147 -17q-56 0 -88.5 20t-32.5 54z" />
<glyph unicode="\" horiz-adv-x="737" d="M59 1272q0 21 18 36t38 15q25 0 41 -27q78 -146 143 -288t128.5 -295.5t138 -345.5t143.5 -373q16 -46 16 -55q0 -23 -17 -37.5t-38 -14.5q-32 0 -43 33q-109 286 -165.5 431t-120 299.5t-131 302t-128.5 261.5q-23 45 -23 58z" />
<glyph unicode="]" horiz-adv-x="471" d="M-14 -78q0 47 34 47q9 0 21 -6q20 -12 127 -12q33 0 41 29q86 340 146.5 661t60.5 588q0 21 -13 28t-47 7q-57 0 -75 -15q-28 0 -48 21t-20 43q0 32 41 41q70 16 147 16q54 0 87.5 -20.5t33.5 -53.5q0 -163 -22 -355.5t-54 -363t-70 -335.5t-77 -314q-12 -51 -48.5 -66.5 t-88.5 -15.5q-111 0 -139 15q-37 16 -37 61z" />
<glyph unicode="^" horiz-adv-x="707" d="M61 692q0 18 9 33q16 26 59 100.5t92 147t98.5 125.5t88.5 61q73 -10 140 -143t107 -262q4 -18 4 -23q0 -27 -16 -45t-37 -18t-37 26q-21 41 -59.5 139t-64 150.5t-42.5 52.5q-14 0 -43 -41.5t-67 -106t-75.5 -128t-65.5 -98.5q-18 -21 -39 -21q-19 0 -35.5 14.5 t-16.5 36.5z" />
<glyph unicode="_" horiz-adv-x="635" d="M-33 -82q0 13 8.5 24t24.5 11h659q16 0 24.5 -10t8.5 -25q0 -14 -8.5 -25.5t-24.5 -11.5h-659q-16 0 -24.5 12.5t-8.5 24.5z" />
<glyph unicode="`" horiz-adv-x="430" d="M49 1087q0 22 15 40t36 18q11 0 29 -6q39 -19 73.5 -43t81 -62t81.5 -63q22 -18 22 -45q0 -54 -45 -54q-18 0 -39 15q-43 31 -86.5 66t-72.5 55.5t-64 35.5q-31 13 -31 43z" />
<glyph unicode="a" horiz-adv-x="840" d="M-49 139q0 98 40.5 203.5t125 197t223.5 148.5t324 57q32 0 47.5 -15t15.5 -38q0 -51 -74 -51q-172 0 -293 -57t-187.5 -140t-95 -167t-28.5 -142q0 -46 22 -72t58 -26q62 0 138 71.5t145.5 172t115.5 186.5q28 48 38.5 59t35.5 11q45 0 45 -48q0 -34 -31 -94 q-3 -7 -49 -87t-75 -139t-29 -87q0 -33 20 -33q43 0 146.5 77t165.5 144q20 21 49 21q20 0 32.5 -15.5t12.5 -37.5t-23 -48q-90 -96 -201 -170.5t-208 -74.5q-39 0 -68 30.5t-29 69.5q-122 -111 -241 -111q-168 0 -168 205z" />
<glyph unicode="b" horiz-adv-x="768" d="M-51 242q0 21 28 45q49 45 138 168q178 891 387 891q39 0 61.5 -39.5t22.5 -89.5q0 -82 -38 -182t-93 -214q-44 -89 -95 -176t-90 -145t-61 -92q-35 -154 -35 -242q0 -123 72 -123q121 0 219 186q-92 103 -92 254q0 115 48.5 183.5t123.5 68.5q57 0 95 -37t38 -120 q0 -65 -20.5 -154.5t-53.5 -171.5q23 -16 51 -16q45 0 70 32q17 21 43 21q21 0 36 -14t15 -35q0 -19 -14 -35q-60 -72 -150 -72q-52 0 -98 25q-54 -91 -126.5 -154t-201.5 -63q-86 0 -124.5 56t-38.5 155q0 41 6 88q-43 -52 -72 -52q-22 0 -36.5 16.5t-14.5 37.5zM283 698 q82 152 144 298t62 180q0 45 -22 45q-26 0 -95.5 -213t-88.5 -310zM471 492q0 -92 43 -154q29 72 43 138.5t14 105.5q0 18 -9 32.5t-23 14.5q-25 0 -46.5 -31t-21.5 -106z" />
<glyph unicode="c" horiz-adv-x="666" d="M-41 219q0 79 37 169.5t98 167t137 124t152 47.5q82 0 136 -48t54 -116q0 -88 -57 -88q-51 0 -51 35q0 11 4 27t4 20q0 24 -22.5 46t-61.5 22q-64 0 -142.5 -62.5t-132 -158t-53.5 -189.5q0 -77 44.5 -125.5t119.5 -48.5q113 0 203.5 61t185.5 158q31 31 52 31 q19 0 35 -17t16 -36t-21 -41q-70 -70 -98.5 -97.5t-89.5 -69t-131 -66.5t-152 -25q-127 0 -196.5 76.5t-69.5 203.5z" />
<glyph unicode="d" horiz-adv-x="870" d="M-59 172q0 93 33.5 187t96.5 171t157 122.5t208 45.5q88 0 156 -45q2 6 57.5 161t104 258.5t112.5 174t142 70.5q75 0 75 -119q0 -59 -17.5 -130t-51.5 -142q-33 -72 -96 -175t-106.5 -165.5t-123.5 -172t-108 -147.5q-45 -133 -45 -190q0 -27 12 -27q36 0 134.5 80 t152.5 143q15 19 36 19t37.5 -16.5t16.5 -36.5q0 -17 -13 -31q-84 -91 -195 -175.5t-194 -84.5q-47 0 -68.5 33t-21.5 110q-151 -151 -295 -151q-99 0 -147.5 64.5t-48.5 168.5zM45 190q0 -64 25 -106.5t67 -42.5q74 0 171 82.5t161 167.5q30 108 86 262q-50 43 -119 43 q-73 0 -142.5 -29.5t-127 -87t-89.5 -130.5t-32 -159zM690 598q164 229 230 373q71 134 71 213q0 35 -20 35q-33 0 -82 -98.5t-92.5 -217t-106.5 -305.5z" />
<glyph unicode="e" horiz-adv-x="625" d="M-51 219q0 123 56.5 237t144.5 183.5t174 69.5q54 0 89.5 -32.5t35.5 -88.5q0 -59 -36 -110t-91.5 -91.5t-99 -63t-163.5 -79.5q-4 -26 -4 -31q0 -79 32.5 -128.5t94.5 -49.5q85 0 158.5 38t121 82t113.5 113q23 23 48 23q18 0 32.5 -16.5t14.5 -36.5q0 -18 -29 -52 q-24 -23 -71.5 -69t-106 -87.5t-131.5 -68.5t-152 -27q-107 0 -169 75t-62 210zM78 362q63 27 126 65t101.5 77.5t38.5 73.5q0 18 -8 23t-27 5q-48 0 -119.5 -66t-111.5 -178z" />
<glyph unicode="f" horiz-adv-x="420" d="M-215 -547q0 63 24.5 148.5t66 194t80.5 201t91 218.5q-27 -27 -45 -27q-23 0 -37 16.5t-14 37.5q0 17 12 32q41 43 104.5 117t129.5 158q71 225 131 380t142.5 273.5t168.5 118.5q31 0 48.5 -28.5t17.5 -67.5q0 -38 -16 -92.5t-62.5 -142t-126.5 -205.5t-211 -285 q-121 -249 -160 -353q-19 -53 -66.5 -167t-90 -219t-65 -181t-22.5 -129q0 -84 54 -84q52 0 102.5 57t50.5 134q0 39 -17.5 148.5t-17.5 158.5q0 71 21.5 125t73.5 92q30 24 57.5 45t65.5 51t59.5 48.5t48.5 47.5q13 17 35 17q21 0 37 -15t16 -36t-14 -35 q-57 -61 -125.5 -118t-124.5 -91q-53 -32 -53 -121q0 -39 16 -145t16 -166q0 -126 -71.5 -214.5t-173.5 -88.5q-68 0 -112 49.5t-44 142.5zM393 809q221 302 221 403q0 17 -8 17q-13 0 -88.5 -143.5t-124.5 -276.5z" />
<glyph unicode="g" horiz-adv-x="770" d="M-92 -586q0 80 68 188t158 207t145 146q18 42 45 100q-52 -56 -98 -84t-103 -28q-83 0 -127.5 66.5t-44.5 164.5q0 129 51 229.5t139.5 164.5t204.5 96t248 32q24 0 36.5 -14t12.5 -35q0 -29 -19 -41t-67 -12q-117 0 -234 -42t-194.5 -134.5t-77.5 -235.5 q0 -63 25.5 -101t64.5 -38q49 0 113 73t124 173t140 248q13 24 45 24q22 0 36.5 -14t14.5 -39q0 -13 -8 -37q-48 -136 -178 -430q82 41 161.5 103t145.5 130q15 17 35 17t36.5 -16.5t16.5 -36.5q0 -19 -14 -33q-68 -71 -127 -120t-113.5 -82.5t-112 -63t-94.5 -48.5 q-27 -72 -77 -204t-90.5 -215t-87 -133t-95.5 -50q-60 0 -82 33.5t-22 91.5zM0 -600q0 -25 8 -25q4 0 10 7q31 31 66.5 97.5t66.5 140t48 128.5q-27 -33 -61 -77t-64 -90.5t-52 -95.5t-22 -85z" />
<glyph unicode="h" horiz-adv-x="1024" d="M-45 244q0 22 22 45q52 55 105.5 111.5t97 104t100 110t117.5 133.5q20 62 58 180t78 205t87.5 139.5t104.5 52.5q98 0 98 -131q0 -51 -34 -122.5t-112.5 -170t-193.5 -215.5q-35 -92 -98 -231q95 107 208 183.5t202 76.5q29 0 50.5 -13t31.5 -34.5t10 -49.5 q0 -67 -41 -147q-38 -70 -60 -110t-47 -86.5t-43 -86.5q-26 -59 -26 -100q0 -43 28 -43q27 0 123.5 76.5t173.5 154.5q14 17 39 17q16 0 30.5 -16.5t14.5 -36.5q0 -19 -14 -33q-88 -97 -198.5 -178.5t-178.5 -81.5q-63 0 -94 34.5t-31 94.5q0 59 29.5 130t84.5 169t79 145 t24 68q0 26 -24 26q-37 0 -121 -59t-173.5 -142.5t-139.5 -152.5q-22 -48 -54 -122.5t-45 -100.5q-30 -64 -71 -64q-60 0 -60 47q0 26 30 102t70 164t82 179q-34 -38 -67.5 -76.5t-72 -80.5t-95.5 -101q-17 -17 -35 -17q-21 0 -35 15.5t-14 38.5zM535 866q96 111 144 202.5 t48 131.5q0 35 -12 35q-9 0 -19 -10q-32 -32 -84.5 -154t-76.5 -205z" />
<glyph unicode="i" horiz-adv-x="459" d="M-57 236q0 26 22 43q37 25 79 83.5t93 143t68 108.5q35 52 71 52q17 0 33.5 -14.5t16.5 -37.5q0 -13 -17 -49q-60 -114 -101.5 -200t-80.5 -185q-31 -84 -31 -104q0 -27 25 -27q33 0 139.5 80.5t161.5 144.5q15 19 37 19q21 0 36 -16t15 -37t-14 -35q-46 -48 -111 -106 t-141.5 -103t-139.5 -45q-57 0 -83.5 27t-26.5 79q0 74 29 140q-32 -9 -33 -9q-18 0 -32.5 15.5t-14.5 32.5zM295 950q0 40 25.5 74.5t62.5 34.5q24 0 50 -16t43.5 -41t17.5 -50q0 -27 -40.5 -51t-88.5 -24q-70 0 -70 73z" />
<glyph unicode="j" horiz-adv-x="459" d="M-305 -532q0 47 21.5 114t64 138t110.5 143.5t156 130.5q22 67 46 132t50 133t43 116q-122 -132 -143 -160q-18 -22 -43 -22q-21 0 -36 16t-15 35q0 18 31 49q50 53 125.5 145t134.5 170q48 68 102 68q51 0 51 -51q0 -34 -20 -78q-94 -206 -191 -471q60 37 128 94.5 t108 101.5q18 19 37 19q20 0 36.5 -14.5t16.5 -36.5q0 -18 -12 -33q-122 -146 -367 -275q-8 -24 -48 -145.5t-56 -169t-43 -119.5q-33 -91 -83.5 -138.5t-115.5 -47.5q-39 0 -63.5 41.5t-24.5 114.5zM-190 -532q0 -25 10 -25q19 0 46 57.5t57 142.5t61 173 q-85 -82 -129.5 -181.5t-44.5 -166.5zM379 1014q0 36 25.5 67t58.5 31q31 0 64.5 -31.5t33.5 -68.5q0 -26 -30 -46t-76 -20q-76 0 -76 68z" />
<glyph unicode="k" horiz-adv-x="942" d="M-51 242q0 20 14 34q118 120 365 410q100 261 148.5 377t104 193t115.5 77q84 0 84 -108q0 -84 -92 -232t-233 -313q110 94 211 94q94 0 133 -40.5t39 -102.5q0 -94 -67.5 -178.5t-166 -143t-186.5 -78.5q9 -79 50 -130.5t99 -51.5q49 0 116 38t126.5 89t91.5 90 q16 21 41 21q22 0 38.5 -12.5t16.5 -34.5q0 -19 -14 -33q-45 -49 -110.5 -109t-147.5 -105.5t-158 -45.5q-111 0 -181.5 87.5t-70.5 194.5q0 30 18 54t44 34q174 65 261 142t87 155q0 27 -9.5 41.5t-41.5 14.5q-135 0 -297 -193q-27 -43 -59.5 -114.5t-71 -167.5t-66.5 -158 q-18 -41 -30 -51.5t-50 -10.5q-47 0 -47 37q0 27 36.5 122t98.5 235q-23 -25 -84 -92.5t-67 -73.5q-15 -15 -35 -15t-36.5 17.5t-16.5 36.5zM539 924q63 90 109 183t46 116q0 12 -8 12q-9 0 -14 -10q-18 -28 -58.5 -117.5t-74.5 -183.5z" />
<glyph unicode="l" horiz-adv-x="467" d="M-51 242q0 21 16 34q32 32 148 162q74 211 125 346t114.5 261.5t132.5 201t142 74.5q65 0 65 -117q0 -142 -126.5 -350t-366.5 -461q-76 -247 -76 -309q0 -28 10 -33h4q29 0 130 77.5t163 145.5q13 17 33 17q21 0 38 -16t17 -37q0 -19 -14 -33q-111 -113 -202 -184.5 t-169 -71.5q-110 0 -110 129q0 60 18 131l-2.5 -2.5l-3.5 -3.5q-15 -15 -33 -15q-23 0 -38 16t-15 38zM303 674q113 141 204 288t91 257q-45 -28 -135 -196.5t-160 -348.5z" />
<glyph unicode="m" horiz-adv-x="1430" d="M-51 242q0 18 14 32q135 142 190.5 205.5t94.5 138.5q10 22 20.5 27.5t32.5 5.5t31.5 -5.5t9.5 -27.5q0 -35 -45 -229q61 70 146.5 137.5t158.5 107.5t105 40q84 0 84 -109q0 -73 -54 -217q66 76 147 149.5t163.5 125t140.5 51.5q45 0 67.5 -22.5t22.5 -63.5 q0 -48 -27 -119q-15 -50 -36.5 -98t-60.5 -130.5t-55 -117t-16 -47.5q0 -23 23 -23q35 0 129 75.5t158 145.5q13 17 34 17q22 0 38 -15t16 -36t-15 -35q-105 -114 -197.5 -185t-193.5 -71q-50 0 -78 30t-28 80q0 73 49 164q42 78 85 173t66 167q-169 -76 -304 -229 t-275 -361q-76 3 -76 50q0 16 12 45q46 108 81 202.5t61 179t26 115.5q-186 -101 -311.5 -232.5t-251.5 -355.5q-78 0 -78 60q0 18 10 55q13 42 45 119t48 123q-48 -61 -119 -129q-17 -17 -35 -17q-20 0 -36.5 17.5t-16.5 36.5z" />
<glyph unicode="n" horiz-adv-x="942" d="M-51 238q0 22 14 36q135 142 190.5 205.5t94.5 138.5q10 22 20.5 27.5t32.5 5.5t31.5 -5.5t9.5 -27.5q0 -35 -45 -229q61 70 146.5 137.5t158.5 107.5t105 40q84 0 84 -109q0 -62 -56.5 -224t-118.5 -292q37 0 144 85.5t147 137.5q16 19 33 19q21 0 35 -16t14 -37 q0 -25 -20 -45q-237 -244 -367 -244q-40 0 -64 17t-24 48q0 25 12 54q59 137 111.5 294.5t52.5 208.5q-129 -71 -224.5 -150.5t-177 -188t-157.5 -255.5q-78 0 -78 60q0 12 21 78q60 146 82 219q-48 -61 -119 -129q-17 -17 -35 -17q-21 0 -37 15t-16 35z" />
<glyph unicode="o" horiz-adv-x="754" d="M-47 217q0 100 48.5 214t146.5 191.5t233 77.5q69 0 131 -20q35 -11 35 -45q0 -26 -17 -41q26 0 62.5 -13t64 -49t27.5 -102q0 -36 -16.5 -93.5t-38.5 -88.5h8q54 0 74 18q16 23 43 23q20 0 36.5 -14t16.5 -33q0 -12 -10 -29q-24 -32 -66.5 -51t-93.5 -19q-34 0 -70 11 q-150 -215 -358 -215q-126 0 -191 79t-65 199zM55 223q0 -79 42 -130.5t112 -51.5q140 0 264 160q-44 33 -82.5 90t-38.5 123q0 57 33.5 106.5t83.5 65.5q-40 12 -90 12q-76 0 -136 -34.5t-102.5 -91.5t-64 -122t-21.5 -127zM455 424q0 -32 18 -72t57 -69q52 77 52 147 q0 33 -11 46t-47 13q-32 0 -50.5 -17.5t-18.5 -47.5z" />
<glyph unicode="p" horiz-adv-x="979" d="M-145 -580q0 16 12 60q44 134 75 227.5t60 178.5t74.5 214.5t81.5 231.5q-31 -34 -61.5 -64.5t-59.5 -62.5q-14 -17 -35 -17q-23 0 -38 16t-15 36t14 34q61 64 115 120.5t101.5 123t92.5 156.5q9 2 29 2q43 0 43 -14q0 -57 -6 -89q132 113 278 113q113 0 180.5 -73.5 t67.5 -194.5q0 -92 -52.5 -184.5t-123.5 -161.5q74 41 133.5 88.5t106.5 97.5q27 33 49 33q23 0 38 -15t15 -36t-33 -56q-50 -55 -126 -112t-159 -94t-151 -37q-29 0 -53 6q-39 -19 -98 -19q-76 0 -129.5 22t-53.5 62q0 36 26.5 66.5t59.5 30.5q19 0 64 -31t63 -37 q51 8 129.5 64t135.5 140t57 175q0 164 -150 164q-89 0 -177.5 -66t-151.5 -172q-54 -140 -83 -225.5t-80 -246.5t-89.5 -282t-55.5 -172q-6 -21 -22 -26.5t-43 -5.5q-21 0 -38 8.5t-17 23.5z" />
<glyph unicode="q" horiz-adv-x="819" d="M-68 127q0 85 39.5 182t125.5 185t220.5 142t315.5 54q51 0 51 -51t-51 -51q-163 0 -278.5 -45.5t-185.5 -117t-101 -151t-31 -147.5q0 -39 24 -61.5t64 -22.5q68 0 127.5 49.5t107 120t97.5 160.5q39 66 60 91t42 25q45 0 45 -59q-29 -66 -57 -124.5t-47.5 -97 t-28.5 -61.5q-32 -51 -92 -167t-117 -235.5t-82 -188.5q-12 -38 -12 -52q0 -12 22 -12q12 0 21 6q60 36 95 94t49 124.5t14 131.5q0 72 18 120.5t80 68.5q51 18 160.5 100t154.5 137q19 19 37 19q22 0 37.5 -14.5t15.5 -36.5q0 -18 -12 -33q-31 -37 -76 -77.5t-104.5 -85.5 t-114.5 -75.5t-100 -42.5q-10 -3 -10 -12q0 -8 1.5 -32.5t2 -27.5t0.5 -34q0 -117 -43 -220t-111.5 -163t-138.5 -60q-88 0 -88 117q0 43 12 88q18 62 51 133t85.5 166.5t76.5 139.5q-110 -80 -205 -80q-81 0 -123.5 48.5t-42.5 135.5z" />
<glyph unicode="r" horiz-adv-x="696" d="M-53 244q0 21 18 35q38 29 137 147t142 195q-39 30 -39 65q0 31 23 51.5t55 20.5q69 0 82 -82q58 -22 120 -31q40 -5 61 -16.5t21 -53.5q0 -31 -30.5 -97t-74 -149.5t-91.5 -176.5q-29 -59 -29 -84q0 -17 25 -17q20 0 76.5 39t118 92t93.5 90q14 17 37 17q22 0 40 -15.5 t18 -35.5q0 -15 -13 -31q-29 -34 -105.5 -98.5t-154.5 -112t-123 -47.5q-116 0 -116 114q0 58 34 119q181 326 193 369q-41 0 -137 37q-44 -95 -136.5 -210t-156.5 -177q-14 -15 -33 -15q-22 0 -38.5 18.5t-16.5 39.5z" />
<glyph unicode="s" horiz-adv-x="664" d="M-51 240q0 20 14 34q74 78 125.5 133t94 103t67.5 86q-8 11 -16 23t-13.5 24.5t-5.5 28.5q0 33 22.5 51t61.5 18q31 0 52.5 -18.5t21.5 -54.5q0 -29 -13 -64q43 -91 64.5 -190t21.5 -191q0 -61 -8 -102q100 60 189 153q15 17 35 17q21 0 37 -16t16 -37q0 -19 -15 -33 q-57 -66 -136.5 -126.5t-182 -101t-215.5 -40.5q-80 0 -156 20q-23 6 -34 18.5t-11 36.5q0 26 17 42t45 16q24 0 96.5 -12t109.5 -13q52 0 89 23q18 45 18 153q0 143 -41 271q-40 -52 -131.5 -149t-130.5 -138q-17 -17 -37 -17t-35.5 16.5t-15.5 35.5z" />
<glyph unicode="t" horiz-adv-x="604" d="M-51 248q0 20 16 37q81 78 133 149t131 211q23 44 80 164q-31 0 -90 4t-82 4t-34 13.5t-11 31.5q0 22 16 40t42 18q37 0 104 -4.5t111 -4.5q11 24 29 64t35.5 75l26.5 53l25 50q30 55 64 55q55 0 55 -43q0 -11 -10 -43q-23 -59 -101 -207q34 0 84.5 8.5t75.5 8.5 q26 0 42 -17.5t16 -40.5q0 -17 -12 -30.5t-33 -16.5q-128 -16 -234 -16q-57 -107 -104.5 -207t-87 -197.5t-64.5 -173.5q-20 -61 -20 -106q0 -84 92 -84q34 0 101.5 45t131 100t88.5 84q19 19 39 19t36.5 -14.5t16.5 -36.5q0 -19 -14 -33q-48 -53 -121.5 -115.5t-153 -106.5 t-147.5 -44q-180 0 -180 159q0 59 22 138q-4 -4 -11 -10.5t-17 -16.5q-14 -14 -35 -14q-19 0 -35 16t-16 35z" />
<glyph unicode="u" horiz-adv-x="1014" d="M-55 244q0 20 20 39q70 61 176 184.5t144 187.5q5 9 18 9q17 0 32 -11t15 -26q0 -5 -4 -13q-22 -43 -64 -130.5t-71 -152t-53 -124.5q-35 -84 -35 -127q0 -33 22 -33q130 0 290 157.5t317 424.5q8 16 30 16q21 0 37.5 -12.5t16.5 -30.5q0 -10 -5 -16q-41 -75 -77 -141 t-64 -122.5t-49 -113.5q-20 -58 -20 -103q0 -69 49 -69q35 0 98.5 45.5t124 103t84.5 90.5q16 23 37 23q17 0 29 -13t12 -32q0 -18 -13 -35q-26 -37 -72.5 -84t-99.5 -88t-115 -69.5t-116 -28.5q-55 0 -84 37t-29 102q0 50 23 121q-68 -74 -123.5 -120.5t-110.5 -77 t-102.5 -43.5t-89.5 -13q-90 0 -90 102q0 91 65 222q-30 -32 -73 -68q-16 -12 -33 -12q-19 0 -33 13t-14 32z" />
<glyph unicode="v" horiz-adv-x="881" d="M-57 236q0 20 26 45q49 43 108.5 128.5t88.5 157.5q37 86 67 86q25 0 42.5 -11t17.5 -32q0 -14 -5.5 -26t-14.5 -26.5t-13 -22.5q-29 -64 -50 -135.5t-31.5 -136.5t-10.5 -126q0 -96 22 -96q47 0 161.5 121t226.5 295q32 211 112 211q64 0 64 -66q0 -68 -84 -184 q-23 -57 -23 -113q0 -49 29 -73.5t72 -24.5q58 0 102 61q17 21 39 21q17 0 31 -14t14 -33q0 -18 -12 -33q-68 -90 -185 -90q-78 0 -124 45t-46 123q-69 -91 -147.5 -171.5t-146.5 -128.5t-109 -48q-37 0 -61.5 66.5t-24.5 156.5q0 63 16 129q-39 -58 -69 -84 q-17 -12 -39 -12q-17 0 -30 11t-13 30z" />
<glyph unicode="w" horiz-adv-x="1319" d="M-55 244q0 20 20 39q44 37 107.5 110.5t117 143.5t78.5 110q9 17 35 17q17 0 31 -10t14 -25q0 -11 -6 -23q-103 -201 -184 -399q-35 -84 -35 -127q0 -33 22 -33q83 0 158 68t135.5 161.5t214.5 352.5q8 16 31 16q21 0 37 -13t16 -30q0 -10 -4 -16q-27 -51 -71 -130.5 t-72 -137t-47 -109.5q-21 -57 -21 -103q0 -69 49 -69q35 0 111.5 56.5t166 154t161.5 209.5q32 211 112 211q64 0 64 -66q0 -68 -84 -184q-23 -57 -23 -113q0 -49 29 -73.5t72 -24.5q58 0 102 61q17 21 39 21q17 0 31 -14t14 -33q0 -18 -12 -33q-67 -90 -185 -90 q-78 0 -124 45t-46 123q-63 -83 -155.5 -163t-175.5 -127.5t-127 -47.5q-48 0 -79.5 34t-31.5 85q0 24 10 59q-77 -91 -153 -131.5t-164 -40.5q-90 0 -90 102q0 91 65 222q-30 -32 -73 -68q-16 -12 -33 -12q-19 0 -33 13t-14 32z" />
<glyph unicode="x" horiz-adv-x="983" d="M-45 240q0 23 16 36q50 50 159 171t175.5 178t116.5 57q48 0 86.5 -81t58.5 -220q53 53 110 116.5t144 166.5q15 18 37 18q21 0 37 -16t16 -37q0 -16 -12 -31q-84 -105 -159.5 -187t-149.5 -153q24 -113 39.5 -161t32.5 -48q15 0 76 43.5t122.5 97t83.5 82.5q15 19 37 19 t38.5 -15t16.5 -36q0 -19 -14 -33q-87 -95 -193 -177.5t-198 -82.5q-78 0 -129 229q-48 -42 -71.5 -61.5t-69.5 -56.5t-74 -59.5t-62 -49.5q-15 -12 -30 -12q-20 0 -36 17.5t-16 37.5q0 22 21 39q78 63 168 136.5t147 125.5q-28 157 -41.5 221t-31.5 64q-14 0 -61 -47 t-145.5 -155t-162.5 -173q-15 -15 -33 -15t-33.5 16.5t-15.5 35.5z" />
<glyph unicode="y" horiz-adv-x="942" d="M-51 242q0 18 14 32q94 98 162.5 173t120.5 147q11 14 22 28.5t20 22.5t17 8q22 0 36.5 -14t14.5 -39q0 -19 -12 -43q-36 -74 -70.5 -157t-55.5 -151.5t-21 -109.5q0 -43 24 -43q12 0 23 8q85 40 169.5 105.5t172 169.5t164.5 248q5 10 24 10q20 0 40 -13t20 -28 q0 -23 -8.5 -44.5t-34.5 -80.5q-20 -43 -43 -95.5t-42.5 -98t-51.5 -116t-54 -114.5q77 35 160.5 94.5t142.5 130.5q18 19 37 19q22 0 37.5 -14.5t15.5 -36.5q0 -18 -12 -33q-82 -100 -190.5 -170t-266.5 -156q-176 -381 -237 -504q-16 -32 -56 -55.5t-73 -23.5 q-57 0 -83 41.5t-26 105.5q0 77 21.5 142.5t65.5 121t115.5 114.5t188.5 136q20 41 52.5 115.5t48.5 109.5l2 4q-134 -122 -279 -186q-42 -18 -74 -18q-47 0 -72.5 38.5t-25.5 104.5q0 83 37 170l-46 -46l-46 -46q-15 -15 -35 -15q-21 0 -37 17t-16 35zM147 -522 q0 -58 23 -58q19 0 53 70q19 35 64 129.5t69 151.5q-113 -89 -161 -164.5t-48 -128.5z" />
<glyph unicode="z" horiz-adv-x="827" d="M-51 244q0 18 14 32q29 29 119 125t162.5 157t154.5 97.5t176 36.5q73 0 113.5 -41.5t40.5 -115.5q0 -95 -53 -197.5t-132 -185.5t-153 -127q5 -15 15 -58q29 23 90.5 69t125.5 93t102 79.5t67 65.5q15 19 36 19t37.5 -16.5t16.5 -36.5q0 -17 -13 -31 q-44 -51 -115.5 -108t-173 -133t-167.5 -134q-6 -161 -44 -272.5t-94.5 -167.5t-115.5 -56q-40 0 -65 30t-25 83q0 62 29.5 136t85 151.5t130.5 146.5q-3 55 -16 99q-23 -8 -53.5 -14.5t-50.5 -6.5q-44 0 -68.5 29.5t-24.5 68.5q0 45 27 78t74 33q37 0 75 -16t62 -41 q60 34 126.5 104t112.5 151.5t46 143.5q0 78 -58 78q-66 0 -133.5 -33.5t-128.5 -85.5t-140.5 -136.5t-125.5 -133.5q-15 -15 -33 -15q-21 0 -38 18t-17 38zM180 -512q0 -14 13 -14q30 0 62 86.5t48 169.5q-46 -58 -84.5 -126.5t-38.5 -115.5zM190 61q0 -12 31 -12t31 12 q0 13 -31 13t-31 -13z" />
<glyph unicode="{" horiz-adv-x="584" d="M37 649q10 24 62.5 78.5t78.5 103.5q36 61 47 148q12 107 67 198.5t131 145t150 53.5q52 0 52 -55q0 -38 -39 -47q-223 -54 -258 -307q-16 -115 -54 -181q-13 -25 -31 -48t-37 -40.5t-33.5 -27.5t-31.5 -23q34 -34 57 -78t23 -125q0 -53 -18 -145q-27 -126 -27 -188 q0 -64 24.5 -102.5t80.5 -51.5q34 -8 34 -47q0 -24 -13.5 -39.5t-33.5 -15.5q-34 0 -80.5 26.5t-80 81t-33.5 127.5q0 65 9 121t21 113q13 60 13 125q0 44 -11.5 76t-36.5 72t-32 52z" />
<glyph unicode="|" horiz-adv-x="430" d="M41 -51q0 6 2 16l213 1471q6 43 49 43q51 0 51 -49v-19l-213 -1470q-6 -45 -49 -45q-25 0 -39 14t-14 39z" />
<glyph unicode="}" horiz-adv-x="584" d="M-18 -111q0 40 38 50q223 53 259 307q12 82 34 137.5t52 95.5t49 56.5t61 48.5q-14 13 -37.5 36.5t-38 58t-14.5 89.5t18 143q10 46 18.5 99.5t8.5 91.5q0 64 -23.5 102t-80.5 51q-35 10 -35 48q0 14 6 26.5t16.5 20.5t24.5 8q34 0 80.5 -27.5t80 -82t33.5 -128.5 q0 -96 -30 -231q-13 -66 -13 -125q0 -47 40 -94t79 -90q-58 -49 -103 -97t-79.5 -115t-44.5 -151q-13 -104 -67.5 -191.5t-130.5 -138.5t-150 -51q-51 0 -51 53z" />
<glyph unicode="~" horiz-adv-x="809" d="M66 571q0 21 16 37q22 24 50.5 54.5t67.5 52.5t91 22q88 0 149 -55q13 -10 32 -26t34 -24.5t31 -8.5q50 0 87 17.5t66 53.5q14 21 39 21q21 0 37 -16t16 -37q0 -12 -10 -29q-40 -54 -101.5 -83.5t-133.5 -29.5q-45 0 -71.5 14.5t-74.5 51.5q-31 25 -52.5 36t-47.5 11 q-15 0 -33.5 -9t-37 -24.5t-31 -27.5t-37.5 -37q-15 -15 -35 -15t-35.5 15.5t-15.5 35.5z" />
<glyph unicode="&#xa1;" horiz-adv-x="594" d="M-29 -104q0 14 6 26q44 77 84.5 172.5t89.5 229.5t92.5 259t100.5 283q11 33 45 33q20 0 36.5 -12.5t16.5 -26.5q0 -17 -4 -31q-53 -149 -107 -304t-92.5 -260t-81.5 -209t-89 -185q-16 -27 -41 -27q-20 0 -38 15.5t-18 36.5zM362 1120q0 31 35 31q62 33 111 33 q65 0 65 -66q0 -44 -28.5 -80.5t-69.5 -36.5q-32 0 -72.5 34t-40.5 85z" />
<glyph unicode="&#xa2;" horiz-adv-x="666" d="M35 420q0 104 39 199.5t105.5 167.5t147 112.5t162.5 40.5h19q16 41 39 103.5t39 99.5q12 31 43 31q22 0 38.5 -15t16.5 -39q0 -12 -4 -20q-8 -16 -36 -91t-40 -102q66 -39 66 -108q0 -90 -37 -90q-24 0 -46 14.5t-22 28.5q0 9 6 18q4 4 4 16q0 16 -10 29 q-19 -45 -52.5 -126t-61.5 -149.5t-59 -143t-70 -167.5q127 11 220.5 80t149.5 152q19 24 43 24q23 0 39.5 -15t16.5 -36q0 -14 -9 -26q-27 -42 -93 -108t-168 -120.5t-224 -54.5q-10 0 -18 2q-17 -41 -58 -150t-53 -137q-11 -28 -41 -28q-22 0 -39.5 15t-17.5 38q0 12 4 20 q15 35 55 143t49 128q-71 36 -107 105t-36 159zM139 422q0 -59 20.5 -106t57.5 -70q76 176 248 596q-70 -6 -146.5 -62t-128 -150.5t-51.5 -207.5z" />
<glyph unicode="&#xa3;" horiz-adv-x="1157" d="M-133 20q0 56 47 95t115 39q41 0 98 -20t109 -50q132 123 256 418q-17 0 -45 -1.5l-56 -3t-43 -1.5q-22 0 -36.5 16t-14.5 37q0 20 13.5 35.5t37.5 15.5q22 0 49 1.5t51.5 2.5t40.5 1.5t48 0.5q53 145 92 267t59 208q63 267 242 267q91 0 148 -78t57 -185 q0 -78 -33 -150.5t-96 -117.5q-9 -6 -27 -6q-22 0 -38.5 16.5t-16.5 36.5q0 24 24 39q44 28 67 73t23 97q0 69 -30.5 121.5t-73.5 52.5q-51 0 -82.5 -36.5t-56.5 -145.5q-11 -48 -32 -117.5t-31 -98t-35 -100.5t-48 -135q32 0 81.5 8.5t72.5 8.5q26 0 41.5 -17.5t15.5 -40.5 q0 -20 -11 -32.5t-34 -12.5q-22 0 -93 -10t-116 -10q-125 -314 -270 -473q139 -64 233 -64q262 0 420 113q13 8 29 8q23 0 38 -16t15 -37q0 -23 -20 -37q-91 -66 -210 -100.5t-272 -34.5q-77 0 -152 25t-167 69q-102 -72 -221 -72q-63 0 -112.5 33.5t-49.5 97.5zM-37 20 q0 -26 57 -26q63 0 119 24q-58 33 -110 33q-66 0 -66 -31z" />
<glyph unicode="&#xa5;" d="M248 -250q0 12 10 29q78 108 127 196t121 232h-111q-51 0 -51 51q0 22 13 37.5t38 15.5h162q12 22 33 56q-25 0 -95 -5.5t-94 -5.5t-37.5 16t-13.5 36t13.5 35.5t37.5 15.5q66 0 124.5 6t136.5 16q12 16 39.5 54t54.5 73q-8 -2 -25 -2q-93 0 -125 135q-21 89 -47 169 t-61 187.5t-56 188.5q-10 37 -10 45q0 23 15.5 37t37.5 14q39 0 47 -41q12 -46 37 -125t56 -173t48.5 -152.5t31.5 -124.5q9 -41 47 -41q45 0 98 53q50 48 103 119t130.5 183t114.5 159q15 18 41 18t43.5 -13t17.5 -34q0 -13 -8 -26q-77 -117 -152.5 -224.5t-172 -239.5 t-166.5 -222q38 1 70.5 1.5t93.5 0.5q23 0 36 -14.5t13 -34.5q0 -21 -14.5 -37.5t-38.5 -16.5q-156 0 -240 -14q-40 -63 -47 -76q63 0 107 -0.5t98 -1.5q25 0 38 -14.5t13 -36.5t-13 -36.5t-38 -14.5q-68 1 -123.5 1.5t-134.5 0.5l-56.5 -113t-56.5 -107t-75.5 -129 t-92.5 -139q-14 -20 -37 -20q-22 0 -38.5 15.5t-16.5 37.5z" />
<glyph unicode="&#xa7;" horiz-adv-x="938" d="M119 -233q0 19 16 35t37 16q24 0 37 -17q80 -94 182 -94q78 0 134.5 60.5t56.5 152.5q0 48 -22.5 83t-57 61t-116.5 74t-93 55q-81 47 -123.5 122.5t-42.5 157.5q0 109 73 193.5t210 103.5q-69 46 -104.5 102t-35.5 142q0 78 39.5 146.5t110 110.5t155.5 42 q58 0 123 -22.5t125 -67.5q23 -18 23 -43q0 -20 -15 -35t-36 -15q-15 0 -29 11q-107 69 -197 69q-87 0 -141.5 -60t-54.5 -130q0 -72 50 -123.5t150 -103.5q44 -22 102.5 -52t101.5 -65t71.5 -90.5t28.5 -136.5q0 -124 -73 -208.5t-214 -117.5q96 -92 96 -223 q0 -83 -41 -152t-110.5 -107t-145.5 -38q-69 0 -137.5 33.5t-120.5 99.5q-12 15 -12 31zM231 477q0 -81 74.5 -156.5t190.5 -109.5q106 14 167.5 47.5t86 80t24.5 110.5q0 73 -48 128t-194 113q-103 0 -171 -30.5t-99 -79t-31 -103.5z" />
<glyph unicode="&#xa8;" horiz-adv-x="594" d="M49 950q0 40 25.5 74.5t62.5 34.5q22 0 48.5 -15.5t46.5 -40t20 -49.5q0 -32 -45 -54.5t-88 -22.5q-70 0 -70 73zM381 950q0 40 25.5 74.5t62.5 34.5q23 0 49.5 -15.5t46 -40t19.5 -49.5q0 -33 -43.5 -55t-89.5 -22q-70 0 -70 73z" />
<glyph unicode="&#xa9;" horiz-adv-x="1317" d="M37 692q0 151 44 283.5t127 235t201.5 161.5t264.5 62q150 0 267 -56t196.5 -155t122.5 -231t47 -281q0 -153 -40 -284.5t-118 -232.5t-193 -160t-258 -63q-144 0 -264.5 54.5t-208.5 154.5t-136 230.5t-52 281.5zM119 696q4 -179 77 -326.5t202 -232t298 -84.5 q129 4 228 56.5t166 142t101 206t34 251.5q-6 180 -69.5 326t-185 231.5t-292.5 85.5q-170 -4 -297 -92.5t-194.5 -236.5t-67.5 -327zM356 489q0 105 66 233t171.5 218t213.5 90q45 0 72.5 -23.5t27.5 -58.5q0 -83 -61.5 -161t-151.5 -115q-4 -1 -14 -4.5l-10 -3.5 q-11 0 -18 9t-7 17q0 18 23 27q51 20 92 53.5t65.5 75.5t24.5 84q0 41 -45 41q-100 0 -191.5 -83t-148.5 -200.5t-57 -198.5q0 -122 133 -122q59 0 112 31t119 89q12 13 21 13q11 0 19.5 -7.5t8.5 -19.5q0 -10 -20 -29q-67 -61 -127 -96t-135 -35q-79 0 -131 43t-52 133z " />
<glyph unicode="&#xaa;" horiz-adv-x="645" d="M20 588q0 43 50 43h553q24 0 36.5 -12.5t12.5 -28.5q0 -18 -13 -29.5t-36 -11.5h-553q-50 0 -50 39zM127 809q0 60 23.5 122.5t75 118.5t135 91t194.5 35q39 0 39 -31q0 -35 -45 -35q-137 0 -218 -55t-114 -126.5t-33 -123.5q0 -28 13.5 -42.5t35.5 -14.5q38 0 84.5 43.5 t88.5 104.5t67 112q20 29 25.5 35t19.5 6q27 0 27 -29q0 -25 -19 -57q-2 -4 -32.5 -58t-45 -84.5t-14.5 -46.5q0 -18 12 -18q25 0 91 46.5t98 84.5q12 12 29 12q28 0 28 -31q0 -14 -14 -28q-51 -56 -119.5 -103t-128.5 -47q-24 0 -40.5 18.5t-16.5 43.5q-71 -68 -146 -68 q-100 0 -100 125z" />
<glyph unicode="&#xab;" horiz-adv-x="1147" d="M16 541q0 40 101 104q57 35 137.5 74.5t198.5 94.5t158.5 74.5t78.5 45.5q13 8 27 8q21 0 36 -17.5t15 -37.5q0 -28 -25 -41q-50 -28 -175.5 -85.5t-221.5 -102.5t-161.5 -80.5t-65.5 -53.5q0 -44 138 -153.5t312 -225.5q23 -14 23 -39q0 -22 -16.5 -38.5t-36.5 -16.5 q-14 0 -31 10q-80 58 -164 118t-160 122t-123 121q-45 57 -45 119zM389 520q0 41 100 105q57 35 141.5 76.5t181.5 85.5t158 73.5t93 50.5q13 9 27 9q21 0 36 -17t15 -37q0 -27 -25 -41q-29 -16 -185.5 -89t-232 -108.5t-141 -71t-65.5 -54.5q0 -45 143 -157.5t307 -219.5 q23 -14 23 -41q0 -21 -17 -37t-37 -16q-13 0 -30 10q-60 43 -154 110t-173.5 133t-119.5 117q-45 55 -45 119z" />
<glyph unicode="&#xac;" horiz-adv-x="625" d="M86 625q0 13 10 16.5t39 3.5h430q32 0 40.5 -2.5t8.5 -19.5q0 -15 -11 -18t-38 -3h-430q-27 0 -38 4.5t-11 18.5zM109 57q0 53 25 90.5t85 83.5q-45 51 -68.5 87.5t-23.5 78.5q0 51 51 93t146 42q81 0 108 -18q12 -6 12 -18q0 -8 -5 -15.5t-13 -7.5q-2 1 -4 1.5t-6 0.5 q-23 14 -88 14q-70 0 -113 -24t-43 -68q0 -28 15.5 -51.5t64.5 -89.5q12 9 22.5 17t26.5 20q52 37 79 72.5t42 83.5q3 14 18 14q9 0 15 -5t6 -16q0 -4 -2 -14q-34 -99 -133 -168q-21 -15 -50 -37q7 -7 15.5 -18t17.5 -27t16 -38t7 -46q0 -34 -17 -61.5t-45 -42.5t-59 -15 q-47 0 -74.5 22.5t-27.5 59.5zM150 63q0 -21 16.5 -34t44.5 -13q34 0 57 20.5t23 57.5q0 49 -47 105q-94 -77 -94 -136zM322 717q0 13 6 22q9 26 53.5 162t81.5 225q-42 -24 -60 -31.5t-38 -7.5q-23 0 -23 23q0 18 18 18q49 0 95 46q11 11 28.5 32t25 28t15.5 7q19 0 25 -22 q-34 -66 -65 -148.5t-69 -199.5t-55 -160q-6 -13 -16 -13q-22 0 -22 19z" />
<glyph unicode="&#xad;" horiz-adv-x="717" d="M92 528q0 21 13.5 36.5t37.5 15.5h430q25 0 38.5 -15t13.5 -37q0 -21 -13.5 -37t-38.5 -16h-430q-24 0 -37.5 16t-13.5 37z" />
<glyph unicode="&#xae;" horiz-adv-x="1317" d="M37 692q0 151 44 283.5t127 235t201.5 161.5t264.5 62q150 0 267 -56t196.5 -155t122.5 -231t47 -281q0 -153 -40 -284.5t-118 -232.5t-193 -160t-258 -63q-144 0 -264.5 54.5t-208.5 154.5t-136 230.5t-52 281.5zM119 696q4 -179 77 -326.5t202 -232t298 -84.5 q129 4 228 56.5t166 142t101 206t34 251.5q-6 180 -69.5 326t-185 231.5t-292.5 85.5q-170 -4 -297 -92.5t-194.5 -236.5t-67.5 -327zM381 346q0 92 133 373q20 57 36.5 165.5t16.5 196.5q0 16 10 24.5t23 8.5t23 -8.5t10 -24.5q0 -21 -0.5 -35.5t-1.5 -31.5 q48 72 111.5 114.5t138.5 42.5q65 0 111 -50.5t46 -143.5q0 -84 -35.5 -178.5t-121 -166t-222.5 -79.5q90 -70 168 -145t121 -160q10 -20 10 -35q0 -12 -8.5 -20.5t-23.5 -8.5q-19 0 -31 23q-25 51 -71.5 102t-93.5 92t-105 93q-45 40 -45 71q0 21 16 37t45 16 q99 0 174.5 46t115.5 128.5t40 186.5q0 67 -20 97t-77 30q-55 0 -110 -43t-97 -115t-63 -149q-24 -113 -58 -237t-63.5 -198.5t-50.5 -74.5q-29 0 -40 13t-11 44z" />
<glyph unicode="&#xaf;" horiz-adv-x="553" d="M10 879q0 20 11.5 36.5t29.5 16.5h455q18 0 29.5 -16.5t11.5 -36.5t-11 -36t-30 -16h-455q-19 0 -30 16t-11 36z" />
<glyph unicode="&#xb0;" horiz-adv-x="532" d="M137 1024q0 69 45.5 117.5t108.5 48.5q41 0 89 -33.5t48 -105.5q0 -59 -47.5 -106.5t-108.5 -47.5q-47 0 -91 33.5t-44 93.5zM176 1026q0 -36 27 -61t69 -25q51 0 83 36t32 83q0 32 -30 61t-64 29q-46 0 -81.5 -37.5t-35.5 -85.5z" />
<glyph unicode="&#xb1;" horiz-adv-x="1065" d="M127 565q0 27 27 27h528q12 0 18.5 -8t6.5 -19q0 -12 -7 -21t-18 -9h-528q-27 0 -27 30zM211 907q0 17 10 29t31 12q32 0 83 4t73 4q10 62 32 205q5 33 39 33q43 0 43 -39q0 -14 -30 -197q14 0 39.5 1.5t55.5 3.5t50 2q21 0 31 -11.5t10 -29.5q0 -41 -41 -41 q-42 0 -89.5 -4.5t-70.5 -4.5q-16 -110 -28 -180q-7 -32 -39 -32q-43 0 -43 38q0 20 10 77t16 93q-19 0 -66 -2t-75 -2q-19 0 -30 12.5t-11 28.5z" />
<glyph unicode="&#xb2;" horiz-adv-x="532" d="M-43 764q0 26 21 46.5t57 20.5q50 0 108 -18q66 47 118.5 88t100.5 82q78 67 128.5 133.5t50.5 132.5q0 48 -29 78.5t-86 30.5q-109 0 -156 -103q-8 -16 -22 -16q-25 0 -25 27q0 12 4 20q15 42 65.5 82.5t133.5 40.5q51 0 88 -22t57.5 -59t20.5 -79q0 -87 -56 -159 t-157 -160q-65 -59 -174 -142q82 -32 114 -32q132 0 183 59q8 8 18 8q12 0 20.5 -7t8.5 -19q0 -11 -14 -25q-66 -70 -216 -70q-29 0 -56.5 7.5t-51 18t-57.5 26.5q-25 -18 -40 -27.5t-40.5 -20t-48.5 -10.5q-32 0 -50 20.5t-18 47.5zM14 764q0 -10 19 -10q20 0 57 22 q-10 4 -33 4q-43 0 -43 -16z" />
<glyph unicode="&#xb3;" horiz-adv-x="1065" d="M307 885q0 37 27 37q9 0 16.5 -8.5t7.5 -16.5v-20q0 -34 40 -66.5t83 -32.5q64 0 114 27t77.5 75t27.5 103q0 64 -32 96q-53 -16 -90 -16q-26 0 -44 15t-18 32q0 20 15.5 34.5t39.5 14.5q62 0 107 -22q47 20 66.5 60t19.5 73q0 40 -26.5 69t-69.5 29q-92 0 -140 -76 q-6 -14 -20 -14q-10 0 -18.5 6.5t-8.5 18.5q0 8 2 12q22 42 68 73t117 31q40 0 74.5 -20.5t53.5 -55t19 -73.5q0 -40 -19.5 -87t-76.5 -83q33 -54 33 -115q0 -115 -70 -186.5t-201 -71.5q-65 0 -119.5 47t-54.5 111z" />
<glyph unicode="&#xb4;" horiz-adv-x="430" d="M80 928q0 23 22 41q38 29 75 57t76 54.5t83 49.5q18 13 31 13q22 0 36.5 -17t14.5 -39q0 -29 -31 -45q-26 -11 -52.5 -28.5t-51.5 -38t-59.5 -47.5t-63.5 -47q-13 -9 -27 -9q-22 0 -37.5 17.5t-15.5 38.5z" />
<glyph unicode="&#xb5;" horiz-adv-x="735" d="M-37 20q0 22 18.5 38t45.5 16q41 0 86 -15q81 58 174 138q65 56 104 108t39 105q0 38 -23.5 62t-66.5 24q-89 0 -127 -82q-6 -13 -16 -13t-15.5 6.5t-5.5 14.5q0 10 4 16q10 33 52 67t108 34q58 0 94.5 -39t36.5 -90q0 -72 -43.5 -128t-126.5 -128q-20 -17 -45 -38 t-42.5 -35t-51.5 -40q64 -27 92 -27q103 0 145 47q6 7 15 7t15.5 -6.5t6.5 -14.5t-10 -18q-51 -56 -172 -56q-21 0 -46 6.5t-43 14.5t-44 18q1 0 -24 -15.5t-43 -22.5t-38 -7q-22 0 -37.5 16.5t-15.5 36.5zM8 20q0 -8 17 -8q18 0 45 19q-18 4 -27 4q-35 0 -35 -15zM98 625 q0 13 10.5 16.5t38.5 3.5h431q31 0 40 -3t9 -19q0 -15 -11.5 -18t-37.5 -3h-431q-26 0 -37.5 4t-11.5 19zM395 717q0 13 6 22q12 32 55.5 165t80.5 222q-42 -24 -60 -31.5t-39 -7.5q-22 0 -22 23q0 18 18 18q50 0 94 46q9 9 34 38t36 29q18 0 25 -22q-34 -68 -57.5 -127.5 t-48 -133t-48.5 -146.5t-35 -101q-6 -13 -16 -13q-23 0 -23 19z" />
<glyph unicode="&#xb6;" horiz-adv-x="758" d="M-170 934q0 74 28 142.5t83 123.5t131.5 85t171.5 30q125 0 227.5 -55.5t138.5 -174.5q49 104 60 136q12 32 45 32q20 0 36.5 -14t16.5 -35q0 -8 -4 -20q-11 -28 -51.5 -115.5t-106.5 -226.5q-37 -152 -112 -350.5t-162.5 -381.5t-157.5 -292q-25 -36 -49.5 -55 t-56.5 -19q-31 0 -31 33q0 59 84 261t219 484q-118 2 -236 47.5t-196 138t-78 226.5zM-70 934q0 -96 60.5 -166t166 -105.5t234.5 -35.5q31 70 131 272q2 14 2 47q0 72 -24 123.5t-65.5 83t-90.5 46.5t-106 15q-95 0 -165 -38.5t-106.5 -101.5t-36.5 -140zM309 -227 q0 17 6 32q27 79 104 257.5t183.5 411.5t181.5 394t131 283q17 31 46 31q22 0 38.5 -14.5t16.5 -37.5q0 -10 -6 -22q-93 -201 -158 -340t-159 -344.5t-175.5 -395t-107.5 -268.5q-13 -34 -45 -34q-21 0 -38.5 14t-17.5 33z" />
<glyph unicode="&#xb8;" horiz-adv-x="471" d="M41 -291q0 20 14.5 36.5t36.5 16.5q13 0 25 -6q48 -26 94 -26q58 0 88.5 33t30.5 87q0 61 -35 91q-25 18 -25 47q0 15 18 29t40 14q18 0 32 -13q72 -61 72 -163q0 -100 -57.5 -165t-165.5 -65q-71 0 -141 39q-27 14 -27 45z" />
<glyph unicode="&#xb9;" horiz-adv-x="1065" d="M340 731q0 5 2 12t4 15q19 48 60 172.5t59 178.5t51 134q-81 -51 -123 -51q-13 0 -20.5 10t-7.5 23q0 22 22 22q60 0 119 53q9 9 41 47.5t47 38.5q22 0 29 -26q-36 -73 -67.5 -154t-64 -179t-63.5 -190.5t-39 -113.5q-6 -14 -22 -14q-27 0 -27 22z" />
<glyph unicode="&#xba;" horiz-adv-x="645" d="M35 588q0 16 12.5 29.5t36.5 13.5h553q25 0 37 -12t12 -29t-12.5 -29t-36.5 -12h-553q-23 0 -36 11t-13 28zM154 862q0 60 29.5 128.5t88 115.5t138.5 47q47 0 77 -12q21 -8 21 -29q0 -16 -8 -25q31 0 60.5 -21t29.5 -75q0 -23 -10 -59t-23 -51h6q33 0 43 10q11 14 27 14 q13 0 22 -8t9 -20q0 -9 -7 -17q-14 -18 -40 -30.5t-54 -12.5q-7 0 -18 2t-25 4q-90 -129 -213 -129q-74 0 -113.5 48t-39.5 120zM215 866q0 -48 24.5 -78t67.5 -30q85 0 158 94q-25 19 -48.5 53.5t-23.5 75.5q0 35 19 63t51 37q-25 9 -55 9q-88 0 -140.5 -71.5t-52.5 -152.5 zM455 987q0 -56 45 -86q30 52 30 90q0 20 -6.5 27.5t-27.5 7.5q-41 0 -41 -39z" />
<glyph unicode="&#xbb;" horiz-adv-x="1147" d="M20 141q0 27 25 41q49 26 156.5 75.5t218 101t180.5 90.5t70 55q0 31 -77 101t-174 140t-200 138q-22 14 -22 39q0 22 15.5 38.5t37.5 16.5q13 0 31 -10q54 -40 134 -97.5t122.5 -89t101 -82.5t88.5 -92q45 -55 45 -119q0 -40 -100 -104q-51 -32 -152 -80.5t-173 -82 t-141 -67t-108 -59.5q-13 -8 -26 -8q-21 0 -36.5 17.5t-15.5 37.5zM393 121q0 28 25 41q35 19 329.5 156t294.5 165q0 45 -148 162t-302 217q-23 14 -23 39q0 20 16.5 37.5t37.5 17.5q13 0 30 -10q33 -24 124 -89.5t131.5 -95.5t101.5 -83.5t90 -91.5q45 -55 45 -119 q0 -41 -101 -105q-55 -34 -153.5 -81.5t-189.5 -90t-141 -66.5t-89 -50q-13 -8 -27 -8q-21 0 -36 17t-15 38z" />
<glyph unicode="&#xbc;" horiz-adv-x="1065" d="M106 623q1 5 1.5 9t2.5 8.5t3 8.5q20 52 35.5 99t39 120t43 128.5t52.5 138.5q-79 -52 -123 -52q-14 0 -21.5 11t-7.5 22q0 23 23 23q63 0 118 53q14 13 44 49.5t44 36.5q23 0 29 -27q-36 -73 -67.5 -154t-73 -208.5t-63 -190.5t-29.5 -84q-6 -14 -23 -14q-27 0 -27 23z M221 125q0 8 2.5 15t8.5 17t8 15q48 126 103 257t106.5 242t109.5 227t123 239q9 20 31 20q15 0 28 -11t13 -28q0 -12 -15 -35q-72 -140 -117 -230.5t-100 -209.5t-105 -237t-116 -285q-12 -33 -37 -33q-15 0 -29 10.5t-14 26.5zM475 231q0 26 18 40t46 14q23 0 55 -4 q45 45 98 126.5t95.5 163t58.5 129.5q6 19 24 19q27 0 27 -25t-40 -109t-97 -175t-107 -142q29 -7 103 -27t82 -22q42 144 92 258t71 150q11 16 23 16q11 0 19 -8t8 -19q0 -2 -9 -20q-19 -42 -47 -104.5t-56 -133.5t-50 -149q40 -4 57 -4q29 0 49 4q12 4 19 4q20 0 20 -23 q0 -22 -28 -30q-45 -6 -64 -6q-33 0 -68 6q-22 -70 -28 -133q-3 -23 -25 -23q-10 0 -18 7t-8 18q0 22 8 64t20 75q-38 8 -112.5 29t-106.5 28q-38 -28 -84 -28q-45 0 -45 34z" />
<glyph unicode="&#xbd;" horiz-adv-x="1065" d="M25 649q0 5 2 12t4 15q19 48 60 172.5t59 178.5t51 134q-81 -51 -123 -51q-14 0 -21.5 10t-7.5 23q0 22 23 22q62 0 118 54q12 11 43 48.5t46 37.5q22 0 28 -27q-36 -73 -67.5 -154t-73 -208.5t-63 -190.5t-29.5 -84q-6 -14 -23 -14q-26 0 -26 22zM221 150q0 12 8.5 26.5 t10.5 20.5q44 114 101 250.5t108.5 247.5t109.5 227t123 239q8 21 31 21q15 0 28 -11t13 -28q0 -13 -15 -35q-82 -155 -149.5 -295.5t-137.5 -300.5t-151 -367q-12 -32 -37 -32q-15 0 -29 10.5t-14 26.5zM440 70q0 24 22 44.5t56 20.5q43 0 109 -16q94 67 219 168 q178 158 178 266q0 49 -29 80t-86 31q-108 0 -155 -103q-7 -16 -23 -16q-24 0 -24 26q0 13 4 21q13 40 63.5 81.5t134.5 41.5q75 0 120.5 -48t45.5 -114q0 -86 -54 -156t-159 -164q-89 -78 -174 -141q34 -12 50.5 -17.5t32 -9.5t32.5 -4q58 0 106 13t76 45q8 8 19 8t19.5 -7 t8.5 -18q0 -12 -14 -26q-62 -68 -215 -68q-29 0 -55 7t-51.5 17.5l-59.5 24.5q-2 -1 -28.5 -17.5t-52 -27t-48.5 -10.5q-31 0 -49.5 20t-18.5 48zM498 68q0 -11 18 -11q9 0 17 3t15 6.5t25 13.5q-10 4 -32 4q-43 0 -43 -16z" />
<glyph unicode="&#xbe;" horiz-adv-x="1065" d="M-2 764q0 37 27 37q9 0 16.5 -8.5t7.5 -16.5v-20q0 -33 41 -66t82 -33q64 0 114.5 27.5t77.5 75.5t27 102q0 65 -33 96q-51 -16 -90 -16q-27 0 -44 15t-17 32q0 20 15.5 34.5t39.5 14.5q62 0 107 -22q46 21 66 60.5t20 72.5q0 40 -27 69t-70 29q-91 0 -139 -76 q-6 -14 -20 -14q-27 0 -27 25q0 8 2 12q22 42 68 73t116 31q40 0 75 -20.5t54 -55t19 -73.5q0 -40 -19.5 -87t-76.5 -83q32 -48 32 -115q0 -115 -69.5 -186.5t-200.5 -71.5q-65 0 -119.5 47t-54.5 111zM274 156q0 12 8.5 26.5t10.5 20.5q62 166 135 331.5t145.5 314 t161.5 318.5q8 21 31 21q15 0 28 -11t13 -28q0 -13 -14 -35q-59 -112 -111 -216.5t-107 -223.5t-105 -237t-116 -285q-12 -33 -37 -33q-15 0 -29 10.5t-14 26.5zM483 233q0 26 18 40t46 14q23 0 55 -4q45 45 98 126.5t95.5 163t58.5 129.5q6 19 25 19q12 0 19 -6.5t7 -18.5 q0 -25 -40 -109t-98 -176.5t-105 -140.5q43 -10 78 -20.5t106 -28.5q42 144 90.5 254.5t73.5 153.5q10 16 22 16q11 0 19 -8t8 -19q0 -1 -8 -20q-38 -83 -57.5 -126t-47 -113t-49.5 -148q42 -4 57 -4q28 0 50 4q12 4 18 4q20 0 20 -22q0 -23 -28 -31q-45 -6 -64 -6 q-34 0 -67 6q-22 -67 -29 -133q-3 -23 -25 -23q-10 0 -18 7t-8 18q0 22 8 64t20 75q-37 7 -110 28t-109 29q-38 -28 -84 -28q-45 0 -45 34z" />
<glyph unicode="&#xbf;" horiz-adv-x="963" d="M39 119q0 93 49 175.5t141 127.5q122 60 193 106t113 91t65 89t66 142q14 31 43 31q20 0 37.5 -15.5t17.5 -38.5q0 -6 -12 -41q-41 -103 -89 -174t-141.5 -141.5t-247.5 -142.5q-62 -29 -97.5 -87t-35.5 -122q0 -72 52 -132.5t184 -60.5q87 0 146 23t95.5 62.5 t73.5 103.5q23 35 47 35q23 0 39.5 -15.5t16.5 -40.5q0 -14 -17 -45q-35 -61 -86.5 -111t-130.5 -83t-184 -33q-115 0 -190.5 40t-111.5 107.5t-36 149.5zM680 1122q0 31 35 31q62 33 110 33q34 0 50 -18.5t16 -47.5q0 -42 -28.5 -79t-69.5 -37q-32 0 -72.5 34t-40.5 84z " />
<glyph unicode="&#xc0;" horiz-adv-x="993" d="M-41 631q0 21 13 36t38 15q139 0 283 -41q68 123 153 242t178 217t184.5 156.5t172.5 58.5q60 0 97.5 -33t37.5 -102v-2q-5 -67 -51 -180t-94.5 -231t-90.5 -270.5t-59 -330.5q17 -45 17 -176q0 -24 -16.5 -37.5t-41.5 -13.5q-27 0 -49 17.5t-22 47.5q0 58 8 152 q-21 62 -71.5 130.5t-128.5 127.5t-175 100q-140 -267 -211 -528q-9 -37 -45 -37q-21 0 -38 14.5t-17 36.5q0 47 68.5 226t144.5 323q-96 31 -234 31q-51 0 -51 51zM393 606q110 -45 199.5 -116t146.5 -154q33 189 80 319.5t121 302.5t74 222q0 34 -35 34q-43 0 -106 -37 t-143.5 -115t-165 -191.5t-171.5 -264.5zM811 1509q0 20 13.5 36t33.5 16q14 0 25 -5q54 -25 126 -82.5t87 -68.5q20 -14 20 -39q0 -49 -41 -49q-19 0 -35 12q-34 25 -79 60.5t-67.5 51.5t-53.5 29q-29 14 -29 39z" />
<glyph unicode="&#xc1;" horiz-adv-x="993" d="M-41 631q0 21 13 36t38 15q139 0 283 -41q68 123 153 242t178 217t184.5 156.5t172.5 58.5q60 0 97.5 -33t37.5 -102v-2q-5 -67 -51 -180t-94.5 -231t-90.5 -270.5t-59 -330.5q17 -45 17 -176q0 -24 -16.5 -37.5t-41.5 -13.5q-27 0 -49 17.5t-22 47.5q0 58 8 152 q-21 62 -71.5 130.5t-128.5 127.5t-175 100q-140 -267 -211 -528q-9 -37 -45 -37q-21 0 -38 14.5t-17 36.5q0 47 68.5 226t144.5 323q-96 31 -234 31q-51 0 -51 51zM393 606q110 -45 199.5 -116t146.5 -154q33 189 80 319.5t121 302.5t74 222q0 34 -35 34q-43 0 -106 -37 t-143.5 -115t-165 -191.5t-171.5 -264.5zM922 1395q0 26 22 41t104 79.5t140 90.5q12 6 24 6q18 0 29.5 -12.5t11.5 -28.5q0 -31 -30 -49q-37 -20 -119.5 -81t-108.5 -79q-14 -14 -30 -14q-17 0 -30 14.5t-13 32.5z" />
<glyph unicode="&#xc2;" horiz-adv-x="993" d="M-41 631q0 21 13 36t38 15q139 0 283 -41q68 123 153 242t178 217t184.5 156.5t172.5 58.5q60 0 97.5 -33t37.5 -102v-2q-5 -67 -51 -180t-94.5 -231t-90.5 -270.5t-59 -330.5q17 -45 17 -176q0 -24 -16.5 -37.5t-41.5 -13.5q-27 0 -49 17.5t-22 47.5q0 58 8 152 q-21 62 -71.5 130.5t-128.5 127.5t-175 100q-140 -267 -211 -528q-9 -37 -45 -37q-21 0 -38 14.5t-17 36.5q0 47 68.5 226t144.5 323q-96 31 -234 31q-51 0 -51 51zM393 606q110 -45 199.5 -116t146.5 -154q33 189 80 319.5t121 302.5t74 222q0 34 -35 34q-43 0 -106 -37 t-143.5 -115t-165 -191.5t-171.5 -264.5zM737 1362q0 19 17 33q141 116 164 133q43 31 79 31q29 0 52 -21q45 -37 82 -74t73 -92q10 -17 10 -31q0 -20 -14.5 -34.5t-34.5 -14.5q-24 0 -39 23q-35 55 -77.5 97.5t-57.5 47.5q-22 -8 -77 -46t-95 -87q-15 -18 -33 -18 q-16 0 -32.5 16.5t-16.5 36.5z" />
<glyph unicode="&#xc3;" horiz-adv-x="993" d="M-41 631q0 21 13 36t38 15q139 0 283 -41q68 123 153 242t178 217t184.5 156.5t172.5 58.5q60 0 97.5 -33t37.5 -102v-2q-5 -67 -51 -180t-94.5 -231t-90.5 -270.5t-59 -330.5q17 -45 17 -176q0 -24 -16.5 -37.5t-41.5 -13.5q-27 0 -49 17.5t-22 47.5q0 58 8 152 q-21 62 -71.5 130.5t-128.5 127.5t-175 100q-140 -267 -211 -528q-9 -37 -45 -37q-21 0 -38 14.5t-17 36.5q0 47 68.5 226t144.5 323q-96 31 -234 31q-51 0 -51 51zM393 606q110 -45 199.5 -116t146.5 -154q33 189 80 319.5t121 302.5t74 222q0 34 -35 34q-43 0 -106 -37 t-143.5 -115t-165 -191.5t-171.5 -264.5zM750 1415q0 17 16 33q21 23 46 50t59.5 47t82.5 20q79 0 133 -52q12 -8 31 -23.5t31 -22.5t27 -7q47 0 79 16t58 50q15 18 35 18q19 0 34 -14t15 -35q0 -11 -11 -25q-75 -102 -210 -102q-41 0 -67.5 14t-64.5 45q-53 43 -90 43 q-14 0 -28.5 -6.5t-33.5 -22t-33.5 -29.5t-31.5 -30q-11 -14 -30 -14q-17 0 -32 15t-15 32z" />
<glyph unicode="&#xc4;" horiz-adv-x="993" d="M-41 631q0 21 13 36t38 15q139 0 283 -41q68 123 153 242t178 217t184.5 156.5t172.5 58.5q60 0 97.5 -33t37.5 -102v-2q-5 -67 -51 -180t-94.5 -231t-90.5 -270.5t-59 -330.5q17 -45 17 -176q0 -24 -16.5 -37.5t-41.5 -13.5q-27 0 -49 17.5t-22 47.5q0 58 8 152 q-21 62 -71.5 130.5t-128.5 127.5t-175 100q-140 -267 -211 -528q-9 -37 -45 -37q-21 0 -38 14.5t-17 36.5q0 47 68.5 226t144.5 323q-96 31 -234 31q-51 0 -51 51zM393 606q110 -45 199.5 -116t146.5 -154q33 189 80 319.5t121 302.5t74 222q0 34 -35 34q-43 0 -106 -37 t-143.5 -115t-165 -191.5t-171.5 -264.5zM745 1417q0 40 25.5 74.5t63.5 34.5q22 0 49 -16t46 -40t19 -49q0 -29 -46 -52t-87 -23q-70 0 -70 71zM1077 1417q0 40 25.5 74.5t62.5 34.5q23 0 49.5 -15.5t46 -40t19.5 -49.5q0 -30 -44 -52.5t-89 -22.5q-70 0 -70 71z" />
<glyph unicode="&#xc5;" horiz-adv-x="993" d="M-41 631q0 21 13 36t38 15q139 0 283 -41q68 123 153 242t178 217t184.5 156.5t172.5 58.5q60 0 97.5 -33t37.5 -102v-2q-5 -67 -51 -180t-94.5 -231t-90.5 -270.5t-59 -330.5q17 -45 17 -176q0 -24 -16.5 -37.5t-41.5 -13.5q-27 0 -49 17.5t-22 47.5q0 58 8 152 q-21 62 -71.5 130.5t-128.5 127.5t-175 100q-140 -267 -211 -528q-9 -37 -45 -37q-21 0 -38 14.5t-17 36.5q0 47 68.5 226t144.5 323q-96 31 -234 31q-51 0 -51 51zM393 606q110 -45 199.5 -116t146.5 -154q33 189 80 319.5t121 302.5t74 222q0 34 -35 34q-43 0 -106 -37 t-143.5 -115t-165 -191.5t-171.5 -264.5zM866 1448q0 53 40 106.5t114 53.5q61 0 107.5 -48t46.5 -110q0 -42 -22 -75.5t-73 -65.5q-6 -4 -14 -4q-17 0 -27 12.5t-10 28.5q0 17 19 26q57 27 57 74q0 38 -24 65t-64 27q-32 0 -56 -27t-24 -67q0 -37 18 -37q9 0 21 6 q18 0 29.5 -13.5t11.5 -27.5q0 -10 -14 -20.5t-33 -10.5q-55 0 -79 27t-24 80z" />
<glyph unicode="&#xc6;" horiz-adv-x="1526" d="M-41 631q0 21 13 36t38 15q152 0 283 -39q117 208 252.5 369.5t257.5 240.5q94 60 180 60q55 0 91 -29.5t40 -91.5q77 64 160 99.5t162 35.5q60 0 102.5 -29t42.5 -71t-28 -90t-86.5 -109.5t-139.5 -132.5q-14 -14 -35 -14q-22 0 -38.5 15.5t-16.5 37.5q0 18 16 33 q82 68 149.5 148t67.5 102q0 4 -4 4q-20 4 -32 4q-75 0 -180 -61t-180 -159t-75 -202q0 -26 10.5 -45.5t28.5 -40t43 -49.5q23 -26 23 -56q0 -43 -55 -75q-91 -53 -140.5 -89.5t-83.5 -90.5t-34 -128q0 -43 20 -77q52 -101 203 -101q73 0 168.5 54.5t176 140t120.5 178.5 q12 31 45 31q21 0 38 -14.5t17 -34.5q0 -11 -6 -23q-50 -111 -140.5 -211.5t-201.5 -161.5t-217 -61q-116 0 -199 55q0 -29 -18.5 -46t-42.5 -17q-26 0 -46 17t-20 46v6q0 23 8.5 64t8.5 65q-27 79 -80.5 153.5t-124.5 131.5t-158 94q-141 -269 -211 -532q-9 -37 -45 -37 q-21 0 -38 14.5t-17 36.5q0 10 2 14q73 271 211 537q-113 29 -234 29q-51 0 -51 51zM391 606q100 -42 184 -110t140 -148q30 98 99 160t169 113q-84 77 -84 206q0 47 19 97.5t63 119.5q33 92 33 136q0 37 -37 37q-42 0 -119 -50q-106 -69 -230 -217.5t-237 -343.5z" />
<glyph unicode="&#xc7;" horiz-adv-x="973" d="M96 -291q0 27 15.5 32t60.5 7q91 2 137 9.5t68 35.5q28 43 39 139q-297 36 -297 340q0 155 74 338t201 346.5t286.5 266t320.5 102.5q87 0 140 -49t53 -133q0 -103 -55 -204t-149.5 -183t-209.5 -127q-4 -1 -21.5 -9t-25.5 -8q-21 0 -35 15t-14 35q0 36 43 55 q99 38 180.5 104t129.5 148.5t48 163.5q0 45 -22.5 62t-65.5 17q-151 0 -291 -96t-250.5 -250t-172.5 -315.5t-62 -278.5q0 -125 61.5 -183t196.5 -58q118 0 224 61t229 176q22 23 41 23q21 0 37 -16t16 -37t-37 -56q-77 -71 -144.5 -121t-152.5 -87t-176 -44 q-2 -94 -22 -154t-77.5 -95t-168.5 -35q-80 0 -116 12.5t-36 50.5z" />
<glyph unicode="&#xc8;" horiz-adv-x="864" d="M45 227q0 127 70.5 223.5t220.5 174.5q-78 69 -78 188q0 109 81 231t206 202.5t248 80.5q71 0 103 -33.5t32 -101.5q0 -105 -86 -206.5t-180 -156.5q-34 -18 -56 -18q-17 0 -30 13t-13 32q0 29 25 45q32 20 91.5 70t102.5 107t43 104q0 18 -11.5 31.5t-31.5 13.5 q-46 0 -119 -34.5t-142 -92t-115 -133.5t-46 -156q0 -52 46 -106q18 -21 29 -39.5t11 -44.5q0 -23 -16.5 -40t-64.5 -46q-106 -67 -162 -132t-56 -172q0 -84 59 -132t163 -48q86 0 151.5 17.5t115.5 47t90.5 65t94.5 89.5q21 21 39 21q21 0 35 -16.5t14 -38.5q0 -25 -35 -60 q-63 -63 -124 -109.5t-158.5 -82t-222.5 -35.5q-136 0 -230 76.5t-94 201.5zM602 1556q0 19 13 34.5t34 15.5q15 0 25 -4q50 -22 130.5 -86.5t82.5 -65.5q20 -14 20 -39q0 -47 -41 -47q-19 0 -35 12q-37 26 -98.5 74.5t-101.5 65.5q-29 12 -29 40z" />
<glyph unicode="&#xc9;" horiz-adv-x="864" d="M45 227q0 127 70.5 223.5t220.5 174.5q-78 69 -78 188q0 109 81 231t206 202.5t248 80.5q71 0 103 -33.5t32 -101.5q0 -105 -86 -206.5t-180 -156.5q-34 -18 -56 -18q-17 0 -30 13t-13 32q0 29 25 45q32 20 91.5 70t102.5 107t43 104q0 18 -11.5 31.5t-31.5 13.5 q-46 0 -119 -34.5t-142 -92t-115 -133.5t-46 -156q0 -52 46 -106q18 -21 29 -39.5t11 -44.5q0 -23 -16.5 -40t-64.5 -46q-106 -67 -162 -132t-56 -172q0 -84 59 -132t163 -48q86 0 151.5 17.5t115.5 47t90.5 65t94.5 89.5q21 21 39 21q21 0 35 -16.5t14 -38.5q0 -25 -35 -60 q-63 -63 -124 -109.5t-158.5 -82t-222.5 -35.5q-136 0 -230 76.5t-94 201.5zM729 1395q0 26 23 41q34 22 83 62t79.5 62t80.5 46q13 6 25 6q17 0 29 -12t12 -29q0 -31 -31 -49q-36 -21 -65.5 -41.5t-77 -56.5t-84.5 -62q-14 -14 -31 -14t-30 14.5t-13 32.5z" />
<glyph unicode="&#xca;" horiz-adv-x="864" d="M45 227q0 127 70.5 223.5t220.5 174.5q-78 69 -78 188q0 109 81 231t206 202.5t248 80.5q71 0 103 -33.5t32 -101.5q0 -105 -86 -206.5t-180 -156.5q-34 -18 -56 -18q-17 0 -30 13t-13 32q0 29 25 45q32 20 91.5 70t102.5 107t43 104q0 18 -11.5 31.5t-31.5 13.5 q-46 0 -119 -34.5t-142 -92t-115 -133.5t-46 -156q0 -52 46 -106q18 -21 29 -39.5t11 -44.5q0 -23 -16.5 -40t-64.5 -46q-106 -67 -162 -132t-56 -172q0 -84 59 -132t163 -48q86 0 151.5 17.5t115.5 47t90.5 65t94.5 89.5q21 21 39 21q21 0 35 -16.5t14 -38.5q0 -25 -35 -60 q-63 -63 -124 -109.5t-158.5 -82t-222.5 -35.5q-136 0 -230 76.5t-94 201.5zM553 1386q0 20 16 33q51 42 71 59t44 36.5t49 39.5q39 29 80 29q30 0 51 -18q42 -35 79.5 -72.5t76.5 -95.5q10 -18 10 -29q0 -22 -14.5 -36.5t-34.5 -14.5q-25 0 -39 22q-33 52 -76 96t-59 50 q-25 -9 -79 -47t-93 -84q-14 -21 -33 -21q-17 0 -33 17.5t-16 35.5z" />
<glyph unicode="&#xcb;" horiz-adv-x="864" d="M45 227q0 127 70.5 223.5t220.5 174.5q-78 69 -78 188q0 109 81 231t206 202.5t248 80.5q71 0 103 -33.5t32 -101.5q0 -105 -86 -206.5t-180 -156.5q-34 -18 -56 -18q-17 0 -30 13t-13 32q0 29 25 45q32 20 91.5 70t102.5 107t43 104q0 18 -11.5 31.5t-31.5 13.5 q-46 0 -119 -34.5t-142 -92t-115 -133.5t-46 -156q0 -52 46 -106q18 -21 29 -39.5t11 -44.5q0 -23 -16.5 -40t-64.5 -46q-106 -67 -162 -132t-56 -172q0 -84 59 -132t163 -48q86 0 151.5 17.5t115.5 47t90.5 65t94.5 89.5q21 21 39 21q21 0 35 -16.5t14 -38.5q0 -25 -35 -60 q-63 -63 -124 -109.5t-158.5 -82t-222.5 -35.5q-136 0 -230 76.5t-94 201.5zM549 1450q0 40 25.5 75.5t62.5 35.5q22 0 49 -16.5t46.5 -42t19.5 -48.5q0 -29 -45 -52.5t-89 -23.5q-35 0 -52 20.5t-17 51.5zM881 1450q0 40 25 75.5t63 35.5q35 0 74.5 -35.5t39.5 -71.5 q0 -30 -43.5 -53t-89.5 -23q-35 0 -52 20.5t-17 51.5z" />
<glyph unicode="&#xcc;" horiz-adv-x="901" d="M10 125q0 22 15 36.5t36 14.5q41 0 52 -51q6 -37 33.5 -53.5t89.5 -16.5q72 0 158 82.5t165.5 208t140.5 252.5q174 365 174 524q0 109 -92 109q-74 0 -147 -65.5t-118.5 -161.5t-45.5 -183q0 -25 -17 -40t-38 -15q-47 0 -47 63q0 93 50 212.5t148 205.5t228 86 q55 0 95.5 -27.5t61.5 -71t21 -89.5q0 -64 -14 -135.5t-39 -146t-54.5 -146t-70.5 -156.5q-65 -134 -129 -238.5t-132.5 -186.5t-145.5 -132.5t-152 -50.5q-102 0 -164 43t-62 129zM602 1509q0 20 13.5 36t33.5 16q15 0 25 -5q54 -25 126 -82.5t87 -68.5q20 -14 20 -39 q0 -49 -41 -49q-19 0 -35 12q-34 25 -79 60.5t-67.5 51.5t-53.5 29q-29 14 -29 39z" />
<glyph unicode="&#xcd;" horiz-adv-x="901" d="M10 125q0 22 15 36.5t36 14.5q41 0 52 -51q6 -37 33.5 -53.5t89.5 -16.5q72 0 158 82.5t165.5 208t140.5 252.5q174 365 174 524q0 109 -92 109q-74 0 -147 -65.5t-118.5 -161.5t-45.5 -183q0 -25 -17 -40t-38 -15q-47 0 -47 63q0 93 50 212.5t148 205.5t228 86 q55 0 95.5 -27.5t61.5 -71t21 -89.5q0 -64 -14 -135.5t-39 -146t-54.5 -146t-70.5 -156.5q-65 -134 -129 -238.5t-132.5 -186.5t-145.5 -132.5t-152 -50.5q-102 0 -164 43t-62 129zM709 1411q0 27 22 41q22 15 104 79.5t140 90.5q12 6 24 6q19 0 30 -11.5t11 -29.5 q0 -28 -30 -49q-37 -20 -119.5 -81t-108.5 -79q-14 -14 -30 -14q-17 0 -30 14.5t-13 32.5z" />
<glyph unicode="&#xce;" horiz-adv-x="901" d="M10 125q0 22 15 36.5t36 14.5q41 0 52 -51q6 -37 33.5 -53.5t89.5 -16.5q72 0 158 82.5t165.5 208t140.5 252.5q174 365 174 524q0 109 -92 109q-74 0 -147 -65.5t-118.5 -161.5t-45.5 -183q0 -25 -17 -40t-38 -15q-47 0 -47 63q0 93 50 212.5t148 205.5t228 86 q55 0 95.5 -27.5t61.5 -71t21 -89.5q0 -64 -14 -135.5t-39 -146t-54.5 -146t-70.5 -156.5q-65 -134 -129 -238.5t-132.5 -186.5t-145.5 -132.5t-152 -50.5q-102 0 -164 43t-62 129zM553 1395q0 19 16 32q20 17 68.5 57t95.5 79q40 28 80 28q30 0 51 -18q42 -35 79.5 -72.5 t76.5 -95.5q10 -17 10 -29q0 -21 -15 -36t-34 -15q-26 0 -39 25q-33 51 -76 94t-59 49q-25 -9 -79 -47t-93 -84q-17 -21 -33 -21q-18 0 -33.5 17.5t-15.5 36.5z" />
<glyph unicode="&#xcf;" horiz-adv-x="901" d="M10 125q0 22 15 36.5t36 14.5q41 0 52 -51q6 -37 33.5 -53.5t89.5 -16.5q72 0 158 82.5t165.5 208t140.5 252.5q174 365 174 524q0 109 -92 109q-74 0 -147 -65.5t-118.5 -161.5t-45.5 -183q0 -25 -17 -40t-38 -15q-47 0 -47 63q0 93 50 212.5t148 205.5t228 86 q55 0 95.5 -27.5t61.5 -71t21 -89.5q0 -64 -14 -135.5t-39 -146t-54.5 -146t-70.5 -156.5q-65 -134 -129 -238.5t-132.5 -186.5t-145.5 -132.5t-152 -50.5q-102 0 -164 43t-62 129zM532 1446q0 40 25.5 75t63.5 35q22 0 49 -16t46 -41.5t19 -48.5q0 -29 -45 -52.5t-88 -23.5 q-70 0 -70 72zM864 1446q0 40 25.5 75t62.5 35q23 0 49.5 -15.5t46 -41.5t19.5 -49q0 -30 -43.5 -53t-89.5 -23q-70 0 -70 72z" />
<glyph unicode="&#xd1;" horiz-adv-x="1253" d="M-35 -20q0 21 19 45q87 102 178.5 236t187 304.5t167 343.5t108.5 334q8 38 28.5 58t44.5 20q27 0 49.5 -21t30.5 -59q18 -99 37 -250t34.5 -296t28 -308.5t13.5 -265.5q31 99 91.5 305t110.5 359.5t115.5 299.5t132.5 224q23 24 45 24q24 0 38 -14.5t14 -36.5 q0 -23 -27 -51q-65 -71 -128.5 -226t-106 -289.5t-123 -407.5t-105.5 -331q-13 -31 -30.5 -44t-57.5 -13q-30 0 -47.5 25.5t-19.5 58.5q-5 137 -19 322t-36 402t-42 376q-20 -78 -82 -222.5t-146.5 -304.5t-192 -325.5t-220.5 -300.5q-19 -19 -43 -19q-18 0 -32.5 14.5 t-14.5 33.5zM750 1415q0 17 16 33q21 23 46 50t59.5 47t82.5 20q79 0 133 -52q12 -8 31 -23.5t31 -22.5t27 -7q47 0 79 16t58 50q15 18 35 18q19 0 34 -14t15 -35q0 -11 -11 -25q-75 -102 -210 -102q-41 0 -67.5 14t-64.5 45q-53 43 -90 43q-14 0 -28.5 -6.5t-33.5 -22 t-33.5 -29.5t-31.5 -30q-11 -14 -30 -14q-17 0 -32 15t-15 32z" />
<glyph unicode="&#xd2;" d="M33 324q0 166 71.5 341t203.5 321t319 234.5t405 88.5q24 0 37.5 -15t13.5 -37q0 -20 -14 -35.5t-37 -15.5q-198 0 -365.5 -80.5t-287.5 -213.5t-183 -287t-63 -291q0 -139 65.5 -223t180.5 -84q147 0 277.5 83.5t224.5 212t146 266.5t52 242q0 65 -19 109t-56.5 68 t-94.5 24q-89 0 -178.5 -48.5t-154 -122.5t-84.5 -150q-10 -35 -48 -35q-20 0 -36.5 13.5t-16.5 35.5q0 43 41 114.5t112.5 138.5t166 111t204.5 44q68 0 129 -25.5t101.5 -93t40.5 -183.5q0 -130 -58 -287t-165 -299t-256 -231.5t-324 -89.5q-174 0 -262 110.5t-88 289.5z M844 1513q0 20 13.5 36t33.5 16q14 0 24 -4q38 -18 71.5 -42t75 -58t66.5 -52q21 -14 21 -39q0 -49 -41 -49q-21 0 -35 12q-20 14 -67 51.5t-76 57.5t-58 33q-28 12 -28 38z" />
<glyph unicode="&#xd3;" d="M33 324q0 166 71.5 341t203.5 321t319 234.5t405 88.5q24 0 37.5 -15t13.5 -37q0 -20 -14 -35.5t-37 -15.5q-198 0 -365.5 -80.5t-287.5 -213.5t-183 -287t-63 -291q0 -139 65.5 -223t180.5 -84q147 0 277.5 83.5t224.5 212t146 266.5t52 242q0 65 -19 109t-56.5 68 t-94.5 24q-89 0 -178.5 -48.5t-154 -122.5t-84.5 -150q-10 -35 -48 -35q-20 0 -36.5 13.5t-16.5 35.5q0 43 41 114.5t112.5 138.5t166 111t204.5 44q68 0 129 -25.5t101.5 -93t40.5 -183.5q0 -130 -58 -287t-165 -299t-256 -231.5t-324 -89.5q-174 0 -262 110.5t-88 289.5z M897 1395q0 26 23 41q34 22 83 62t79.5 62t80.5 46q12 6 25 6q17 0 29 -12t12 -29q0 -31 -31 -49q-36 -21 -65.5 -41.5t-77 -56.5t-84.5 -62q-14 -14 -31 -14t-30 14.5t-13 32.5z" />
<glyph unicode="&#xd4;" d="M33 324q0 166 71.5 341t203.5 321t319 234.5t405 88.5q24 0 37.5 -15t13.5 -37q0 -20 -14 -35.5t-37 -15.5q-198 0 -365.5 -80.5t-287.5 -213.5t-183 -287t-63 -291q0 -139 65.5 -223t180.5 -84q147 0 277.5 83.5t224.5 212t146 266.5t52 242q0 65 -19 109t-56.5 68 t-94.5 24q-89 0 -178.5 -48.5t-154 -122.5t-84.5 -150q-10 -35 -48 -35q-20 0 -36.5 13.5t-16.5 35.5q0 43 41 114.5t112.5 138.5t166 111t204.5 44q68 0 129 -25.5t101.5 -93t40.5 -183.5q0 -130 -58 -287t-165 -299t-256 -231.5t-324 -89.5q-174 0 -262 110.5t-88 289.5z M700 1395q0 18 17 32q141 118 164 136q38 28 80 28q28 0 51 -18q42 -35 79.5 -72.5t75.5 -95.5q11 -16 11 -29q0 -22 -15.5 -36.5t-34.5 -14.5q-25 0 -38 25q-35 52 -78 95t-58 48q-22 -8 -77.5 -46.5t-94.5 -84.5q-17 -21 -32 -21q-19 0 -34.5 17t-15.5 37z" />
<glyph unicode="&#xd5;" d="M33 324q0 166 71.5 341t203.5 321t319 234.5t405 88.5q24 0 37.5 -15t13.5 -37q0 -20 -14 -35.5t-37 -15.5q-198 0 -365.5 -80.5t-287.5 -213.5t-183 -287t-63 -291q0 -139 65.5 -223t180.5 -84q147 0 277.5 83.5t224.5 212t146 266.5t52 242q0 65 -19 109t-56.5 68 t-94.5 24q-89 0 -178.5 -48.5t-154 -122.5t-84.5 -150q-10 -35 -48 -35q-20 0 -36.5 13.5t-16.5 35.5q0 43 41 114.5t112.5 138.5t166 111t204.5 44q68 0 129 -25.5t101.5 -93t40.5 -183.5q0 -130 -58 -287t-165 -299t-256 -231.5t-324 -89.5q-174 0 -262 110.5t-88 289.5z M647 1415q0 17 17 33q18 19 43.5 47.5t61.5 49t83 20.5q77 0 133 -52q12 -8 40.5 -30.5t47.5 -22.5q48 0 79 15.5t58 50.5q16 18 35 18q20 0 34.5 -14.5t14.5 -34.5q0 -10 -10 -25q-75 -102 -211 -102q-40 0 -66.5 14t-64.5 45q-25 21 -45.5 32t-44.5 11q-14 0 -28.5 -6.5 t-33.5 -22t-33.5 -29.5t-31.5 -30q-11 -14 -31 -14q-17 0 -32 15t-15 32z" />
<glyph unicode="&#xd6;" d="M33 324q0 166 71.5 341t203.5 321t319 234.5t405 88.5q24 0 37.5 -15t13.5 -37q0 -20 -14 -35.5t-37 -15.5q-198 0 -365.5 -80.5t-287.5 -213.5t-183 -287t-63 -291q0 -139 65.5 -223t180.5 -84q147 0 277.5 83.5t224.5 212t146 266.5t52 242q0 65 -19 109t-56.5 68 t-94.5 24q-89 0 -178.5 -48.5t-154 -122.5t-84.5 -150q-10 -35 -48 -35q-20 0 -36.5 13.5t-16.5 35.5q0 43 41 114.5t112.5 138.5t166 111t204.5 44q68 0 129 -25.5t101.5 -93t40.5 -183.5q0 -130 -58 -287t-165 -299t-256 -231.5t-324 -89.5q-174 0 -262 110.5t-88 289.5z M745 1417q0 40 25.5 74.5t63.5 34.5q22 0 49 -16t46 -40t19 -49q0 -29 -46 -52t-87 -23q-70 0 -70 71zM1077 1417q0 40 25.5 74.5t62.5 34.5q23 0 49.5 -15.5t46 -40t19.5 -49.5q0 -30 -44 -52.5t-89 -22.5q-70 0 -70 71z" />
<glyph unicode="&#xd7;" horiz-adv-x="1065" d="M233 428q0 8 7 27q7 10 67 110.5t110.5 163.5t92.5 72q41 -5 80.5 -63.5t71 -133.5t47.5 -127q4 -12 4 -18q0 -20 -13.5 -35.5t-29.5 -15.5q-18 0 -31 22q-11 22 -44 104.5t-52.5 125t-34.5 42.5q-18 0 -96 -132t-107 -167q-13 -16 -31 -16q-14 0 -27.5 12.5t-13.5 28.5z M311 1135q0 20 13.5 35.5t29.5 15.5q19 0 31 -23q11 -22 44 -104.5t52.5 -125t34.5 -42.5q18 0 100 137t103 162q13 16 31 16q16 0 28.5 -11.5t12.5 -29.5q0 -8 -7 -26q-9 -15 -45.5 -77t-75 -119.5t-78 -100t-71.5 -49.5q-58 8 -109 107t-90 216q-4 12 -4 19z" />
<glyph unicode="&#xd8;" d="M-133 -113q0 27 20 41q85 63 158 133q-55 82 -55 203q0 196 81.5 371.5t218.5 309t304 208t332 74.5q24 0 37.5 -17t13.5 -39q0 -40 -39 -43q-265 -26 -457 -159.5t-290.5 -324t-98.5 -380.5q0 -82 29 -133q96 95 183 195.5t199 240t182.5 224t152.5 170.5 q-100 -32 -182.5 -96.5t-112.5 -137.5q-12 -33 -43 -33q-21 0 -38.5 15t-17.5 39q0 12 5 20q38 87 121 159.5t187.5 113.5t213.5 46q74 66 151 119.5t166 100.5q12 6 25 6q20 0 34.5 -16.5t14.5 -36.5q0 -29 -29 -43q-95 -49 -221 -144q133 -42 133 -217 q0 -114 -64.5 -272.5t-184 -311t-285.5 -250.5t-359 -98q-133 0 -233 66q-110 -102 -170 -146q-12 -10 -29 -10q-22 0 -37.5 16.5t-15.5 36.5zM193 57q48 -32 165 -32q132 0 269 79.5t253 209t184.5 272.5t68.5 260q0 59 -25.5 95t-69.5 42q-7 1 -13.5 1.5t-16.5 0.5 q-99 -94 -177 -184.5t-214 -259t-224.5 -272t-199.5 -212.5z" />
<glyph unicode="&#xd9;" horiz-adv-x="1331" d="M51 733q0 93 65.5 234.5t178 244.5t248.5 103q75 0 123 -33.5t70 -90t22 -126.5q0 -76 -36 -181.5t-130 -285.5q-31 -62 -92.5 -174.5t-88 -180t-26.5 -126.5q0 -82 86 -82q93 0 196.5 85.5t205.5 224.5t192 300q77 208 173 402t171 194q61 0 61 -49q0 -40 -33 -104 t-107.5 -183t-94.5 -155q-80 -176 -126 -319t-46 -251q0 -71 21 -124t53 -72q24 -15 32.5 -29.5t8.5 -36.5q0 -16 -14.5 -31.5t-30.5 -15.5q-24 0 -60 33q-49 43 -80.5 117t-31.5 167q0 58 8 107q-73 -104 -153 -186t-171 -129.5t-190 -47.5q-185 0 -185 181q0 69 29 145.5 t62 137.5t108 192q90 154 136 267.5t46 207.5q0 70 -27.5 109.5t-80.5 39.5q-71 0 -139.5 -48t-121 -122t-87.5 -161.5t-41 -161.5q-1 -22 -16 -33.5t-34 -11.5q-21 0 -37 16t-16 43zM811 1509q0 20 13.5 36t33.5 16q14 0 25 -5q54 -25 126 -82.5t87 -68.5q20 -14 20 -39 q0 -49 -41 -49q-19 0 -35 12q-34 25 -79 60.5t-67.5 51.5t-53.5 29q-29 14 -29 39z" />
<glyph unicode="&#xda;" horiz-adv-x="1331" d="M51 733q0 93 65.5 234.5t178 244.5t248.5 103q75 0 123 -33.5t70 -90t22 -126.5q0 -76 -36 -181.5t-130 -285.5q-31 -62 -92.5 -174.5t-88 -180t-26.5 -126.5q0 -82 86 -82q93 0 196.5 85.5t205.5 224.5t192 300q77 208 173 402t171 194q61 0 61 -49q0 -40 -33 -104 t-107.5 -183t-94.5 -155q-80 -176 -126 -319t-46 -251q0 -71 21 -124t53 -72q24 -15 32.5 -29.5t8.5 -36.5q0 -16 -14.5 -31.5t-30.5 -15.5q-24 0 -60 33q-49 43 -80.5 117t-31.5 167q0 58 8 107q-73 -104 -153 -186t-171 -129.5t-190 -47.5q-185 0 -185 181q0 69 29 145.5 t62 137.5t108 192q90 154 136 267.5t46 207.5q0 70 -27.5 109.5t-80.5 39.5q-71 0 -139.5 -48t-121 -122t-87.5 -161.5t-41 -161.5q-1 -22 -16 -33.5t-34 -11.5q-21 0 -37 16t-16 43zM1024 1358q0 27 23 41q27 18 79.5 59.5t85 65t78.5 45.5q12 6 25 6q18 0 29.5 -11.5 t11.5 -31.5q0 -29 -31 -47q-37 -20 -106.5 -72t-120.5 -90q-15 -14 -31 -14q-17 0 -30 14.5t-13 34.5z" />
<glyph unicode="&#xdb;" horiz-adv-x="1331" d="M51 733q0 93 65.5 234.5t178 244.5t248.5 103q75 0 123 -33.5t70 -90t22 -126.5q0 -76 -36 -181.5t-130 -285.5q-31 -62 -92.5 -174.5t-88 -180t-26.5 -126.5q0 -82 86 -82q93 0 196.5 85.5t205.5 224.5t192 300q77 208 173 402t171 194q61 0 61 -49q0 -40 -33 -104 t-107.5 -183t-94.5 -155q-80 -176 -126 -319t-46 -251q0 -71 21 -124t53 -72q24 -15 32.5 -29.5t8.5 -36.5q0 -16 -14.5 -31.5t-30.5 -15.5q-24 0 -60 33q-49 43 -80.5 117t-31.5 167q0 58 8 107q-73 -104 -153 -186t-171 -129.5t-190 -47.5q-185 0 -185 181q0 69 29 145.5 t62 137.5t108 192q90 154 136 267.5t46 207.5q0 70 -27.5 109.5t-80.5 39.5q-71 0 -139.5 -48t-121 -122t-87.5 -161.5t-41 -161.5q-1 -22 -16 -33.5t-34 -11.5q-21 0 -37 16t-16 43zM844 1395q0 19 16 32q20 17 68.5 57t95.5 79q40 28 80 28q30 0 51 -18q42 -35 79.5 -72.5 t76.5 -95.5q10 -17 10 -29q0 -22 -15.5 -36.5t-33.5 -14.5q-26 0 -39 25q-33 51 -76 94t-59 49q-24 -9 -78 -46t-94 -85q-19 -21 -33 -21q-19 0 -34 17.5t-15 36.5z" />
<glyph unicode="&#xdc;" horiz-adv-x="1331" d="M51 733q0 93 65.5 234.5t178 244.5t248.5 103q75 0 123 -33.5t70 -90t22 -126.5q0 -76 -36 -181.5t-130 -285.5q-31 -62 -92.5 -174.5t-88 -180t-26.5 -126.5q0 -82 86 -82q93 0 196.5 85.5t205.5 224.5t192 300q77 208 173 402t171 194q61 0 61 -49q0 -40 -33 -104 t-107.5 -183t-94.5 -155q-80 -176 -126 -319t-46 -251q0 -71 21 -124t53 -72q24 -15 32.5 -29.5t8.5 -36.5q0 -16 -14.5 -31.5t-30.5 -15.5q-24 0 -60 33q-49 43 -80.5 117t-31.5 167q0 58 8 107q-73 -104 -153 -186t-171 -129.5t-190 -47.5q-185 0 -185 181q0 69 29 145.5 t62 137.5t108 192q90 154 136 267.5t46 207.5q0 70 -27.5 109.5t-80.5 39.5q-71 0 -139.5 -48t-121 -122t-87.5 -161.5t-41 -161.5q-1 -22 -16 -33.5t-34 -11.5q-21 0 -37 16t-16 43zM795 1417q0 40 24.5 74.5t63.5 34.5q22 0 49 -16t46 -40t19 -49q0 -29 -46 -52t-87 -23 q-35 0 -52 20t-17 51zM1126 1417q0 40 25.5 74.5t62.5 34.5t76 -34t39 -71q0 -30 -44 -52.5t-89 -22.5q-70 0 -70 71z" />
<glyph unicode="&#xdf;" horiz-adv-x="1022" d="M-375 -528q0 89 81 204t298 291q9 28 17.5 56t27.5 85.5t57 174.5q-26 -28 -41 -44.5t-30 -33.5q-17 -17 -35 -17q-19 0 -35 17t-16 37q0 17 12 32q47 52 112 128t134 163q28 91 78 248.5t99.5 264.5t112.5 175t140 68q33 0 49 -33.5t16 -85.5q0 -202 -403 -688 q-100 -272 -152 -432q111 91 179 153.5t119 118.5t97 121.5t76 122.5q-8 12 -16.5 24t-14 24t-5.5 26q0 32 24.5 51.5t63.5 19.5q28 0 48.5 -18t20.5 -51q0 -37 -12 -72q86 -186 86 -383q0 -46 -6 -90q98 59 178 143q13 17 35 17q23 0 38 -15t15 -36t-14 -35 q-95 -101 -233.5 -182.5t-303.5 -81.5q-97 0 -125 12.5t-28 54.5q0 51 65 51q33 0 84.5 -5t67.5 -5q53 0 100 21q23 23 23 143q0 137 -39 268q-43 -72 -93.5 -134.5t-115 -127t-161 -146t-210.5 -167.5q-86 -280 -122.5 -383.5t-84 -162t-123.5 -58.5q-135 0 -135 172z M-268 -535q0 -53 49 -53q21 0 43.5 37.5t48.5 109.5t74 224q-96 -83 -155.5 -159.5t-59.5 -158.5zM391 807q48 62 104 153.5t88.5 159.5t32.5 94q0 15 -10 15q-20 0 -91 -137.5t-124 -284.5z" />
<glyph unicode="&#xe0;" horiz-adv-x="840" d="M-49 139q0 98 40.5 203.5t125 197t223.5 148.5t324 57q32 0 47.5 -15t15.5 -38q0 -51 -74 -51q-172 0 -293 -57t-187.5 -140t-95 -167t-28.5 -142q0 -46 22 -72t58 -26q62 0 138 71.5t145.5 172t115.5 186.5q28 48 38.5 59t35.5 11q45 0 45 -48q0 -34 -31 -94 q-3 -7 -49 -87t-75 -139t-29 -87q0 -33 20 -33q43 0 146.5 77t165.5 144q20 21 49 21q20 0 32.5 -15.5t12.5 -37.5t-23 -48q-90 -96 -201 -170.5t-208 -74.5q-39 0 -68 30.5t-29 69.5q-122 -111 -241 -111q-168 0 -168 205zM283 1087q0 22 15 40t36 18q10 0 28 -6 q42 -20 73 -42t79.5 -61.5t83.5 -64.5q23 -19 23 -45q0 -24 -12.5 -39t-33.5 -15q-17 0 -38 15q-38 28 -107.5 82.5t-116.5 74.5q-30 13 -30 43z" />
<glyph unicode="&#xe1;" horiz-adv-x="840" d="M-49 139q0 98 40.5 203.5t125 197t223.5 148.5t324 57q32 0 47.5 -15t15.5 -38q0 -51 -74 -51q-172 0 -293 -57t-187.5 -140t-95 -167t-28.5 -142q0 -46 22 -72t58 -26q62 0 138 71.5t145.5 172t115.5 186.5q28 48 38.5 59t35.5 11q45 0 45 -48q0 -34 -31 -94 q-3 -7 -49 -87t-75 -139t-29 -87q0 -33 20 -33q43 0 146.5 77t165.5 144q20 21 49 21q20 0 32.5 -15.5t12.5 -37.5t-23 -48q-90 -96 -201 -170.5t-208 -74.5q-39 0 -68 30.5t-29 69.5q-122 -111 -241 -111q-168 0 -168 205zM539 928q0 26 22 41q31 21 71.5 53t57.5 45.5 t47 33.5t68 38q16 4 20 4q23 0 37.5 -17t14.5 -39q0 -28 -31 -45q-33 -14 -64 -35.5t-73.5 -56t-90.5 -69.5q-13 -9 -26 -9q-22 0 -37.5 17.5t-15.5 38.5z" />
<glyph unicode="&#xe2;" horiz-adv-x="840" d="M-49 139q0 98 40.5 203.5t125 197t223.5 148.5t324 57q32 0 47.5 -15t15.5 -38q0 -51 -74 -51q-172 0 -293 -57t-187.5 -140t-95 -167t-28.5 -142q0 -46 22 -72t58 -26q62 0 138 71.5t145.5 172t115.5 186.5q28 48 38.5 59t35.5 11q45 0 45 -48q0 -34 -31 -94 q-3 -7 -49 -87t-75 -139t-29 -87q0 -33 20 -33q43 0 146.5 77t165.5 144q20 21 49 21q20 0 32.5 -15.5t12.5 -37.5t-23 -48q-90 -96 -201 -170.5t-208 -74.5q-39 0 -68 30.5t-29 69.5q-122 -111 -241 -111q-168 0 -168 205zM287 840q0 19 16 32q29 24 61.5 57t67.5 67.5 t53 47.5q39 29 80 29q30 0 51 -18q102 -84 156 -168q10 -17 10 -29q0 -22 -14.5 -35.5t-34.5 -13.5q-24 0 -39 22q-34 52 -76 96t-59 50q-23 -9 -82 -56.5t-108 -113.5q-17 -19 -33 -19q-19 0 -34 17t-15 35z" />
<glyph unicode="&#xe3;" horiz-adv-x="840" d="M-49 139q0 98 40.5 203.5t125 197t223.5 148.5t324 57q32 0 47.5 -15t15.5 -38q0 -51 -74 -51q-172 0 -293 -57t-187.5 -140t-95 -167t-28.5 -142q0 -46 22 -72t58 -26q62 0 138 71.5t145.5 172t115.5 186.5q28 48 38.5 59t35.5 11q45 0 45 -48q0 -34 -31 -94 q-3 -7 -49 -87t-75 -139t-29 -87q0 -33 20 -33q43 0 146.5 77t165.5 144q20 21 49 21q20 0 32.5 -15.5t12.5 -37.5t-23 -48q-90 -96 -201 -170.5t-208 -74.5q-39 0 -68 30.5t-29 69.5q-122 -111 -241 -111q-168 0 -168 205zM231 858q0 20 17 37q21 23 50 54t68 53t91 22 q87 0 149 -53q23 -19 38.5 -32.5t30 -21.5t27.5 -8q54 0 89 18t65 56q15 21 39 21q21 0 37 -16t16 -38q0 -10 -10 -30q-40 -54 -101.5 -83.5t-134.5 -29.5q-44 0 -73 16t-72 49q-60 48 -100 48q-29 0 -56 -22t-84 -77q-14 -14 -34 -14q-19 0 -35.5 15.5t-16.5 35.5z" />
<glyph unicode="&#xe4;" horiz-adv-x="840" d="M-49 139q0 98 40.5 203.5t125 197t223.5 148.5t324 57q32 0 47.5 -15t15.5 -38q0 -51 -74 -51q-172 0 -293 -57t-187.5 -140t-95 -167t-28.5 -142q0 -46 22 -72t58 -26q62 0 138 71.5t145.5 172t115.5 186.5q28 48 38.5 59t35.5 11q45 0 45 -48q0 -34 -31 -94 q-3 -7 -49 -87t-75 -139t-29 -87q0 -33 20 -33q43 0 146.5 77t165.5 144q20 21 49 21q20 0 32.5 -15.5t12.5 -37.5t-23 -48q-90 -96 -201 -170.5t-208 -74.5q-39 0 -68 30.5t-29 69.5q-122 -111 -241 -111q-168 0 -168 205zM291 950q0 40 25.5 74.5t62.5 34.5 q22 0 48.5 -15.5t46.5 -40t20 -49.5q0 -32 -45 -54.5t-89 -22.5q-35 0 -52 20t-17 53zM623 950q0 40 24.5 74.5t63.5 34.5q36 0 75 -34t39 -71q0 -33 -43.5 -55t-89.5 -22q-35 0 -52 20t-17 53z" />
<glyph unicode="&#xe5;" horiz-adv-x="840" d="M-49 139q0 98 40.5 203.5t125 197t223.5 148.5t324 57q32 0 47.5 -15t15.5 -38q0 -51 -74 -51q-172 0 -293 -57t-187.5 -140t-95 -167t-28.5 -142q0 -46 22 -72t58 -26q62 0 138 71.5t145.5 172t115.5 186.5q28 48 38.5 59t35.5 11q45 0 45 -48q0 -34 -31 -94 q-3 -7 -49 -87t-75 -139t-29 -87q0 -33 20 -33q43 0 146.5 77t165.5 144q20 21 49 21q20 0 32.5 -15.5t12.5 -37.5t-23 -48q-90 -96 -201 -170.5t-208 -74.5q-39 0 -68 30.5t-29 69.5q-122 -111 -241 -111q-168 0 -168 205zM352 948q0 30 16.5 68t51.5 64t86 26 q40 0 75.5 -22.5t56.5 -58t21 -75.5q0 -87 -94 -141q-6 -4 -14 -4q-17 0 -27 12.5t-10 26.5q0 17 18 26q58 27 58 76q0 38 -24 65t-64 27q-32 0 -56 -27t-24 -67q0 -39 18 -39q9 0 21 6q18 0 29.5 -13.5t11.5 -27.5q0 -9 -15 -18.5t-32 -9.5q-56 0 -79.5 26.5t-23.5 79.5z " />
<glyph unicode="&#xe6;" horiz-adv-x="1106" d="M-49 131q0 87 35.5 190.5t113 201t204 160t300.5 62.5q25 0 38 -15.5t13 -37.5q0 -21 -13 -36t-38 -15q-159 0 -266.5 -55.5t-170 -140.5t-87.5 -166.5t-25 -143.5q0 -98 68 -98q94 0 175.5 72t158.5 227q20 76 66 162t117 148.5t159 62.5q63 0 105 -32.5t42 -84.5 q0 -57 -49 -115t-122.5 -110.5t-144 -93t-81.5 -48.5q0 -81 34.5 -134.5t92.5 -53.5q76 0 158.5 44t147.5 100.5t93 94.5q14 21 39 21q21 0 37 -15t16 -36q0 -18 -10 -31q-39 -51 -109 -115t-169 -115t-203 -51q-89 0 -146 56t-77 141q-58 -80 -150.5 -138.5t-175.5 -58.5 q-92 0 -134 55t-42 142zM573 365q88 44 173 101.5t85 119.5q0 13 -7.5 19.5t-22.5 6.5q-47 0 -120.5 -73.5t-107.5 -173.5z" />
<glyph unicode="&#xe7;" horiz-adv-x="666" d="M-41 219q0 79 37 169.5t98 167t137 124t152 47.5q82 0 136 -48t54 -116q0 -88 -57 -88q-51 0 -51 35q0 11 4 27t4 20q0 24 -22.5 46t-61.5 22q-64 0 -142.5 -62.5t-132 -158t-53.5 -189.5q0 -77 44.5 -125.5t119.5 -48.5q113 0 203.5 61t185.5 158q31 31 52 31 q19 0 35 -17t16 -36t-21 -41q-92 -94 -171.5 -155.5t-188.5 -88.5q-2 -134 -47.5 -191t-167.5 -57q-35 0 -55 4t-29.5 15.5t-9.5 33.5q0 26 15.5 33.5t63.5 9.5q60 2 79 7.5t32 35.5q9 25 16 95q-114 0 -194 62.5t-80 217.5z" />
<glyph unicode="&#xe8;" horiz-adv-x="625" d="M-51 219q0 123 56.5 237t144.5 183.5t174 69.5q54 0 89.5 -32.5t35.5 -88.5q0 -59 -36 -110t-91.5 -91.5t-99 -63t-163.5 -79.5q-4 -26 -4 -31q0 -79 32.5 -128.5t94.5 -49.5q85 0 158.5 38t121 82t113.5 113q23 23 48 23q18 0 32.5 -16.5t14.5 -36.5q0 -18 -29 -52 q-24 -23 -71.5 -69t-106 -87.5t-131.5 -68.5t-152 -27q-107 0 -169 75t-62 210zM78 362q63 27 126 65t101.5 77.5t38.5 73.5q0 18 -8 23t-27 5q-48 0 -119.5 -66t-111.5 -178zM115 1087q0 22 15 40t36 18q9 0 29 -6q39 -19 68 -39t80.5 -62t86.5 -67q23 -19 23 -45 q0 -24 -12.5 -39t-32.5 -15q-18 0 -39 15q-38 28 -107.5 82.5t-116.5 74.5q-30 13 -30 43z" />
<glyph unicode="&#xe9;" horiz-adv-x="625" d="M-51 219q0 123 56.5 237t144.5 183.5t174 69.5q54 0 89.5 -32.5t35.5 -88.5q0 -59 -36 -110t-91.5 -91.5t-99 -63t-163.5 -79.5q-4 -26 -4 -31q0 -79 32.5 -128.5t94.5 -49.5q85 0 158.5 38t121 82t113.5 113q23 23 48 23q18 0 32.5 -16.5t14.5 -36.5q0 -18 -29 -52 q-24 -23 -71.5 -69t-106 -87.5t-131.5 -68.5t-152 -27q-107 0 -169 75t-62 210zM78 362q63 27 126 65t101.5 77.5t38.5 73.5q0 18 -8 23t-27 5q-48 0 -119.5 -66t-111.5 -178zM268 928q0 26 23 41q31 21 71.5 53t57.5 45.5t47 33.5t68 38q16 4 20 4q22 0 36.5 -17t14.5 -39 q0 -29 -31 -45q-31 -13 -64.5 -36.5t-74 -56.5t-88.5 -68q-13 -9 -26 -9q-21 0 -37.5 17.5t-16.5 38.5z" />
<glyph unicode="&#xea;" horiz-adv-x="625" d="M-51 219q0 123 56.5 237t144.5 183.5t174 69.5q54 0 89.5 -32.5t35.5 -88.5q0 -59 -36 -110t-91.5 -91.5t-99 -63t-163.5 -79.5q-4 -26 -4 -31q0 -79 32.5 -128.5t94.5 -49.5q85 0 158.5 38t121 82t113.5 113q23 23 48 23q18 0 32.5 -16.5t14.5 -36.5q0 -18 -29 -52 q-24 -23 -71.5 -69t-106 -87.5t-131.5 -68.5t-152 -27q-107 0 -169 75t-62 210zM78 362q63 27 126 65t101.5 77.5t38.5 73.5q0 18 -8 23t-27 5q-48 0 -119.5 -66t-111.5 -178zM123 840q0 19 16 32q26 21 53.5 56t52.5 67.5t46 48.5q38 29 80 29q30 0 51 -18 q100 -83 156 -168q10 -17 10 -29q0 -22 -15 -35.5t-34 -13.5q-25 0 -39 22q-36 53 -78 96.5t-57 49.5q-17 -6 -64 -55t-96 -115q-16 -19 -33 -19q-19 0 -34 17t-15 35z" />
<glyph unicode="&#xeb;" horiz-adv-x="625" d="M-51 219q0 123 56.5 237t144.5 183.5t174 69.5q54 0 89.5 -32.5t35.5 -88.5q0 -59 -36 -110t-91.5 -91.5t-99 -63t-163.5 -79.5q-4 -26 -4 -31q0 -79 32.5 -128.5t94.5 -49.5q85 0 158.5 38t121 82t113.5 113q23 23 48 23q18 0 32.5 -16.5t14.5 -36.5q0 -18 -29 -52 q-24 -23 -71.5 -69t-106 -87.5t-131.5 -68.5t-152 -27q-107 0 -169 75t-62 210zM78 362q63 27 126 65t101.5 77.5t38.5 73.5q0 18 -8 23t-27 5q-48 0 -119.5 -66t-111.5 -178zM131 950q0 40 25.5 74.5t62.5 34.5q22 0 48.5 -15.5t46.5 -40t20 -49.5q0 -32 -45 -54.5 t-88 -22.5q-70 0 -70 73zM463 950q0 40 25.5 74.5t62.5 34.5q23 0 49.5 -15.5t46 -40t19.5 -49.5q0 -33 -43.5 -55t-90.5 -22q-35 0 -52 20t-17 53z" />
<glyph unicode="&#xec;" horiz-adv-x="459" d="M-57 236q0 26 22 43q37 25 79 83.5t93 143t68 108.5q35 52 71 52q17 0 33.5 -14.5t16.5 -37.5q0 -13 -17 -49q-60 -114 -101.5 -200t-80.5 -185q-31 -84 -31 -104q0 -27 25 -27q33 0 139.5 80.5t161.5 144.5q15 19 37 19q21 0 36 -16t15 -37t-14 -35q-46 -48 -111 -106 t-141.5 -103t-139.5 -45q-57 0 -83.5 27t-26.5 79q0 74 29 140q-32 -9 -33 -9q-18 0 -32.5 15.5t-14.5 32.5zM70 1087q0 22 15 40t36 18q9 0 29 -6q39 -19 68 -39t80.5 -62t86.5 -67q23 -19 23 -45q0 -24 -12.5 -39t-33.5 -15q-17 0 -38 15q-38 28 -107.5 82.5t-116.5 74.5 q-30 13 -30 43z" />
<glyph unicode="&#xed;" horiz-adv-x="459" d="M-57 236q0 26 22 43q37 25 79 83.5t93 143t68 108.5q35 52 71 52q17 0 33.5 -14.5t16.5 -37.5q0 -13 -17 -49q-60 -114 -101.5 -200t-80.5 -185q-31 -84 -31 -104q0 -27 25 -27q33 0 139.5 80.5t161.5 144.5q15 19 37 19q21 0 36 -16t15 -37t-14 -35q-46 -48 -111 -106 t-141.5 -103t-139.5 -45q-57 0 -83.5 27t-26.5 79q0 74 29 140q-32 -9 -33 -9q-18 0 -32.5 15.5t-14.5 32.5zM281 928q0 26 22 41q31 21 71.5 53t57.5 45.5t47 33.5t68 38q16 4 20 4q22 0 36.5 -17t14.5 -39q0 -28 -30 -45q-33 -14 -64 -35.5t-73.5 -56t-90.5 -69.5 q-13 -9 -26 -9q-22 0 -37.5 17.5t-15.5 38.5z" />
<glyph unicode="&#xee;" horiz-adv-x="459" d="M-57 236q0 26 22 43q37 25 79 83.5t93 143t68 108.5q35 52 71 52q17 0 33.5 -14.5t16.5 -37.5q0 -13 -17 -49q-60 -114 -101.5 -200t-80.5 -185q-31 -84 -31 -104q0 -27 25 -27q33 0 139.5 80.5t161.5 144.5q15 19 37 19q21 0 36 -16t15 -37t-14 -35q-46 -48 -111 -106 t-141.5 -103t-139.5 -45q-57 0 -83.5 27t-26.5 79q0 74 29 140q-32 -9 -33 -9q-18 0 -32.5 15.5t-14.5 32.5zM47 840q0 19 16 32q20 17 56.5 48.5t56 48t47.5 39.5t45 36q39 29 80 29q30 0 51 -18q102 -84 156 -168q10 -17 10 -29q0 -22 -14.5 -35.5t-34.5 -13.5 q-25 0 -39 22q-34 52 -76 96t-59 50q-15 -6 -51.5 -28t-83 -61t-78.5 -81q-16 -19 -33 -19t-33 17t-16 35z" />
<glyph unicode="&#xef;" horiz-adv-x="459" d="M-57 236q0 26 22 43q37 25 79 83.5t93 143t68 108.5q35 52 71 52q17 0 33.5 -14.5t16.5 -37.5q0 -13 -17 -49q-60 -114 -101.5 -200t-80.5 -185q-31 -84 -31 -104q0 -27 25 -27q33 0 139.5 80.5t161.5 144.5q15 19 37 19q21 0 36 -16t15 -37t-14 -35q-46 -48 -111 -106 t-141.5 -103t-139.5 -45q-57 0 -83.5 27t-26.5 79q0 74 29 140q-32 -9 -33 -9q-18 0 -32.5 15.5t-14.5 32.5zM111 950q0 40 24.5 74.5t63.5 34.5q22 0 49 -16t46 -40t19 -49q0 -32 -45 -54.5t-88 -22.5q-35 0 -52 20t-17 53zM442 950q0 40 25.5 74.5t62.5 34.5 q23 0 49.5 -15.5t46 -40t19.5 -49.5q0 -33 -43.5 -55t-89.5 -22q-70 0 -70 73z" />
<glyph unicode="&#xf1;" horiz-adv-x="942" d="M-51 238q0 22 14 36q135 142 190.5 205.5t94.5 138.5q10 22 20.5 27.5t32.5 5.5t31.5 -5.5t9.5 -27.5q0 -35 -45 -229q61 70 146.5 137.5t158.5 107.5t105 40q84 0 84 -109q0 -62 -56.5 -224t-118.5 -292q37 0 144 85.5t147 137.5q16 19 33 19q21 0 35 -16t14 -37 q0 -25 -20 -45q-237 -244 -367 -244q-40 0 -64 17t-24 48q0 25 12 54q59 137 111.5 294.5t52.5 208.5q-129 -71 -224.5 -150.5t-177 -188t-157.5 -255.5q-78 0 -78 60q0 12 21 78q60 146 82 219q-48 -61 -119 -129q-17 -17 -35 -17q-21 0 -37 15t-16 35zM244 858q0 21 16 37 q21 23 50 54t68 53t91 22q88 0 149 -53q23 -19 38.5 -32.5t30 -21.5t28.5 -8q52 0 87.5 18t65.5 56q16 21 39 21q21 0 37.5 -16.5t16.5 -37.5q0 -8 -11 -30q-40 -54 -101.5 -83.5t-133.5 -29.5q-45 0 -74 16t-72 49q-60 48 -100 48q-15 0 -33.5 -9t-34 -22t-31 -28 t-40.5 -40q-15 -14 -35 -14q-19 0 -35 16t-16 35z" />
<glyph unicode="&#xf2;" horiz-adv-x="754" d="M-47 217q0 100 48.5 214t146.5 191.5t233 77.5q69 0 131 -20q35 -11 35 -45q0 -26 -17 -41q26 0 62.5 -13t64 -49t27.5 -102q0 -36 -16.5 -93.5t-38.5 -88.5h8q54 0 74 18q16 23 43 23q20 0 36.5 -14t16.5 -33q0 -12 -10 -29q-24 -32 -66.5 -51t-93.5 -19q-34 0 -70 11 q-150 -215 -358 -215q-126 0 -191 79t-65 199zM55 223q0 -79 42 -130.5t112 -51.5q140 0 264 160q-44 33 -82.5 90t-38.5 123q0 57 33.5 106.5t83.5 65.5q-40 12 -90 12q-76 0 -136 -34.5t-102.5 -91.5t-64 -122t-21.5 -127zM201 1087q0 22 15 40t36 18q9 0 29 -6 q39 -19 68 -39t80.5 -62t86.5 -67q23 -19 23 -45q0 -24 -12.5 -39t-32.5 -15q-18 0 -39 15q-38 28 -107.5 82.5t-116.5 74.5q-30 13 -30 43zM455 424q0 -32 18 -72t57 -69q52 77 52 147q0 33 -11 46t-47 13q-32 0 -50.5 -17.5t-18.5 -47.5z" />
<glyph unicode="&#xf3;" horiz-adv-x="754" d="M-47 217q0 100 48.5 214t146.5 191.5t233 77.5q69 0 131 -20q35 -11 35 -45q0 -26 -17 -41q26 0 62.5 -13t64 -49t27.5 -102q0 -36 -16.5 -93.5t-38.5 -88.5h8q54 0 74 18q16 23 43 23q20 0 36.5 -14t16.5 -33q0 -12 -10 -29q-24 -32 -66.5 -51t-93.5 -19q-34 0 -70 11 q-150 -215 -358 -215q-126 0 -191 79t-65 199zM55 223q0 -79 42 -130.5t112 -51.5q140 0 264 160q-44 33 -82.5 90t-38.5 123q0 57 33.5 106.5t83.5 65.5q-40 12 -90 12q-76 0 -136 -34.5t-102.5 -91.5t-64 -122t-21.5 -127zM455 424q0 -32 18 -72t57 -69q52 77 52 147 q0 33 -11 46t-47 13q-32 0 -50.5 -17.5t-18.5 -47.5zM469 928q0 26 23 41q27 18 79.5 59.5t85 65t78.5 45.5q16 4 21 4q22 0 36.5 -17t14.5 -39q0 -29 -31 -45q-35 -15 -66.5 -37.5t-72 -55.5t-88.5 -68q-13 -9 -27 -9q-20 0 -36.5 17.5t-16.5 38.5z" />
<glyph unicode="&#xf4;" horiz-adv-x="754" d="M-47 217q0 100 48.5 214t146.5 191.5t233 77.5q69 0 131 -20q35 -11 35 -45q0 -26 -17 -41q26 0 62.5 -13t64 -49t27.5 -102q0 -36 -16.5 -93.5t-38.5 -88.5h8q54 0 74 18q16 23 43 23q20 0 36.5 -14t16.5 -33q0 -12 -10 -29q-24 -32 -66.5 -51t-93.5 -19q-34 0 -70 11 q-150 -215 -358 -215q-126 0 -191 79t-65 199zM55 223q0 -79 42 -130.5t112 -51.5q140 0 264 160q-44 33 -82.5 90t-38.5 123q0 57 33.5 106.5t83.5 65.5q-40 12 -90 12q-76 0 -136 -34.5t-102.5 -91.5t-64 -122t-21.5 -127zM172 840q0 19 16 32q34 28 95 89t90 83 q38 29 80 29q28 0 51 -18q36 -28 75.5 -66.5t79.5 -101.5q11 -16 11 -29q0 -22 -15 -35.5t-34 -13.5q-25 0 -39 22q-36 53 -78 97t-58 49q-23 -9 -83.5 -56.5t-108.5 -113.5q-16 -19 -33 -19t-33 17t-16 35zM455 424q0 -32 18 -72t57 -69q52 77 52 147q0 33 -11 46t-47 13 q-32 0 -50.5 -17.5t-18.5 -47.5z" />
<glyph unicode="&#xf5;" horiz-adv-x="754" d="M-47 217q0 100 48.5 214t146.5 191.5t233 77.5q69 0 131 -20q35 -11 35 -45q0 -26 -17 -41q26 0 62.5 -13t64 -49t27.5 -102q0 -36 -16.5 -93.5t-38.5 -88.5h8q54 0 74 18q16 23 43 23q20 0 36.5 -14t16.5 -33q0 -12 -10 -29q-24 -32 -66.5 -51t-93.5 -19q-34 0 -70 11 q-150 -215 -358 -215q-126 0 -191 79t-65 199zM55 223q0 -79 42 -130.5t112 -51.5q140 0 264 160q-44 33 -82.5 90t-38.5 123q0 57 33.5 106.5t83.5 65.5q-40 12 -90 12q-76 0 -136 -34.5t-102.5 -91.5t-64 -122t-21.5 -127zM92 858q0 21 17 37q24 27 38 43t40.5 37.5t59 35 t70.5 13.5q88 0 150 -53q23 -19 39.5 -33t29.5 -21.5t27 -7.5q54 0 89 18t65 56q15 21 39 21q20 0 36.5 -16.5t16.5 -37.5q0 -10 -10 -30q-41 -55 -102.5 -84t-133.5 -29q-44 0 -73 16t-72 49q-60 48 -101 48q-15 0 -33.5 -9t-34 -22t-31 -28t-40.5 -40q-14 -14 -35 -14 q-20 0 -35.5 15.5t-15.5 35.5zM455 424q0 -32 18 -72t57 -69q52 77 52 147q0 33 -11 46t-47 13q-32 0 -50.5 -17.5t-18.5 -47.5z" />
<glyph unicode="&#xf6;" horiz-adv-x="754" d="M-47 217q0 100 48.5 214t146.5 191.5t233 77.5q69 0 131 -20q35 -11 35 -45q0 -26 -17 -41q26 0 62.5 -13t64 -49t27.5 -102q0 -36 -16.5 -93.5t-38.5 -88.5h8q54 0 74 18q16 23 43 23q20 0 36.5 -14t16.5 -33q0 -12 -10 -29q-24 -32 -66.5 -51t-93.5 -19q-34 0 -70 11 q-150 -215 -358 -215q-126 0 -191 79t-65 199zM55 223q0 -79 42 -130.5t112 -51.5q140 0 264 160q-44 33 -82.5 90t-38.5 123q0 57 33.5 106.5t83.5 65.5q-40 12 -90 12q-76 0 -136 -34.5t-102.5 -91.5t-64 -122t-21.5 -127zM242 950q0 40 24.5 74.5t63.5 34.5q22 0 49 -16 t46 -40t19 -49q0 -32 -45 -54.5t-88 -22.5q-35 0 -52 20t-17 53zM455 424q0 -32 18 -72t57 -69q52 77 52 147q0 33 -11 46t-47 13q-32 0 -50.5 -17.5t-18.5 -47.5zM573 950q0 40 25.5 74.5t63.5 34.5q36 0 75 -34t39 -71q0 -33 -43.5 -55t-89.5 -22q-70 0 -70 73z" />
<glyph unicode="&#xf7;" horiz-adv-x="817" d="M117 709q0 26 26 26h529q12 0 18 -7.5t6 -18.5q0 -31 -24 -31h-529q-26 0 -26 31zM297 289q0 41 29 79t67 38q51 0 99 -70q-6 -8 -7 -10q15 -15 15 -35q0 -24 -42.5 -47t-92.5 -23q-34 0 -51 19.5t-17 48.5zM305 1038q0 41 29 79t67 38q52 0 99 -70q-1 -2 -2.5 -4 t-3.5 -6q14 -14 14 -35q0 -23 -42.5 -46t-92.5 -23q-68 0 -68 67z" />
<glyph unicode="&#xf8;" horiz-adv-x="754" d="M-193 -111q0 29 25 43q88 49 164 119q-43 70 -43 170q0 66 22 145.5t72.5 156.5t133 127t200.5 50q57 0 107 -14t57 -43q88 69 190 119q8 4 23 4q21 0 36 -18t15 -39q0 -32 -29 -43q-90 -41 -164 -99q68 -44 68 -137q0 -78 -47 -170h10q47 0 62 10q28 23 45 23 q22 0 38.5 -13.5t16.5 -31.5q0 -14 -10 -27q-20 -26 -65.5 -44.5t-98.5 -18.5q-28 0 -60 6q-70 -103 -160 -164t-206 -61q-81 0 -143 41q-83 -79 -177 -134q-19 -12 -30 -12q-21 0 -36.5 17.5t-15.5 37.5zM55 219q0 -50 17 -92q20 22 77 89t108.5 130.5t96.5 114.5 q6 44 41 79.5t80 43.5q-51 14 -96 14q-98 0 -172 -57.5t-113 -145t-39 -176.5zM143 51q28 -10 66 -10q148 0 270 166q-72 46 -106 119q-36 -43 -73.5 -89t-80.5 -97.5t-76 -88.5zM451 414q14 -79 84 -125q45 77 45 135q0 54 -43 76q-28 -28 -51.5 -51t-34.5 -35z" />
<glyph unicode="&#xf9;" horiz-adv-x="1014" d="M-55 244q0 20 20 39q70 61 176 184.5t144 187.5q5 9 18 9q17 0 32 -11t15 -26q0 -5 -4 -13q-22 -43 -64 -130.5t-71 -152t-53 -124.5q-35 -84 -35 -127q0 -33 22 -33q130 0 290 157.5t317 424.5q8 16 30 16q21 0 37.5 -12.5t16.5 -30.5q0 -10 -5 -16q-41 -75 -77 -141 t-64 -122.5t-49 -113.5q-20 -58 -20 -103q0 -69 49 -69q35 0 98.5 45.5t124 103t84.5 90.5q16 23 37 23q17 0 29 -13t12 -32q0 -18 -13 -35q-26 -37 -72.5 -84t-99.5 -88t-115 -69.5t-116 -28.5q-55 0 -84 37t-29 102q0 50 23 121q-68 -74 -123.5 -120.5t-110.5 -77 t-102.5 -43.5t-89.5 -13q-90 0 -90 102q0 91 65 222q-30 -32 -73 -68q-16 -12 -33 -12q-19 0 -33 13t-14 32zM295 1087q0 22 15 40t36 18q9 0 29 -6q39 -19 68 -39t80.5 -62t86.5 -67q23 -18 23 -45q0 -24 -12.5 -39t-32.5 -15q-18 0 -39 15q-43 31 -85 65t-74.5 56.5 t-63.5 35.5t-31 43z" />
<glyph unicode="&#xfa;" horiz-adv-x="1014" d="M-55 244q0 20 20 39q70 61 176 184.5t144 187.5q5 9 18 9q17 0 32 -11t15 -26q0 -5 -4 -13q-22 -43 -64 -130.5t-71 -152t-53 -124.5q-35 -84 -35 -127q0 -33 22 -33q130 0 290 157.5t317 424.5q8 16 30 16q21 0 37.5 -12.5t16.5 -30.5q0 -10 -5 -16q-41 -75 -77 -141 t-64 -122.5t-49 -113.5q-20 -58 -20 -103q0 -69 49 -69q35 0 98.5 45.5t124 103t84.5 90.5q16 23 37 23q17 0 29 -13t12 -32q0 -18 -13 -35q-26 -37 -72.5 -84t-99.5 -88t-115 -69.5t-116 -28.5q-55 0 -84 37t-29 102q0 50 23 121q-68 -74 -123.5 -120.5t-110.5 -77 t-102.5 -43.5t-89.5 -13q-90 0 -90 102q0 91 65 222q-30 -32 -73 -68q-16 -12 -33 -12q-19 0 -33 13t-14 32zM604 928q0 26 23 41q27 18 79.5 59.5t85 65t78.5 45.5q18 4 21 4q22 0 36.5 -17t14.5 -39q0 -29 -31 -45q-31 -13 -64.5 -36.5t-74 -56.5t-88.5 -68q-13 -9 -27 -9 q-20 0 -36.5 17.5t-16.5 38.5z" />
<glyph unicode="&#xfb;" horiz-adv-x="1014" d="M-55 244q0 20 20 39q70 61 176 184.5t144 187.5q5 9 18 9q17 0 32 -11t15 -26q0 -5 -4 -13q-22 -43 -64 -130.5t-71 -152t-53 -124.5q-35 -84 -35 -127q0 -33 22 -33q130 0 290 157.5t317 424.5q8 16 30 16q21 0 37.5 -12.5t16.5 -30.5q0 -10 -5 -16q-41 -75 -77 -141 t-64 -122.5t-49 -113.5q-20 -58 -20 -103q0 -69 49 -69q35 0 98.5 45.5t124 103t84.5 90.5q16 23 37 23q17 0 29 -13t12 -32q0 -18 -13 -35q-26 -37 -72.5 -84t-99.5 -88t-115 -69.5t-116 -28.5q-55 0 -84 37t-29 102q0 50 23 121q-68 -74 -123.5 -120.5t-110.5 -77 t-102.5 -43.5t-89.5 -13q-90 0 -90 102q0 91 65 222q-30 -32 -73 -68q-16 -12 -33 -12q-19 0 -33 13t-14 32zM350 840q0 19 17 32q20 16 90.5 84.5t95.5 87.5q38 29 80 29q30 0 51 -18q100 -83 156 -168q10 -17 10 -29q0 -22 -15 -35.5t-34 -13.5q-25 0 -39 22 q-34 52 -76 96t-59 50q-13 -4 -46 -26.5t-73.5 -60t-75.5 -83.5q-16 -19 -33 -19t-33 17t-16 35z" />
<glyph unicode="&#xfc;" horiz-adv-x="1014" d="M-55 244q0 20 20 39q70 61 176 184.5t144 187.5q5 9 18 9q17 0 32 -11t15 -26q0 -5 -4 -13q-22 -43 -64 -130.5t-71 -152t-53 -124.5q-35 -84 -35 -127q0 -33 22 -33q130 0 290 157.5t317 424.5q8 16 30 16q21 0 37.5 -12.5t16.5 -30.5q0 -10 -5 -16q-41 -75 -77 -141 t-64 -122.5t-49 -113.5q-20 -58 -20 -103q0 -69 49 -69q35 0 98.5 45.5t124 103t84.5 90.5q16 23 37 23q17 0 29 -13t12 -32q0 -18 -13 -35q-26 -37 -72.5 -84t-99.5 -88t-115 -69.5t-116 -28.5q-55 0 -84 37t-29 102q0 50 23 121q-68 -74 -123.5 -120.5t-110.5 -77 t-102.5 -43.5t-89.5 -13q-90 0 -90 102q0 91 65 222q-30 -32 -73 -68q-16 -12 -33 -12q-19 0 -33 13t-14 32zM414 950q0 40 25.5 74.5t62.5 34.5q22 0 49 -16t46 -40t19 -49q0 -32 -45 -54.5t-88 -22.5q-35 0 -52 20t-17 53zM745 950q0 40 25.5 74.5t63.5 34.5q36 0 75 -34 t39 -71q0 -33 -43.5 -55t-89.5 -22q-70 0 -70 73z" />
<glyph unicode="&#xfd;" horiz-adv-x="729" d="M-51 242q0 18 14 32q94 98 162.5 173t120.5 147q11 14 22 28.5t20 22.5t17 8q22 0 36.5 -14t14.5 -39q0 -19 -12 -43q-36 -74 -70.5 -157t-55.5 -151.5t-21 -109.5q0 -43 24 -43q12 0 23 8q85 40 169.5 105.5t172 169.5t164.5 248q5 10 24 10q20 0 40 -13t20 -28 q0 -23 -8.5 -44.5t-34.5 -80.5q-20 -43 -43 -95.5t-42.5 -98t-51.5 -116t-54 -114.5q77 35 160.5 94.5t142.5 130.5q18 19 37 19q22 0 37.5 -14.5t15.5 -36.5q0 -18 -12 -33q-82 -100 -190.5 -170t-266.5 -156q-176 -381 -237 -504q-16 -32 -56 -55.5t-73 -23.5 q-57 0 -83 41.5t-26 105.5q0 77 21.5 142.5t65.5 121t115.5 114.5t188.5 136q20 41 52.5 115.5t48.5 109.5l2 4q-134 -122 -279 -186q-42 -18 -74 -18q-47 0 -72.5 38.5t-25.5 104.5q0 83 37 170l-46 -46l-46 -46q-15 -15 -35 -15q-21 0 -37 17t-16 35zM147 -522 q0 -58 23 -58q19 0 53 70q19 35 64 129.5t69 151.5q-113 -89 -161 -164.5t-48 -128.5zM602 836q0 23 22 41q38 29 75 57t76 54.5t83 49.5q18 13 31 13q22 0 36.5 -17t14.5 -39q0 -29 -31 -45q-26 -11 -52.5 -28.5t-51.5 -38t-59.5 -47.5t-63.5 -47q-13 -9 -27 -9 q-22 0 -37.5 17.5t-15.5 38.5z" />
<glyph unicode="&#xff;" horiz-adv-x="942" d="M-51 242q0 18 14 32q94 98 162.5 173t120.5 147q11 14 22 28.5t20 22.5t17 8q22 0 36.5 -14t14.5 -39q0 -19 -12 -43q-36 -74 -70.5 -157t-55.5 -151.5t-21 -109.5q0 -43 24 -43q12 0 23 8q85 40 169.5 105.5t172 169.5t164.5 248q5 10 24 10q20 0 40 -13t20 -28 q0 -23 -8.5 -44.5t-34.5 -80.5q-20 -43 -43 -95.5t-42.5 -98t-51.5 -116t-54 -114.5q77 35 160.5 94.5t142.5 130.5q18 19 37 19q22 0 37.5 -14.5t15.5 -36.5q0 -18 -12 -33q-82 -100 -190.5 -170t-266.5 -156q-176 -381 -237 -504q-16 -32 -56 -55.5t-73 -23.5 q-57 0 -83 41.5t-26 105.5q0 77 21.5 142.5t65.5 121t115.5 114.5t188.5 136q20 41 52.5 115.5t48.5 109.5l2 4q-134 -122 -279 -186q-42 -18 -74 -18q-47 0 -72.5 38.5t-25.5 104.5q0 83 37 170l-46 -46l-46 -46q-15 -15 -35 -15q-21 0 -37 17t-16 35zM147 -522 q0 -58 23 -58q19 0 53 70q19 35 64 129.5t69 151.5q-113 -89 -161 -164.5t-48 -128.5zM336 950q0 40 25.5 74.5t62.5 34.5q22 0 48.5 -15.5t46.5 -40t20 -49.5q0 -32 -45 -54.5t-88 -22.5q-70 0 -70 73zM668 950q0 40 24.5 74.5t63.5 34.5q36 0 75 -34t39 -71 q0 -33 -43.5 -55t-89.5 -22q-35 0 -52 20t-17 53z" />
<glyph unicode="&#x152;" horiz-adv-x="1690" d="M33 324q0 166 71.5 341t203.5 321t319 234.5t405 88.5q24 0 37.5 -15t13.5 -37q0 -20 -14 -35.5t-37 -15.5q-198 0 -365.5 -80.5t-287.5 -213.5t-183 -287t-63 -291q0 -139 65.5 -223t180.5 -84q134 0 256 71.5t215 186.5q12 105 86 190.5t201 149.5q-43 37 -60.5 91 t-17.5 97q0 41 12 88q-28 131 -162 131q-89 0 -178.5 -48.5t-154 -122.5t-84.5 -150q-10 -35 -48 -35q-20 0 -36.5 13.5t-16.5 35.5q0 43 41 114.5t112.5 138.5t166 111t204.5 44q147 0 218 -99q50 79 124 146.5t162.5 107t173.5 39.5q72 0 104 -33.5t32 -101.5 q0 -69 -43.5 -142t-106 -130.5t-117.5 -90.5q-32 -18 -55 -18q-17 0 -30 13t-13 32q0 29 25 45q32 20 91.5 70t102.5 107t43 104q0 18 -11.5 31.5t-31.5 13.5q-52 0 -156.5 -52.5t-185 -147t-80.5 -216.5q0 -59 45 -106q41 -47 41 -84q0 -23 -15.5 -39t-66.5 -47 q-93 -56 -155 -122.5t-62 -181.5q0 -73 50.5 -126.5t170.5 -53.5q86 0 152 17.5t116 47t90.5 65t94.5 89.5q20 21 39 21q21 0 35 -16.5t14 -38.5q0 -25 -35 -60q-63 -63 -123.5 -109.5t-159 -82t-223.5 -35.5q-106 0 -189 48t-116 134q-214 -207 -481 -207 q-174 0 -262 110.5t-88 289.5z" />
<glyph unicode="&#x153;" horiz-adv-x="1239" d="M-47 217q0 133 58.5 243.5t157 175t212.5 64.5q69 0 131 -20q35 -11 35 -45q0 -26 -17 -41q42 0 78.5 -22t55.5 -54q121 184 260 184q61 0 104 -30t43 -82q0 -75 -70 -150.5t-158 -132t-163 -92.5q0 -83 33 -130.5t92 -47.5q76 0 158.5 44t147.5 100.5t93 94.5 q14 21 39 21q20 0 37.5 -15t17.5 -36q0 -16 -12 -31q-39 -51 -109 -115t-169 -115t-203 -51q-97 0 -155.5 66t-74.5 166q-155 -227 -366 -227q-126 0 -191 79t-65 199zM55 223q0 -79 42 -130.5t112 -51.5q141 0 274 174q-139 75 -139 201q0 57 35.5 105.5t89.5 64.5 q-40 12 -88 12q-99 0 -174 -58.5t-113.5 -145.5t-38.5 -171zM446 420q0 -84 97 -119q39 79 39 133q0 55 -56 55q-36 0 -58 -19t-22 -50zM696 340q64 36 126.5 83t102.5 91.5t40 73.5q0 24 -29 24t-76.5 -30t-94 -93t-69.5 -149z" />
<glyph unicode="&#x178;" d="M-254 -608q0 25 17 39t75 14q212 0 378.5 87.5t284 229.5t212.5 332q69 142 159 309q-92 -94 -148.5 -149.5t-146 -128.5t-176 -117.5t-161.5 -44.5q-61 0 -95 40.5t-34 109.5q0 73 36 159q32 73 117 232t137.5 260.5t95 206t42.5 170.5q0 73 -70 73q-65 0 -125.5 -46 t-108 -118t-74 -151t-26.5 -139q0 -6 2 -22t2 -31q0 -20 -15.5 -34t-35.5 -14q-29 0 -42 20.5t-13 76.5q0 86 31 183.5t90 186t138.5 140t172.5 51.5q199 0 199 -162q0 -87 -50 -209t-140.5 -282t-150.5 -266t-81 -162q-19 -51 -19 -84q0 -64 56 -64q52 0 145.5 59.5 t206 159.5t224 223.5t185.5 235.5q25 48 64 144.5t63.5 136.5t57.5 40q61 0 61 -55q0 -40 -14 -78.5t-45 -97.5q-69 -130 -150.5 -281.5t-153 -289t-120.5 -236.5q-153 -308 -386.5 -507t-576.5 -199q-55 0 -74.5 8.5t-19.5 40.5zM713 1417q0 40 25.5 74.5t62.5 34.5 q22 0 49 -16t46 -40t19 -49q0 -29 -46 -52t-87 -23q-35 0 -52 20t-17 51zM1044 1417q0 40 25.5 74.5t63.5 34.5q36 0 75 -34t39 -71q0 -30 -44 -52.5t-89 -22.5q-70 0 -70 71z" />
<glyph unicode="&#x2c6;" horiz-adv-x="655" d="M98 840q0 19 17 32q22 19 60 58t65 67.5t51 46.5q38 29 80 29q30 0 51 -18q100 -83 156 -168q10 -17 10 -29q0 -22 -15 -35.5t-34 -13.5q-25 0 -39 22q-36 53 -78 96.5t-57 49.5q-14 -5 -79.5 -63.5t-105.5 -106.5q-16 -19 -33 -19t-33 17t-16 35z" />
<glyph unicode="&#x2dc;" horiz-adv-x="809" d="M72 858q0 21 16 37q21 23 50 54t68 53t91 22q88 0 149 -53q23 -19 38.5 -32.5t30 -21.5t28.5 -8q52 0 87.5 18t65.5 56q16 21 39 21q21 0 37 -16t16 -38q0 -10 -10 -30q-40 -54 -101.5 -83.5t-133.5 -29.5q-45 0 -74 16t-72 49q-60 48 -100 48q-15 0 -33.5 -9t-34 -22 t-31 -28t-40.5 -40q-15 -14 -35 -14q-19 0 -35 16t-16 35z" />
<glyph unicode="&#x2000;" horiz-adv-x="814" />
<glyph unicode="&#x2001;" horiz-adv-x="1628" />
<glyph unicode="&#x2002;" horiz-adv-x="814" />
<glyph unicode="&#x2003;" horiz-adv-x="1628" />
<glyph unicode="&#x2004;" horiz-adv-x="542" />
<glyph unicode="&#x2005;" horiz-adv-x="407" />
<glyph unicode="&#x2006;" horiz-adv-x="271" />
<glyph unicode="&#x2007;" horiz-adv-x="271" />
<glyph unicode="&#x2008;" horiz-adv-x="203" />
<glyph unicode="&#x2009;" horiz-adv-x="325" />
<glyph unicode="&#x200a;" horiz-adv-x="90" />
<glyph unicode="&#x2010;" horiz-adv-x="717" d="M92 528q0 21 13.5 36.5t37.5 15.5h430q25 0 38.5 -15t13.5 -37q0 -21 -13.5 -37t-38.5 -16h-430q-24 0 -37.5 16t-13.5 37z" />
<glyph unicode="&#x2011;" horiz-adv-x="717" d="M92 528q0 21 13.5 36.5t37.5 15.5h430q25 0 38.5 -15t13.5 -37q0 -21 -13.5 -37t-38.5 -16h-430q-24 0 -37.5 16t-13.5 37z" />
<glyph unicode="&#x2012;" horiz-adv-x="717" d="M92 528q0 21 13.5 36.5t37.5 15.5h430q25 0 38.5 -15t13.5 -37q0 -21 -13.5 -37t-38.5 -16h-430q-24 0 -37.5 16t-13.5 37z" />
<glyph unicode="&#x2013;" horiz-adv-x="829" d="M92 528q0 22 14 37t41 15h541q31 0 45.5 -14.5t14.5 -37.5q0 -21 -14 -37t-40 -16h-544q-28 0 -43 16t-15 37z" />
<glyph unicode="&#x2014;" d="M92 528q0 21 13.5 36.5t37.5 15.5h871q25 0 38 -14.5t13 -37.5q0 -22 -13 -37.5t-38 -15.5h-871q-24 0 -37.5 16t-13.5 37z" />
<glyph unicode="&#x2018;" horiz-adv-x="348" d="M213 1290q0 23 16 36t39 13q41 0 49 -41q37 -208 68 -266q4 -8 4 -22q0 -21 -17.5 -36.5t-37.5 -15.5q-31 0 -43 29q-23 52 -50.5 167.5t-27.5 135.5z" />
<glyph unicode="&#x2019;" horiz-adv-x="481" d="M256 1001q0 13 6 25q21 42 46.5 92t45.5 95.5t27 78.5q8 41 51 41q23 0 38 -13t15 -36q0 -43 -49 -148t-80 -155q-17 -29 -45 -29q-22 0 -38.5 14.5t-16.5 34.5z" />
<glyph unicode="&#x201a;" horiz-adv-x="573" d="M252 -49q0 12 6 24q21 42 46 90.5t45.5 96t27.5 80.5q4 19 18.5 30t32.5 11q21 0 37 -13.5t16 -36.5q0 -43 -49 -148t-80 -155q-17 -28 -45 -28q-22 0 -38.5 14t-16.5 35z" />
<glyph unicode="&#x201c;" horiz-adv-x="410" d="M49 1290q0 23 16 36t39 13q40 0 50 -41q33 -200 67 -266q4 -8 4 -22q0 -20 -17.5 -36t-37.5 -16q-31 0 -43 29q-23 52 -50.5 167.5t-27.5 135.5zM285 1290q0 22 16.5 35.5t38.5 13.5q41 0 49 -41q33 -201 68 -266q4 -8 4 -22q0 -21 -17.5 -36.5t-37.5 -15.5q-31 0 -44 29 q-23 50 -50 166.5t-27 136.5z" />
<glyph unicode="&#x201d;" horiz-adv-x="768" d="M256 1001q0 13 6 25q21 42 46.5 92t45.5 95.5t27 78.5q8 41 51 41q23 0 38 -13t15 -36q0 -43 -49 -148t-80 -155q-17 -29 -45 -29q-22 0 -38.5 14.5t-16.5 34.5zM512 1001q0 13 6 25q21 42 46.5 92t45.5 95.5t27 78.5q8 41 51 41q23 0 38 -13t15 -36q0 -42 -47.5 -143.5 t-81.5 -159.5q-17 -29 -45 -29q-22 0 -38.5 14.5t-16.5 34.5z" />
<glyph unicode="&#x201e;" horiz-adv-x="768" d="M252 -49q0 12 6 24q21 42 46 90.5t45.5 96t27.5 80.5q4 19 18.5 30t32.5 11q21 0 37 -13.5t16 -36.5q0 -43 -49 -148t-80 -155q-17 -28 -45 -28q-22 0 -38.5 14t-16.5 35zM508 -49q0 12 6 24q21 42 46 90.5t45.5 96t27.5 80.5q4 19 18.5 30t32.5 11q21 0 37 -13.5 t16 -36.5q0 -42 -47.5 -143.5t-81.5 -159.5q-17 -28 -45 -28q-22 0 -38.5 14t-16.5 35z" />
<glyph unicode="&#x2022;" horiz-adv-x="850" d="M143 453q0 50 19.5 101.5t58 93t91 64.5t120.5 23q89 0 151 -33.5t93 -88.5t31 -117q0 -110 -83.5 -194.5t-222.5 -84.5q-83 0 -141.5 33t-87.5 87t-29 116z" />
<glyph unicode="&#x2026;" horiz-adv-x="881" d="M66 23q0 42 28 79t68 37q51 0 98 -69q-1 -3 -2.5 -5t-3.5 -6q14 -14 14 -34q0 -24 -41.5 -47t-93.5 -23q-67 0 -67 68zM346 23q0 42 29 79t67 37q52 0 99 -69q-1 -3 -2.5 -5t-3.5 -6q14 -14 14 -34q0 -24 -42.5 -47t-92.5 -23q-32 0 -50 19.5t-18 48.5zM627 23 q0 42 29 79t67 37q51 0 98 -69q-1 -3 -2.5 -5t-3.5 -6q14 -14 14 -34q0 -24 -41.5 -47t-93.5 -23q-67 0 -67 68z" />
<glyph unicode="&#x202f;" horiz-adv-x="325" />
<glyph unicode="&#x2039;" horiz-adv-x="819" d="M25 541q0 41 100 104q57 35 137.5 74.5t198.5 94.5t158.5 74.5t78.5 45.5q15 8 27 8q21 0 36 -16.5t15 -38.5q0 -28 -24 -41q-58 -31 -172 -83.5t-218 -101t-169.5 -84t-65.5 -53.5q0 -31 77 -101t174 -140t200 -138q22 -14 22 -39q0 -22 -16.5 -38.5t-36.5 -16.5 q-14 0 -31 10q-80 58 -167 120.5t-162 124.5t-117 116q-45 55 -45 119z" />
<glyph unicode="&#x203a;" horiz-adv-x="768" d="M20 143q0 27 25 41q49 26 156.5 75.5t218 101t180.5 90.5t70 55q0 31 -77 101t-174 140t-200 138q-22 14 -22 39q0 22 15.5 38.5t37.5 16.5q13 0 31 -10q54 -40 134 -97.5t122.5 -89t101 -82.5t88.5 -92q45 -55 45 -119q0 -40 -100 -104q-51 -32 -152 -80.5t-173 -82 t-141 -67t-108 -59.5q-13 -8 -26 -8q-21 0 -36.5 17.5t-15.5 37.5z" />
<glyph unicode="&#x205f;" horiz-adv-x="407" />
<glyph unicode="&#x2122;" horiz-adv-x="893" d="M221 899l1.5 3t0.5 3q8 24 61 144.5t76 173.5q-88 -16 -114 -19q-23 0 -23 23q0 18 19 18q108 18 154.5 26.5t129.5 20.5q10 0 16.5 -6.5t6.5 -15.5q0 -19 -19 -19q-15 -2 -37.5 -5.5t-40.5 -7t-42 -7.5q-131 -289 -146 -338q-6 -14 -20 -14q-23 0 -23 20zM426 901 q0 6 2 8q13 18 55.5 97t75.5 135t64 94q31 43 49 43q22 0 22 -49q2 -70 2.5 -144.5t2 -119.5t6.5 -45q4 0 28 59q79 196 113 252q17 32 22 39.5t19 7.5q10 0 17.5 -9.5t12.5 -27t5 -33.5q0 -256 -4 -327q-5 -23 -21 -23t-16 19q0 53 4 179t4 154q0 27 -2 27q-7 0 -31 -55 q-50 -124 -111 -256q-21 -47 -49 -47q-24 0 -28 47q-6 63 -6 231q0 68 -3 68q-8 0 -80 -127t-114 -209q-5 -8 -14 -8t-17 6t-8 14z" />
<glyph unicode="&#xe000;" horiz-adv-x="680" d="M0 0v680h680v-680h-680z" />
</font>
</defs>
</svg>
